SplineFontDB: 2.0
FontName: THMaliGrade6-Bold
FullName: THMaliGrade6-Bold
FamilyName: TH Mali Grade 6
Weight: Bold
Copyright: Copyright (c) 2006 by Department of Intellectual Property (DIP), Ministry of Commerce and Software Industry Promotion Agency (Public Organization) (SIPA). All rights reserved.
Version: 1.1
ItalicAngle: 0
UnderlinePosition: -55
UnderlineWidth: 50
Ascent: 1638
Descent: 410
Order2: 1
XUID: [1021 375 425136265 16057784]
FSType: 0
OS2Version: 3
OS2_WeightWidthSlopeOnly: 0
OS2_UseTypoMetrics: 1
CreationTime: 1152588240
ModificationTime: 1196247260
PfmFamily: 17
TTFWeight: 700
TTFWidth: 5
LineGap: 123
VLineGap: 0
Panose: 2 0 5 6 0 0 0 2 0 4
OS2TypoAscent: 0
OS2TypoAOffset: 1
OS2TypoDescent: 0
OS2TypoDOffset: 1
OS2TypoLinegap: 0
OS2WinAscent: -18
OS2WinAOffset: 1
OS2WinDescent: -223
OS2WinDOffset: 1
HheadAscent: -18
HheadAOffset: 1
HheadDescent: 223
HheadDOffset: 1
OS2SubXSize: 1434
OS2SubYSize: 1331
OS2SubXOff: 0
OS2SubYOff: 287
OS2SupXSize: 1434
OS2SupYSize: 1331
OS2SupXOff: 0
OS2SupYOff: 977
OS2StrikeYSize: 49
OS2StrikeYPos: 399
OS2FamilyClass: 773
OS2Vendor: 'IPTH'
Lookup: 4 0 0 "'frac' Diagonal Fractions in Latin lookup 0"  {"'frac' Diagonal Fractions in Latin lookup 0 subtable"  } ['frac' ('latn' <'dflt' > ) ]
Lookup: 6 0 0 "'liga' Standard Ligatures in Latin lookup 1"  {"'liga' Standard Ligatures in Latin lookup 1 subtable"  } ['liga' ('latn' <'dflt' > ) ]
Lookup: 6 0 0 "'liga' Standard Ligatures in Latin lookup 2"  {"'liga' Standard Ligatures in Latin lookup 2 subtable"  } ['liga' ('latn' <'dflt' > ) ]
Lookup: 6 0 0 "'liga' Standard Ligatures in Latin lookup 3"  {"'liga' Standard Ligatures in Latin lookup 3 subtable"  } ['liga' ('latn' <'dflt' > ) ]
Lookup: 6 0 0 "'liga' Standard Ligatures in Latin lookup 4"  {"'liga' Standard Ligatures in Latin lookup 4 subtable"  } ['liga' ('latn' <'dflt' > ) ]

StartChar: .notdef
Encoding: 65536 -1 0
Width: 1811
VWidth: 3622
Flags: W
HStem: 25 143<1164.05 1412> 43.5 136.5<312.057 481.62 481.62 542.362 542.362 695.573 695.573 775.712 775.712 851.119 851.119 1047.24 1047.24 1160.5 1160.5 1193.41> 2360 134<779.239 1104.88 1104.88 1427.44> 2370 140<330.266 332.938 333 517.967 517.967 518.314 518.314 689 773 972.354 1315.99 1431>
VStem: 198 113<180 238.077 238.077 417.046 417.046 461.965 461.965 623.362 623.362 676.058 676.058 799.969 799.969 982.273 982.273 1160.37 1160.37 1215.83 1215.83 1247 1334 1609.83> 210 120<1252.84 1334 1334 1783.19 1783.19 2082.4 2082.4 2103 2103 2174.61 2174.61 2292.74 2292.74 2295.31 2295.31 2370 2370 2371> 1412 116<168 295.662 295.662 399.815 399.815 502.485 502.485 611.031 611.031 648 648 713.154 713.154 1481.5> 1426 120<1199 1875.46 1875.46 1953 1953 2034.97 2034.97 2096.06 2096.06 2360>
Fore
1546 2453 m 0,0,1
 1546 2427 1546 2427 1546 2363 c 128,-1,2
 1546 2299 1546 2299 1546 2207 c 128,-1,3
 1546 2115 1546 2115 1546 1998.5 c 128,-1,4
 1546 1882 1546 1882 1545 1752 c 128,-1,5
 1544 1622 1544 1622 1543 1481.5 c 128,-1,6
 1542 1341 1542 1341 1541 1199 c 2,7,-1
 1528 97 l 1,8,9
 1542 25 1542 25 1465 25 c 0,10,11
 1162 39 1162 39 952.5 43.5 c 128,-1,12
 743 48 743 48 601 48 c 0,13,14
 446 48 446 48 364.5 43.5 c 128,-1,15
 283 39 283 39 249 35 c 0,16,17
 235 35 235 35 216.5 41.5 c 128,-1,18
 198 48 198 48 198 87 c 0,19,20
 198 214 198 214 198 333.5 c 128,-1,21
 198 453 198 453 200 591 c 0,22,23
 200 670 200 670 201 761.5 c 128,-1,24
 202 853 202 853 202.5 901.5 c 0,25,-1
 204 1096 l 0,26,27
 205 1242 205 1242 205 1334 c 2,28,-1
 210 2103 l 2,29,30
 210 2186 210 2186 211 2245.5 c 128,-1,31
 212 2305 212 2305 212 2344.5 c 128,-1,32
 212 2384 212 2384 212 2408 c 128,-1,33
 212 2432 212 2432 212 2443 c 0,34,35
 212 2466 212 2466 222.5 2480 c 128,-1,36
 233 2494 233 2494 251 2500 c 128,-1,37
 269 2506 269 2506 291 2508 c 128,-1,38
 313 2510 313 2510 336 2510 c 0,39,40
 534 2505 534 2505 689 2500.5 c 128,-1,41
 844 2496 844 2496 976.5 2494 c 128,-1,42
 1109 2492 1109 2492 1233 2494 c 128,-1,43
 1357 2496 1357 2496 1496 2503 c 0,44,45
 1503 2503 1503 2503 1511 2503 c 128,-1,46
 1519 2503 1519 2503 1527 2498.5 c 128,-1,47
 1535 2494 1535 2494 1540.5 2483.5 c 128,-1,48
 1546 2473 1546 2473 1546 2453 c 0,0,1
333 2370 m 1,49,50
 329 2370 329 2370 330 2371 c 128,-1,51
 331 2372 331 2372 333 2370 c 1,49,50
1128 2360 m 2,52,53
 973 2360 973 2360 773 2361.5 c 128,-1,54
 573 2363 573 2363 334 2370 c 2,55,-1
 333 2370 l 1,56,57
 333 2324 333 2324 332 2213.5 c 128,-1,58
 331 2103 331 2103 330 1950 c 128,-1,59
 329 1797 329 1797 327 1615.5 c 128,-1,60
 325 1434 325 1434 324 1247 c 0,61,62
 324 1164 324 1164 322 1073.5 c 128,-1,63
 320 983 320 983 319 891 c 128,-1,64
 318 799 318 799 316.5 709 c 128,-1,65
 315 619 315 619 315 538 c 0,66,67
 313 387 313 387 312 298 c 128,-1,68
 311 209 311 209 311 180 c 1,69,70
 386 179 386 179 462 178 c 128,-1,71
 538 177 538 177 623 177 c 0,72,73
 690 175 690 175 768.5 174 c 128,-1,74
 847 173 847 173 934 173 c 0,75,76
 1047 172 1047 172 1160.5 172 c 128,-1,77
 1274 172 1274 172 1412 168 c 1,78,79
 1412 195 1412 195 1412 240 c 128,-1,80
 1412 285 1412 285 1413 352 c 0,81,82
 1413 394 1413 394 1414 448 c 128,-1,83
 1415 502 1415 502 1415 557 c 128,-1,84
 1415 612 1415 612 1416 665 c 128,-1,85
 1417 718 1417 718 1417 761 c 2,86,-1
 1420 1263 l 1,87,-1
 1426 1953 l 2,88,89
 1426 1974 1426 1974 1426 2004 c 128,-1,90
 1426 2034 1426 2034 1426.5 2066 c 128,-1,91
 1427 2098 1427 2098 1427 2126 c 128,-1,92
 1427 2154 1427 2154 1427 2174 c 2,93,-1
 1431 2360 l 1,94,-1
 1128 2360 l 2,52,53
EndSplineSet
EndChar
StartChar: uni0E01
Encoding: 3585 3585 5
Width: 1455
VWidth: 3622
Flags: W
HStem: 1222 108<473.656 878.223>
VStem: 336 103<-63.543 13.6962 13.6962 59.264> 377 103<317.895 374 384 440.6 440.6 440.627 440.614 659.116> 1169 108<-35 25.5499 25.5499 140.119 140.119 140.604 140.604 195 195 410.912>
Fore
1277 -35 m 2,0,1
 1277 -78 1277 -78 1229 -83 c 256,2,3
 1182 -88 1182 -88 1176 -35 c 0,4,5
 1171 35 1171 35 1169 85.5 c 128,-1,6
 1167 136 1167 136 1167 195 c 0,7,8
 1160 448 1160 448 1148.5 640.5 c 128,-1,9
 1137 833 1137 833 1093 962 c 128,-1,10
 1049 1091 1049 1091 958.5 1156.5 c 128,-1,11
 868 1222 868 1222 708 1222 c 0,12,13
 582 1220 582 1220 482 1185 c 128,-1,14
 382 1150 382 1150 312 1099.5 c 128,-1,15
 242 1049 242 1049 202.5 994 c 128,-1,16
 163 939 163 939 157 899 c 1,17,18
 161 897 l 1,19,-1
 179 891 l 1,20,21
 191 883 191 883 215 876.5 c 128,-1,22
 239 870 239 870 264 865 c 1,23,24
 267.5 863 l 0,25,-1
 278 858 l 0,26,27
 317 845 317 845 354 829.5 c 128,-1,28
 391 814 391 814 416 799 c 0,29,30
 456 777 456 777 472 711.5 c 128,-1,31
 488 646 488 646 488 555 c 256,32,33
 488 465 488 465 480 374 c 128,-1,34
 472 283 472 283 462 202 c 2,35,-1
 451 110 l 1,36,-1
 439 -16 l 2,37,38
 435 -64 435 -64 386 -64 c 256,39,40
 336 -64 336 -64 336 -12 c 0,41,42
 336 12 336 12 338.5 39.5 c 128,-1,43
 341 67 341 67 345 103 c 0,44,45
 345 104 345 104 346.5 111.5 c 128,-1,46
 348 119 348 119 348 122 c 2,47,-1
 359 218 l 2,48,49
 368 297 368 297 377 384 c 128,-1,50
 386 471 386 471 386 555 c 0,51,52
 386 617 386 617 383 656 c 128,-1,53
 380 695 380 695 371 704 c 1,54,55
 359 709 359 709 343 715.5 c 128,-1,56
 327 722 327 722 310 729 c 0,57,58
 290 734 290 734 269 741 c 128,-1,59
 248 748 248 748 232 757 c 1,60,-1
 233 757 l 1,61,62
 202 769 202 769 173.5 780.5 c 128,-1,63
 145 792 145 792 119 803 c 0,64,65
 53 831 53 831 53 884 c 0,66,67
 53 936 53 936 98 1012 c 128,-1,68
 143 1088 143 1088 227 1158 c 128,-1,69
 311 1228 311 1228 431.5 1278 c 128,-1,70
 552 1328 552 1328 708 1330 c 0,71,72
 810 1330 810 1330 887 1314 c 128,-1,73
 964 1298 964 1298 1022.5 1265.5 c 128,-1,74
 1081 1233 1081 1233 1120.5 1180.5 c 128,-1,75
 1160 1128 1160 1128 1189 1058 c 0,76,77
 1219 987 1219 987 1234 898.5 c 128,-1,78
 1249 810 1249 810 1252 704 c 0,79,80
 1258 598 1258 598 1262 471.5 c 128,-1,81
 1266 345 1266 345 1270 195 c 0,82,83
 1270 136 1270 136 1272 86.5 c 128,-1,84
 1274 37 1274 37 1277 -34 c 2,85,-1
 1277 -35 l 2,0,1
EndSplineSet
EndChar
StartChar: uni0E02
Encoding: 3586 3586 6
Width: 1068
VWidth: 3622
Flags: W
HStem: 0 103<555.364 698.833> 778 90<166.862 311.212> 1249 94<318.973 411.078>
VStem: 48 86<952.488 1052.28 1060 1061> 386 102<280.963 509.65 942.762 996> 539 92<1000.44 1134> 799 101<720.472 955.485 955.485 1007.55 981.517 1173.56 1112.79 1234.34> 827 89<258.696 373.815 337.362 410.269 410.269 452.689 452.689 570.096 570.096 644 644 661.344>
Fore
143 1060 m 1,0,1
 134 1024 134 1024 134 1001 c 0,2,3
 134 964 134 964 149 932 c 0,4,5
 180 872 180 872 265 868 c 0,6,7
 292 867 292 867 312.5 875.5 c 128,-1,8
 333 884 333 884 348 901 c 128,-1,9
 363 918 363 918 371 940 c 128,-1,10
 379 962 379 962 379 987 c 0,11,12
 379 1038 379 1038 347 1075.5 c 128,-1,13
 315 1113 315 1113 258 1116 c 0,14,15
 226 1120 226 1120 191.5 1108.5 c 128,-1,16
 157 1097 157 1097 143 1061 c 1,17,-1
 143 1060 l 1,0,1
463 761 m 0,18,19
 490 856 490 856 513 950 c 128,-1,20
 536 1044 536 1044 539 1134 c 1,21,22
 525 1192 525 1192 479 1219.5 c 128,-1,23
 433 1247 433 1247 382 1249 c 0,24,25
 347 1251 347 1251 312.5 1240 c 128,-1,26
 278 1229 278 1229 260 1215 c 1,27,28
 375 1208 375 1208 423 1153 c 128,-1,29
 471 1098 471 1098 478 996 c 1,30,-1
 478 998 l 1,31,32
 481 966 481 966 467 928 c 128,-1,33
 453 890 453 890 424.5 856 c 128,-1,34
 396 822 396 822 355.5 800 c 128,-1,35
 315 778 315 778 265 778 c 0,36,37
 209 780 209 780 165.5 801 c 128,-1,38
 122 822 122 822 93.5 856.5 c 128,-1,39
 65 891 65 891 53.5 937 c 128,-1,40
 42 983 42 983 48 1035 c 0,41,42
 51 1081 51 1081 69 1135 c 128,-1,43
 87 1189 87 1189 125.5 1235 c 128,-1,44
 164 1281 164 1281 227 1312 c 128,-1,45
 290 1343 290 1343 384 1343 c 0,46,47
 398 1343 398 1343 411.5 1342 c 128,-1,48
 425 1341 425 1341 439 1339 c 0,49,50
 483 1334 483 1334 517.5 1311 c 128,-1,51
 552 1288 552 1288 576 1258.5 c 128,-1,52
 600 1229 600 1229 614 1198 c 128,-1,53
 628 1167 628 1167 631 1144 c 0,54,55
 640 1065 640 1065 616.5 963 c 128,-1,56
 593 861 593 861 562 750 c 0,57,58
 534 646 534 646 511 546 c 128,-1,59
 488 446 488 446 488 366 c 0,60,61
 488 333 488 333 492.5 287.5 c 128,-1,62
 497 242 497 242 512 200.5 c 128,-1,63
 527 159 527 159 554.5 131 c 128,-1,64
 582 103 582 103 628 103 c 0,65,66
 681 101 681 101 721 117.5 c 128,-1,67
 761 134 761 134 780 168 c 0,68,69
 803 203 803 203 815.5 245 c 128,-1,70
 828 287 828 287 828 329 c 0,71,72
 828 333 828 333 827 346 c 128,-1,73
 826 359 826 359 824 384 c 0,74,75
 821 435 821 435 817.5 522.5 c 128,-1,76
 814 610 814 610 809.5 711 c 128,-1,77
 805 812 805 812 802 914.5 c 128,-1,78
 799 1017 799 1017 799 1100 c 256,79,80
 799 1183 799 1183 804.5 1236 c 128,-1,81
 810 1289 810 1289 824 1298 c 0,82,83
 849 1312 849 1312 866 1311.5 c 128,-1,84
 883 1311 883 1311 892.5 1303 c 128,-1,85
 902 1295 902 1295 905.5 1283.5 c 128,-1,86
 909 1272 909 1272 909 1265 c 0,87,88
 906 1215 906 1215 903 1164.5 c 128,-1,89
 900 1114 900 1114 900 1061 c 0,90,91
 900 955 900 955 905.5 850 c 128,-1,92
 911 745 911 745 916 644 c 0,93,94
 922 559 922 559 925.5 481 c 128,-1,95
 929 403 929 403 929 340 c 0,96,97
 929 278 929 278 915.5 217 c 128,-1,98
 902 156 902 156 867.5 108 c 128,-1,99
 833 60 833 60 775.5 30 c 128,-1,100
 718 0 718 0 628 0 c 0,101,102
 555 0 555 0 508.5 35.5 c 128,-1,103
 462 71 462 71 434.5 125.5 c 128,-1,104
 407 180 407 180 396.5 245 c 128,-1,105
 386 310 386 310 386 366 c 0,106,107
 389 472 389 472 412 568.5 c 128,-1,108
 435 665 435 665 463 761 c 0,18,19
EndSplineSet
EndChar
StartChar: uni0E03
Encoding: 3587 3587 7
Width: 1195
VWidth: 3622
Flags: W
HStem: -7 103<721.525 898.637> 775 90<224.044 321.594> 1047 20G<467 478.5> 1236 103<269.509 400.842 585.625 649.336>
VStem: 44 99<917.831 1053.56> 380 98<931.063 996> 522 101<293.618 452.013> 677 98<996.555 1108.64 1102.79 1114.48 1114.48 1152.56> 939 87<689.245 812 812 888.485 888.485 921.454 921.454 1034.73 978.092 1131.87 1088.55 1175.19 1175.19 1202.48 1202.48 1304.49> 943 107.5<167.281 221 246 272.682 272.682 299.96 286.321 386.479 360.446 412.512 412.512 447.723 447.723 578.027 578.027 606.674>
Fore
156 1051 m 0,0,1
 150 1033 150 1033 146.5 1018 c 128,-1,2
 143 1003 143 1003 143 987 c 0,3,4
 143 957 143 957 159 925 c 0,5,6
 173 895 173 895 200.5 881 c 128,-1,7
 228 867 228 867 269 865 c 0,8,9
 320 861 320 861 350 898.5 c 128,-1,10
 380 936 380 936 380 987 c 256,11,12
 380 1038 380 1038 353.5 1070 c 128,-1,13
 327 1102 327 1102 271 1106 c 0,14,15
 235 1109 235 1109 202.5 1097.5 c 128,-1,16
 170 1086 170 1086 156 1051 c 0,0,1
334 1236 m 0,17,18
 310 1236 310 1236 287 1228 c 0,19,20
 276 1224 276 1224 265.5 1217 c 128,-1,21
 255 1210 255 1210 248 1201 c 1,22,23
 318 1197 318 1197 365 1178.5 c 128,-1,24
 412 1160 412 1160 439 1123 c 1,25,26
 425 1162 425 1162 399 1199 c 128,-1,27
 373 1236 373 1236 334 1236 c 0,17,18
518 1061 m 1,28,29
 492 1052 492 1052 465 1067 c 1,30,31
 469 1051 469 1051 472.5 1033 c 128,-1,32
 476 1015 476 1015 478 996 c 1,33,-1
 478 998 l 1,34,35
 483 964 483 964 469 925 c 128,-1,36
 455 886 455 886 427.5 852.5 c 128,-1,37
 400 819 400 819 359 797 c 128,-1,38
 318 775 318 775 269 775 c 0,39,40
 159 778 159 778 101.5 847 c 128,-1,41
 44 916 44 916 44 1024 c 0,42,43
 50 1083 50 1083 75.5 1139.5 c 128,-1,44
 101 1196 101 1196 140.5 1240 c 128,-1,45
 180 1284 180 1284 232.5 1311.5 c 128,-1,46
 285 1339 285 1339 347 1339 c 0,47,48
 393 1339 393 1339 430 1312.5 c 128,-1,49
 467 1286 467 1286 497 1224 c 1,50,51
 518 1284 518 1284 551.5 1307 c 128,-1,52
 585 1330 585 1330 621 1330 c 0,53,54
 660 1330 660 1330 684 1317 c 128,-1,55
 708 1304 708 1304 723 1282.5 c 128,-1,56
 738 1261 738 1261 746 1235.5 c 128,-1,57
 754 1210 754 1210 759 1185 c 2,58,-1
 768 1153 l 2,59,60
 771 1139 771 1139 773 1121.5 c 128,-1,61
 775 1104 775 1104 775 1084 c 0,62,63
 775 1049 775 1049 768 1006.5 c 128,-1,64
 761 964 761 964 750 917 c 128,-1,65
 739 870 739 870 725 821.5 c 128,-1,66
 711 773 711 773 699 725 c 0,67,68
 670 630 670 630 646.5 532.5 c 128,-1,69
 623 435 623 435 623 359 c 0,70,71
 623 325 623 325 635 280 c 128,-1,72
 647 235 647 235 671 193.5 c 128,-1,73
 695 152 695 152 730.5 124 c 128,-1,74
 766 96 766 96 812 96 c 0,75,76
 879 96 879 96 914 166 c 0,77,78
 934 207 934 207 943 246 c 128,-1,79
 952 285 952 285 952 331 c 0,80,81
 952 343 952 343 950 391 c 128,-1,82
 948 439 948 439 946.5 505 c 128,-1,83
 945 571 945 571 943 651.5 c 128,-1,84
 941 732 941 732 939 812 c 0,85,86
 936 888 936 888 935 965 c 128,-1,87
 934 1042 934 1042 934 1104 c 0,88,89
 934 1189 934 1189 937.5 1245.5 c 128,-1,90
 941 1302 941 1302 948 1314 c 0,91,92
 982 1358 982 1358 1015 1323 c 1,93,-1
 1014 1327 l 1,94,95
 1040 1307 1040 1307 1040 1284 c 0,96,97
 1031 1220 1031 1220 1028.5 1155 c 128,-1,98
 1026 1090 1026 1090 1026 1022 c 0,99,100
 1026 920 1026 920 1031.5 821 c 128,-1,101
 1037 722 1037 722 1042 628 c 0,102,103
 1047 552 1047 552 1050.5 478.5 c 128,-1,104
 1054 405 1054 405 1054 347 c 0,105,106
 1054 285 1054 285 1041 221 c 128,-1,107
 1028 157 1028 157 998.5 107 c 128,-1,108
 969 57 969 57 923 25 c 128,-1,109
 877 -7 877 -7 812 -7 c 0,110,111
 741 -7 741 -7 687 28.5 c 128,-1,112
 633 64 633 64 596 118.5 c 128,-1,113
 559 173 559 173 540.5 237.5 c 128,-1,114
 522 302 522 302 522 359 c 0,115,116
 522 449 522 449 546.5 542 c 128,-1,117
 571 635 571 635 601 729 c 0,118,119
 631 819 631 819 654 906.5 c 128,-1,120
 677 994 677 994 677 1079 c 0,121,122
 677 1114 677 1114 672 1150 c 0,123,124
 667 1183 667 1183 658 1208 c 128,-1,125
 649 1233 649 1233 623 1229 c 0,126,127
 596 1228 596 1228 584 1187 c 1,128,-1
 584 1189 l 1,129,-1
 547 1081 l 2,130,131
 539 1067 539 1067 527 1067 c 1,132,133
 522 1063 522 1063 520 1063 c 1,134,-1
 509 1060 l 1,135,-1
 518 1061 l 1,28,29
EndSplineSet
EndChar
StartChar: uni0E04
Encoding: 3588 3588 8
Width: 1478
VWidth: 3622
Flags: W
HStem: 11 21G<254.5 282> 738 95<660.031 807.391> 1247 99<586.716 952.895>
VStem: 179 97<105.531 244 244 363.129 363.129 518 518 863.599> 837 88<517.582 708.481> 1206 92<93.9955 220.273 220.273 509.15 509.15 534.546 534.546 719.898>
Fore
759 1346 m 0,0,1
 884 1346 884 1346 973.5 1310.5 c 128,-1,2
 1063 1275 1063 1275 1123 1211.5 c 128,-1,3
 1183 1148 1183 1148 1217.5 1060.5 c 128,-1,4
 1252 973 1252 973 1270 870.5 c 128,-1,5
 1288 768 1288 768 1293 652 c 128,-1,6
 1298 536 1298 536 1298 417 c 0,7,8
 1298 393 1298 393 1298 353 c 128,-1,9
 1298 313 1298 313 1298 267 c 128,-1,10
 1298 221 1298 221 1295.5 173.5 c 128,-1,11
 1293 126 1293 126 1287.5 88 c 128,-1,12
 1282 50 1282 50 1274 27 c 128,-1,13
 1266 4 1266 4 1252 4 c 0,14,15
 1226 0 1226 0 1214.5 19.5 c 128,-1,16
 1203 39 1203 39 1206 62 c 1,17,-1
 1206 417 l 2,18,19
 1206 506 1206 506 1203.5 601.5 c 128,-1,20
 1201 697 1201 697 1188.5 790 c 128,-1,21
 1176 883 1176 883 1148.5 966 c 128,-1,22
 1121 1049 1121 1049 1071.5 1111.5 c 128,-1,23
 1022 1174 1022 1174 946 1210.5 c 128,-1,24
 870 1247 870 1247 759 1247 c 0,25,26
 670 1247 670 1247 586 1203.5 c 128,-1,27
 502 1160 502 1160 434 1076 c 128,-1,28
 366 992 366 992 323.5 867.5 c 128,-1,29
 281 743 281 743 279 578 c 2,30,-1
 276 104 l 1,31,32
 302 122 302 122 332.5 182 c 128,-1,33
 363 242 363 242 390 315.5 c 128,-1,34
 417 389 417 389 438.5 461.5 c 128,-1,35
 460 534 460 534 471 578 c 0,36,37
 488 640 488 640 505 688 c 128,-1,38
 522 736 522 736 548.5 767.5 c 128,-1,39
 575 799 575 799 614.5 816 c 128,-1,40
 654 833 654 833 718 833 c 0,41,42
 925 833 925 833 925 616 c 0,43,44
 925 509 925 509 863 453.5 c 128,-1,45
 801 398 801 398 699 398 c 0,46,47
 660 398 660 398 622.5 413 c 128,-1,48
 585 428 585 428 539 465 c 1,49,50
 492 324 492 324 455.5 235.5 c 128,-1,51
 419 147 419 147 388 96.5 c 128,-1,52
 357 46 357 46 328 28.5 c 128,-1,53
 299 11 299 11 265 11 c 0,54,55
 244 12 244 12 228 26.5 c 128,-1,56
 212 41 212 41 202.5 92 c 128,-1,57
 193 143 193 143 186.5 244 c 128,-1,58
 180 345 180 345 179 518 c 0,59,60
 175 716 175 716 222 871 c 128,-1,61
 269 1026 269 1026 350.5 1131 c 128,-1,62
 432 1236 432 1236 538 1291 c 128,-1,63
 644 1346 644 1346 759 1346 c 0,0,1
718 738 m 0,64,65
 677 738 677 738 652.5 723 c 128,-1,66
 628 708 628 708 613 682 c 128,-1,67
 598 656 598 656 591 622.5 c 128,-1,68
 584 589 584 589 578 550 c 1,69,70
 614 524 614 524 645.5 509.5 c 128,-1,71
 677 495 677 495 697 490 c 1,72,73
 769 495 769 495 803 520 c 128,-1,74
 837 545 837 545 837 616 c 0,75,76
 837 676 837 676 802.5 707 c 128,-1,77
 768 738 768 738 718 738 c 0,64,65
EndSplineSet
EndChar
StartChar: uni0E05
Encoding: 3589 3589 9
Width: 1462
VWidth: 3622
Flags: W
HStem: 11 21G<260 288.5> 410 91<676.127 798.333> 745 106<636.099 827.531>
VStem: 145 103.5<328.971 373.208 373.208 553.85 553.85 713.409> 860 76<530.693 718.727> 1200 95<6.70312 101.485 101.485 133 133 299.969 299.969 453.274 453.274 515.738 515.738 707.5 733 966.719>
Fore
702 1238 m 0,0,1
 722 1220 722 1220 738 1202.5 c 128,-1,2
 754 1185 754 1185 766 1167 c 1,3,4
 780 1187 780 1187 793.5 1203.5 c 128,-1,5
 807 1220 807 1220 822 1236 c 0,6,7
 858 1277 858 1277 894 1313.5 c 128,-1,8
 930 1350 930 1350 987 1357 c 1,9,10
 1084 1343 1084 1343 1145 1261.5 c 128,-1,11
 1206 1180 1206 1180 1239 1040 c 128,-1,12
 1272 900 1272 900 1283.5 707.5 c 128,-1,13
 1295 515 1295 515 1295 278 c 0,14,15
 1295 223 1295 223 1295 162 c 128,-1,16
 1295 101 1295 101 1293 41 c 0,17,18
 1293 7 1293 7 1275.5 -6 c 128,-1,19
 1258 -19 1258 -19 1239 -16.5 c 128,-1,20
 1220 -14 1220 -14 1206 3.5 c 128,-1,21
 1192 21 1192 21 1197 50 c 1,22,23
 1199 133 1199 133 1200 216 c 128,-1,24
 1201 299 1201 299 1201 384 c 0,25,26
 1201 575 1201 575 1187.5 733 c 128,-1,27
 1174 891 1174 891 1147 1003.5 c 128,-1,28
 1120 1116 1120 1116 1077.5 1178 c 128,-1,29
 1035 1240 1035 1240 975 1240 c 0,30,31
 950 1240 950 1240 923.5 1214.5 c 128,-1,32
 897 1189 897 1189 872 1154.5 c 128,-1,33
 847 1120 847 1120 826 1082 c 128,-1,34
 805 1044 805 1044 791 1021 c 0,35,36
 784 1010 784 1010 773 1010 c 128,-1,37
 762 1010 762 1010 754 1019 c 1,38,39
 706 1086 706 1086 646.5 1146 c 128,-1,40
 587 1206 587 1206 513 1229 c 1,41,42
 467 1210 467 1210 419 1150 c 128,-1,43
 371 1090 371 1090 333 1008.5 c 128,-1,44
 295 927 295 927 272 832.5 c 128,-1,45
 249 738 249 738 251 647 c 0,46,47
 246 557 246 557 245 460.5 c 128,-1,48
 244 364 244 364 248.5 286.5 c 128,-1,49
 253 209 253 209 261 158.5 c 128,-1,50
 269 108 269 108 279 110 c 1,51,52
 306 126 306 126 329 187 c 128,-1,53
 352 248 352 248 372.5 324 c 128,-1,54
 393 400 393 400 411.5 474 c 128,-1,55
 430 548 430 548 449 591 c 2,56,57
 469 660 469 660 493.5 709.5 c 128,-1,58
 518 759 518 759 551 790.5 c 128,-1,59
 584 822 584 822 627 836.5 c 128,-1,60
 670 851 670 851 729 851 c 0,61,62
 828 851 828 851 882 793.5 c 128,-1,63
 936 736 936 736 936 626 c 0,64,65
 936 410 936 410 723 410 c 0,66,67
 685 410 685 410 628 427 c 128,-1,68
 571 444 571 444 520 476 c 1,69,70
 499 416 499 416 483 364.5 c 128,-1,71
 467 313 467 313 453 272 c 0,72,73
 426 193 426 193 407.5 141.5 c 128,-1,74
 389 90 389 90 370.5 61 c 128,-1,75
 352 32 352 32 329 21.5 c 128,-1,76
 306 11 306 11 271 11 c 0,77,78
 249 11 249 11 226 32 c 128,-1,79
 203 53 203 53 185.5 112.5 c 128,-1,80
 168 172 168 172 156.5 279 c 128,-1,81
 145 386 145 386 145 559 c 0,82,83
 145 695 145 695 166 822.5 c 128,-1,84
 187 950 187 950 232.5 1056 c 128,-1,85
 278 1162 278 1162 346 1238 c 128,-1,86
 414 1314 414 1314 508 1346 c 1,87,88
 564 1341 564 1341 613 1311 c 128,-1,89
 662 1281 662 1281 702 1238 c 0,0,1
731 745 m 0,90,91
 640 745 640 745 612 692 c 1,92,-1
 612 693 l 1,93,94
 596 669 596 669 584.5 635 c 128,-1,95
 573 601 573 601 564 561 c 1,96,97
 605 531 605 531 647.5 518.5 c 128,-1,98
 690 506 690 506 720 501 c 1,99,100
 743 502 743 502 767.5 508.5 c 128,-1,101
 792 515 792 515 815 529 c 0,102,103
 860 557 860 557 860 626 c 0,104,105
 860 693 860 693 819 718 c 0,106,107
 777 745 777 745 731 745 c 0,90,91
EndSplineSet
EndChar
StartChar: uni0E06
Encoding: 3590 3590 10
Width: 1521
VWidth: 3622
Flags: W
HStem: -46 94<465.473 619.238> 357 96<407.31 575.839> 1010 88<207.719 311.137> 1183 103<228.25 335.246 628 658.5 658.5 708.5>
VStem: 44 98<811.851 947.305> 265 94<207 210 210 263.344> 371 98<847.729 980.39> 660 90<198.905 298.248 430 776.624> 674 86.5<760.376 912.304 912.304 1088.3 1088.3 1144.58> 1272 97<76.2191 121.389 121.389 375.504 375.504 628.623 628.623 999.62 999.62 1255.85>
Fore
142 893 m 0,0,1
 143 838 143 838 176 811 c 128,-1,2
 209 784 209 784 267 780 c 1,3,4
 318 789 318 789 344.5 816.5 c 128,-1,5
 371 844 371 844 371 895 c 0,6,7
 371 1005 371 1005 253 1010 c 0,8,9
 221 1012 221 1012 196 999 c 0,10,11
 175 989 175 989 157.5 964 c 128,-1,12
 140 939 140 939 142 893 c 0,0,1
674 1107 m 2,13,14
 674 1139 674 1139 660 1156 c 128,-1,15
 646 1173 646 1173 628 1177.5 c 128,-1,16
 610 1182 610 1182 592.5 1171 c 128,-1,17
 575 1160 575 1160 568 1136 c 1,18,-1
 568 1137 l 1,19,-1
 532 1029 l 1,20,21
 518 1005 518 1005 487 1005 c 128,-1,22
 456 1005 456 1005 437 1037 c 1,23,24
 433 1060 433 1060 424.5 1085.5 c 128,-1,25
 416 1111 416 1111 398 1133 c 128,-1,26
 380 1155 380 1155 352.5 1169 c 128,-1,27
 325 1183 325 1183 287 1183 c 0,28,29
 235 1187 235 1187 199 1160.5 c 128,-1,30
 163 1134 163 1134 159 1083 c 1,31,32
 184 1091 184 1091 207 1094.5 c 128,-1,33
 230 1098 230 1098 253 1098 c 0,34,35
 297 1098 297 1098 336 1083 c 128,-1,36
 375 1068 375 1068 403.5 1042.5 c 128,-1,37
 432 1017 432 1017 448.5 981.5 c 128,-1,38
 465 946 465 946 469 906 c 0,39,40
 471 874 471 874 458.5 836 c 128,-1,41
 446 798 446 798 419.5 765 c 128,-1,42
 393 732 393 732 355 710 c 128,-1,43
 317 688 317 688 267 688 c 0,44,45
 150 693 150 693 100 750.5 c 128,-1,46
 50 808 50 808 44 925 c 0,47,48
 41 992 41 992 52.5 1056.5 c 128,-1,49
 64 1121 64 1121 93 1172.5 c 128,-1,50
 122 1224 122 1224 171.5 1255 c 128,-1,51
 221 1286 221 1286 295 1286 c 0,52,53
 341 1286 341 1286 390.5 1257.5 c 128,-1,54
 440 1229 440 1229 476 1169 c 1,55,56
 501 1222 501 1222 535.5 1248.5 c 128,-1,57
 570 1275 570 1275 605 1279 c 0,58,59
 631 1282 631 1282 658.5 1281.5 c 128,-1,60
 686 1281 686 1281 708.5 1273 c 128,-1,61
 731 1265 731 1265 746.5 1250 c 128,-1,62
 762 1235 762 1235 768 1210 c 1,63,64
 768 1121 768 1121 766 1017.5 c 128,-1,65
 764 914 764 914 760.5 807 c 128,-1,66
 757 700 757 700 754.5 596.5 c 128,-1,67
 752 493 752 493 750 405 c 1,68,69
 840 356 840 356 904.5 319.5 c 128,-1,70
 969 283 969 283 1019.5 253 c 128,-1,71
 1070 223 1070 223 1109 197.5 c 128,-1,72
 1148 172 1148 172 1185 145 c 2,73,-1
 1272 76 l 1,74,-1
 1272 1229 l 2,75,76
 1272 1259 1272 1259 1287 1274 c 128,-1,77
 1302 1289 1302 1289 1321.5 1288.5 c 128,-1,78
 1341 1288 1341 1288 1357 1270 c 128,-1,79
 1373 1252 1373 1252 1373 1219 c 0,80,81
 1371 964 1371 964 1371 782.5 c 128,-1,82
 1371 601 1371 601 1370 476.5 c 128,-1,83
 1369 352 1369 352 1369 276 c 128,-1,84
 1369 200 1369 200 1369 155 c 128,-1,85
 1369 110 1369 110 1368 88.5 c 128,-1,86
 1367 67 1367 67 1367 51 c 0,87,88
 1364 9 1364 9 1342.5 -4.5 c 128,-1,89
 1321 -18 1321 -18 1291 -21 c 1,90,91
 1251 -16 1251 -16 1213.5 3.5 c 128,-1,92
 1176 23 1176 23 1142.5 46 c 128,-1,93
 1109 69 1109 69 1079 91 c 128,-1,94
 1049 113 1049 113 1022 127 c 2,95,96
 968 168 968 168 905 209.5 c 128,-1,97
 842 251 842 251 752 299 c 1,98,99
 750 235 750 235 742 174 c 128,-1,100
 734 113 734 113 716 69 c 1,101,-1
 725 76 l 1,102,103
 704 19 704 19 651 -12.5 c 128,-1,104
 598 -44 598 -44 522 -46 c 0,105,106
 446 -46 446 -46 396.5 -22 c 128,-1,107
 347 2 347 2 317.5 40 c 128,-1,108
 288 78 288 78 276.5 123 c 128,-1,109
 265 168 265 168 265 210 c 0,110,111
 264 242 264 242 278 283.5 c 128,-1,112
 292 325 292 325 324 362.5 c 128,-1,113
 356 400 356 400 406 426.5 c 128,-1,114
 456 453 456 453 527 453 c 0,115,116
 552 453 552 453 590 446.5 c 128,-1,117
 628 440 628 440 660 430 c 1,118,-1
 674 1107 l 2,13,14
653 281 m 0,119,120
 651 295 651 295 637 309.5 c 128,-1,121
 623 324 623 324 603.5 334.5 c 128,-1,122
 584 345 584 345 563.5 351 c 128,-1,123
 543 357 543 357 531 357 c 0,124,125
 455 357 455 357 405.5 316.5 c 128,-1,126
 356 276 356 276 359 205 c 1,127,-1
 359 207 l 1,128,129
 356 175 356 175 368 145 c 128,-1,130
 380 115 380 115 403 93 c 128,-1,131
 426 71 426 71 456 58.5 c 128,-1,132
 486 46 486 46 520 48 c 0,133,134
 596 51 596 51 629.5 107.5 c 128,-1,135
 663 164 663 164 653 281 c 0,119,120
EndSplineSet
EndChar
StartChar: uni0E07
Encoding: 3591 3591 11
Width: 1199
VWidth: 3622
Flags: W
HStem: 830 109<708.155 886.889> 1251 99<713.238 861.697>
VStem: 539 101<996.137 1171.72> 943 115<754.368 876 981.438 1099.53>
Fore
1058 941 m 2,0,1
 1049 695 1049 695 1031.5 516.5 c 128,-1,2
 1014 338 1014 338 985.5 223 c 128,-1,3
 957 108 957 108 920 52 c 128,-1,4
 883 -4 883 -4 837 -4 c 0,5,6
 775 -4 775 -4 684 76 c 128,-1,7
 593 156 593 156 490 294.5 c 128,-1,8
 387 433 387 433 284.5 623.5 c 128,-1,9
 182 814 182 814 101 1037 c 0,10,11
 85 1081 85 1081 131 1095 c 0,12,13
 180 1107 180 1107 193 1074 c 0,14,15
 308 796 308 796 409.5 609.5 c 128,-1,16
 511 423 511 423 594 310.5 c 128,-1,17
 677 198 677 198 738 151 c 128,-1,18
 799 104 799 104 821 101 c 1,19,20
 847 104 847 104 862 147.5 c 128,-1,21
 877 191 877 191 890.5 261 c 128,-1,22
 904 331 904 331 915.5 417.5 c 128,-1,23
 927 504 927 504 935 590 c 128,-1,24
 943 676 943 676 948 752 c 128,-1,25
 953 828 953 828 955 876 c 1,26,27
 925 854 925 854 886 842 c 128,-1,28
 847 830 847 830 807 830 c 0,29,30
 745 830 745 830 695.5 849 c 128,-1,31
 646 868 646 868 611.5 901 c 128,-1,32
 577 934 577 934 558 977.5 c 128,-1,33
 539 1021 539 1021 539 1068 c 0,34,35
 539 1203 539 1203 608 1276.5 c 128,-1,36
 677 1350 677 1350 799 1350 c 0,37,38
 876 1350 876 1350 926 1320.5 c 128,-1,39
 976 1291 976 1291 1005.5 1242.5 c 128,-1,40
 1035 1194 1035 1194 1046.5 1128.5 c 128,-1,41
 1058 1063 1058 1063 1058 991 c 2,42,-1
 1058 941 l 2,0,1
807 939 m 0,43,44
 879 939 879 939 907 980 c 0,45,46
 943 1026 943 1026 943 1072 c 0,47,48
 943 1113 943 1113 929.5 1146.5 c 128,-1,49
 916 1180 916 1180 895 1203 c 128,-1,50
 874 1226 874 1226 845.5 1238.5 c 128,-1,51
 817 1251 817 1251 789 1251 c 0,52,53
 752 1251 752 1251 723.5 1236.5 c 128,-1,54
 695 1222 695 1222 676.5 1198 c 128,-1,55
 658 1174 658 1174 649 1143.5 c 128,-1,56
 640 1113 640 1113 640 1081 c 0,57,58
 640 1019 640 1019 679 979 c 128,-1,59
 718 939 718 939 807 939 c 0,43,44
EndSplineSet
EndChar
StartChar: uni0E08
Encoding: 3592 3592 12
Width: 1300
VWidth: 3622
Flags: W
HStem: 428 101<532.585 658.546 658.546 691 691 713.026> 778 115<566.524 682.804> 1267.5 101.5<486.046 546 546 602.154 602.154 619.215 610.685 827.63>
VStem: 103 104<744.74 970.397> 387 110<568.613 677.775 677.775 680.173 680.173 722> 752 98<190.079 275.696 275.696 379.727 379.727 425.358 425.64 445.696 445.696 452.346> 755.5 99<119.05 165.5 188.5 233.268 562.644 688.453> 1056 101<627.571 868.051>
Fore
207 771 m 0,0,1
 207 738 207 738 191 724.5 c 128,-1,2
 175 711 175 711 149 718 c 0,3,4
 129 725 129 725 116 737.5 c 128,-1,5
 103 750 103 750 103 771 c 0,6,7
 103 906 103 906 130 1003 c 128,-1,8
 157 1100 157 1100 201.5 1167.5 c 128,-1,9
 246 1235 246 1235 303.5 1276.5 c 128,-1,10
 361 1318 361 1318 423 1340 c 128,-1,11
 485 1362 485 1362 546 1369 c 128,-1,12
 607 1376 607 1376 658 1376 c 0,13,14
 837 1376 837 1376 934 1305 c 0,15,16
 985 1270 985 1270 1023 1226 c 128,-1,17
 1061 1182 1061 1182 1086 1134 c 0,18,19
 1136 1035 1136 1035 1146 922 c 0,20,21
 1157 815 1157 815 1157 743 c 0,22,23
 1157 605 1157 605 1132 471.5 c 128,-1,24
 1107 338 1107 338 1068 232.5 c 128,-1,25
 1029 127 1029 127 979 63.5 c 128,-1,26
 929 0 929 0 879 4 c 0,27,28
 837 7 837 7 811 32.5 c 128,-1,29
 785 58 785 58 772 98 c 128,-1,30
 759 138 759 138 755.5 188.5 c 128,-1,31
 752 239 752 239 752 294 c 2,32,-1
 752 409 l 2,33,34
 752 421 752 421 753 425.5 c 128,-1,35
 754 430 754 430 754 431.5 c 0,36,-1
 754 438.5 l 0,37,38
 754 444 754 444 752 453 c 1,39,40
 722 439 722 439 691 433.5 c 128,-1,41
 660 428 660 428 626 428 c 0,42,43
 513 428 513 428 453 502 c 0,44,45
 396 573 396 573 387 630 c 0,46,47
 379 683 379 683 396.5 731.5 c 128,-1,48
 414 780 414 780 447.5 815.5 c 128,-1,49
 481 851 481 851 527 872 c 128,-1,50
 573 893 573 893 623 893 c 0,51,52
 665 893 665 893 708.5 880 c 128,-1,53
 752 867 752 867 785.5 830.5 c 128,-1,54
 819 794 819 794 839.5 728.5 c 128,-1,55
 860 663 860 663 856 557 c 0,56,57
 853 506 853 506 850 442.5 c 128,-1,58
 847 379 847 379 847 317 c 0,59,60
 847 274 847 274 849 234.5 c 128,-1,61
 851 195 851 195 854.5 165.5 c 128,-1,62
 858 136 858 136 865 118.5 c 128,-1,63
 872 101 872 101 883 103 c 1,64,65
 899 103 899 103 923 163 c 0,66,67
 939 196 939 196 955 238.5 c 128,-1,68
 971 281 971 281 985 336 c 0,69,70
 1021 446 1021 446 1037 550 c 0,71,72
 1047 608 1047 608 1051.5 656 c 128,-1,73
 1056 704 1056 704 1056 743 c 0,74,75
 1056 798 1056 798 1050.5 858 c 128,-1,76
 1045 918 1045 918 1030 977.5 c 128,-1,77
 1015 1037 1015 1037 987 1090 c 128,-1,78
 959 1143 959 1143 914.5 1183.5 c 128,-1,79
 870 1224 870 1224 807.5 1248 c 128,-1,80
 745 1272 745 1272 658 1272 c 0,81,82
 626 1272 626 1272 580 1267.5 c 128,-1,83
 534 1263 534 1263 484.5 1247 c 128,-1,84
 435 1231 435 1231 384.5 1199 c 128,-1,85
 334 1167 334 1167 295 1111.5 c 128,-1,86
 256 1056 256 1056 231.5 973 c 128,-1,87
 207 890 207 890 207 771 c 0,0,1
509 722 m 0,88,89
 497 686 497 686 497 654 c 0,90,91
 497 603 497 603 531.5 567.5 c 128,-1,92
 566 532 566 532 630 529 c 0,93,94
 683 525 683 525 714 561.5 c 128,-1,95
 745 598 745 598 745 647 c 0,96,97
 745 699 745 699 713 737 c 128,-1,98
 681 775 681 775 624 778 c 0,99,100
 591 782 591 782 557.5 769.5 c 128,-1,101
 524 757 524 757 509 722 c 0,88,89
EndSplineSet
EndChar
StartChar: uni0E09
Encoding: 3593 3593 13
Width: 1478
VWidth: 3622
Flags: W
HStem: -7 95<1084.39 1211.07> 343 97<196.317 326.597 326.597 329.873 329.873 344> 398 101<1103.19 1182.35> 688 99<242.422 386.664> 1226 109<419.775 765.919>
VStem: 73 109<531.985 595.562 601.25 626> 412 104.5<159.345 194.239 194.239 216 216 250.212 250.212 311.701 311.701 318.304 318.304 365.451 370 380 520.44 544.717> 952 105<180.05 258.142 258.142 292 738.374 856.5 885.5 1010.49> 971 110<488 511.608 511.608 516.62 516.62 554.758 554.758 594.727 594.727 785.145> 1268 84<138.658 176 186.5 204.391 204.391 213.35 213.35 298.716>
Fore
509 106 m 1,0,1
 582 150 582 150 649 199.5 c 128,-1,2
 716 249 716 249 810 324 c 2,3,-1
 964 448 l 1,4,5
 968 497 968 497 969.5 545.5 c 128,-1,6
 971 594 971 594 971 644 c 0,7,8
 971 754 971 754 955 856.5 c 128,-1,9
 939 959 939 959 897.5 1038.5 c 128,-1,10
 856 1118 856 1118 786 1168.5 c 128,-1,11
 716 1219 716 1219 608 1226 c 0,12,13
 518 1224 518 1224 444.5 1202 c 128,-1,14
 371 1180 371 1180 331 1134 c 0,15,16
 287 1084 287 1084 261 1018 c 128,-1,17
 235 952 235 952 225 890 c 0,18,19
 219 865 219 865 203 851 c 128,-1,20
 187 837 187 837 166 833 c 0,21,22
 110 828 110 828 110 883 c 0,23,24
 111 904 111 904 115 923.5 c 128,-1,25
 119 943 119 943 124 978 c 0,26,27
 140 1058 140 1058 187 1137 c 0,28,29
 214 1178 214 1178 251 1211.5 c 128,-1,30
 288 1245 288 1245 336 1275 c 0,31,32
 442 1335 442 1335 608 1335 c 0,33,34
 791 1335 791 1335 893 1243 c 0,35,36
 941 1201 941 1201 977.5 1143.5 c 128,-1,37
 1014 1086 1014 1086 1033 1021 c 0,38,39
 1054 959 1054 959 1066.5 885.5 c 128,-1,40
 1079 812 1079 812 1081 736 c 2,41,-1
 1081 665 l 2,42,43
 1081 637 1081 637 1081 615.5 c 128,-1,44
 1081 594 1081 594 1081 574.5 c 128,-1,45
 1081 555 1081 555 1080 535 c 128,-1,46
 1079 515 1079 515 1077 488 c 1,47,48
 1095 497 1095 497 1109 498 c 128,-1,49
 1123 499 1123 499 1141 499 c 0,50,51
 1183 499 1183 499 1223 479.5 c 128,-1,52
 1263 460 1263 460 1294 426.5 c 128,-1,53
 1325 393 1325 393 1342.5 347 c 128,-1,54
 1360 301 1360 301 1360 248 c 0,55,56
 1360 219 1360 219 1352 176 c 128,-1,57
 1344 133 1344 133 1320.5 92 c 128,-1,58
 1297 51 1297 51 1251.5 22 c 128,-1,59
 1206 -7 1206 -7 1132 -7 c 0,60,61
 1003 -7 1003 -7 971 94 c 0,62,63
 960 129 960 129 956 178.5 c 128,-1,64
 952 228 952 228 952 292 c 1,65,66
 886 251 886 251 846.5 221 c 128,-1,67
 807 191 807 191 777 166 c 0,68,69
 757 149 757 149 735 132 c 128,-1,70
 713 115 713 115 686.5 97.5 c 128,-1,71
 660 80 660 80 626.5 58.5 c 128,-1,72
 593 37 593 37 550 12 c 0,73,74
 474 -27 474 -27 439 35 c 0,75,76
 425 60 425 60 417 92 c 128,-1,77
 409 124 409 124 407 159 c 0,78,79
 405 170 405 170 405 186 c 128,-1,80
 405 202 405 202 405 216 c 0,81,82
 405 249 405 249 407 284.5 c 128,-1,83
 409 320 409 320 410 352 c 0,84,85
 410 364 410 364 410.5 365.5 c 2,86,-1
 412 370 l 1,87,88
 412 370.5 l 2,89,90
 412 371 412 371 412 380 c 1,91,92
 387 361 387 361 351 352 c 128,-1,93
 315 343 315 343 274 343 c 0,94,95
 166 343 166 343 119 414 c 0,96,97
 69 483 69 483 73 566 c 0,98,99
 74 644 74 644 126 716 c 0,100,101
 180 787 180 787 288 787 c 0,102,103
 402 787 402 787 466.5 727 c 128,-1,104
 531 667 531 667 524 547 c 0,105,106
 520 474 520 474 516.5 392 c 128,-1,107
 513 310 513 310 513 242 c 0,108,109
 513 186 513 186 512 147 c 128,-1,110
 511 108 511 108 509 106 c 1,0,1
1056 327 m 2,111,112
 1056 269 1056 269 1057 224.5 c 128,-1,113
 1058 180 1058 180 1065 149.5 c 128,-1,114
 1072 119 1072 119 1087 103.5 c 128,-1,115
 1102 88 1102 88 1132 88 c 0,116,117
 1176 88 1176 88 1202 102.5 c 128,-1,118
 1228 117 1228 117 1242 138 c 128,-1,119
 1256 159 1256 159 1260.5 186.5 c 128,-1,120
 1265 214 1265 214 1268 241 c 0,121,122
 1270 272 1270 272 1260.5 300.5 c 128,-1,123
 1251 329 1251 329 1232 350 c 128,-1,124
 1213 371 1213 371 1188.5 384.5 c 128,-1,125
 1164 398 1164 398 1137 398 c 0,126,127
 1114 398 1114 398 1094.5 390 c 128,-1,128
 1075 382 1075 382 1056 363 c 1,129,-1
 1056 327 l 2,111,112
182 624 m 1,130,131
 177 610 177 610 173.5 596 c 128,-1,132
 170 582 170 582 170 566 c 0,133,134
 170 547 170 547 174.5 531.5 c 128,-1,135
 179 516 179 516 187 499 c 1,136,-1
 187 501 l 1,137,138
 212 444 212 444 295 440 c 0,139,140
 322 439 322 439 344 448.5 c 128,-1,141
 366 458 366 458 381 475.5 c 128,-1,142
 396 493 396 493 405 515.5 c 128,-1,143
 414 538 414 538 414 562 c 0,144,145
 414 614 414 614 387.5 649.5 c 128,-1,146
 361 685 361 685 304 688 c 0,147,148
 271 692 271 692 233 677.5 c 128,-1,149
 195 663 195 663 182 626 c 1,150,-1
 182 624 l 1,130,131
EndSplineSet
EndChar
StartChar: uni0E0A
Encoding: 3594 3594 14
Width: 1137
VWidth: 3622
Flags: W
HStem: 0 103<584.799 716.355> 778 92<173.388 318.244> 1240 112<260.966 313 313 351.123 351.123 453.91>
VStem: 48 97<954.55 1047.21> 384 94<939.729 996> 395 109<200.313 246 287 291.179 291.179 326.7 308.939 500.819> 539 101<996.312 1134> 814 116<257.189 409.308 379.515 439.1 439.1 484 484 607.547>
Fore
156 1060 m 0,0,1
 145 1028 145 1028 145 1001 c 0,2,3
 145 962 145 962 161 934 c 0,4,5
 193 872 193 872 272 870 c 0,6,7
 320 868 320 868 352 902 c 128,-1,8
 384 936 384 936 384 987 c 256,9,10
 384 1038 384 1038 352 1073.5 c 128,-1,11
 320 1109 320 1109 267 1113 c 0,12,13
 233 1116 233 1116 201.5 1104.5 c 128,-1,14
 170 1093 170 1093 156 1060 c 0,0,1
465 761 m 0,15,16
 492 856 492 856 514 950 c 128,-1,17
 536 1044 536 1044 539 1134 c 1,18,19
 527 1192 527 1192 481 1219.5 c 128,-1,20
 435 1247 435 1247 384 1249 c 0,21,22
 347 1251 347 1251 313 1240 c 128,-1,23
 279 1229 279 1229 260 1215 c 1,24,25
 375 1208 375 1208 423 1153 c 128,-1,26
 471 1098 471 1098 478 996 c 1,27,-1
 478 998 l 1,28,29
 481 966 481 966 467 928 c 128,-1,30
 453 890 453 890 424.5 856 c 128,-1,31
 396 822 396 822 355.5 800 c 128,-1,32
 315 778 315 778 265 778 c 0,33,34
 209 780 209 780 166.5 801 c 128,-1,35
 124 822 124 822 95.5 856.5 c 128,-1,36
 67 891 67 891 54.5 937 c 128,-1,37
 42 983 42 983 48 1035 c 0,38,39
 51 1081 51 1081 68 1135 c 128,-1,40
 85 1189 85 1189 123 1235.5 c 128,-1,41
 161 1282 161 1282 224 1314 c 128,-1,42
 287 1346 287 1346 345 1352 c 128,-1,43
 403 1358 403 1358 476.5 1343 c 128,-1,44
 550 1328 550 1328 595 1255.5 c 128,-1,45
 640 1183 640 1183 640 1077 c 0,46,47
 640 1037 640 1037 635.5 995 c 128,-1,48
 631 953 631 953 623 911 c 0,49,50
 608 847 608 847 592.5 781 c 128,-1,51
 577 715 577 715 559 653 c 0,52,53
 534 562 534 562 516.5 488 c 128,-1,54
 499 414 499 414 499 366 c 0,55,56
 499 333 499 333 504 287 c 128,-1,57
 509 241 509 241 523.5 199 c 128,-1,58
 538 157 538 157 562.5 128 c 128,-1,59
 587 99 587 99 626 103 c 0,60,61
 681 104 681 104 717.5 125.5 c 128,-1,62
 754 147 754 147 775 182.5 c 128,-1,63
 796 218 796 218 805 264.5 c 128,-1,64
 814 311 814 311 814 364 c 0,65,66
 814 421 814 421 806 484 c 128,-1,67
 798 547 798 547 784.5 609.5 c 128,-1,68
 771 672 771 672 756 733 c 128,-1,69
 741 794 741 794 727 847 c 0,70,71
 713 904 713 904 700.5 950 c 128,-1,72
 688 996 688 996 685 1033 c 1,73,74
 725 1128 725 1128 779 1201.5 c 128,-1,75
 833 1275 833 1275 884 1321 c 0,76,77
 943 1373 943 1373 1022 1419 c 1,78,79
 1049 1429 1049 1429 1067.5 1422 c 128,-1,80
 1086 1415 1086 1415 1095 1399 c 128,-1,81
 1104 1383 1104 1383 1101 1363.5 c 128,-1,82
 1098 1344 1098 1344 1083 1330 c 0,83,84
 1049 1307 1049 1307 1018 1282.5 c 128,-1,85
 987 1258 987 1258 953 1228 c 0,86,87
 904 1183 904 1183 859 1127.5 c 128,-1,88
 814 1072 814 1072 796 1021 c 1,89,90
 803 991 803 991 813.5 947.5 c 128,-1,91
 824 904 824 904 837 858 c 0,92,93
 861 764 861 764 887 649 c 128,-1,94
 913 534 913 534 925 426 c 0,95,96
 930 380 930 380 930 333 c 0,97,98
 930 262 930 262 915 200 c 128,-1,99
 900 138 900 138 865 93 c 128,-1,100
 830 48 830 48 772.5 23 c 128,-1,101
 715 -2 715 -2 628 0 c 0,102,103
 548 2 548 2 501.5 38 c 128,-1,104
 455 74 455 74 429 128 c 128,-1,105
 403 182 403 182 395 246 c 128,-1,106
 387 310 387 310 387 366 c 0,107,108
 391 472 391 472 414 568.5 c 128,-1,109
 437 665 437 665 465 761 c 0,15,16
EndSplineSet
EndChar
StartChar: uni0E0B
Encoding: 3595 3595 15
Width: 1307
VWidth: 3622
Flags: W
HStem: 0 103<709.362 831.944> 775 90<198.372 336.647> 1048 20G<470.5 471> 1245 94<283.625 367.819>
VStem: 46 99<942.688 1056.24> 380 99<940.637 1044.69> 540 103<201.798 246 246 291.179 291.179 325.973 325.973 501.474> 686 106<1026.21 1213.6> 958.5 111.5<251.556 381.575 379.515 383.635 383.635 455.791 455.791 490 490 644.439>
Fore
145 987 m 0,0,1
 143 964 143 964 152 942 c 128,-1,2
 161 920 161 920 177 902 c 128,-1,3
 193 884 193 884 217 874.5 c 128,-1,4
 241 865 241 865 271 865 c 0,5,6
 325 867 325 867 352.5 901.5 c 128,-1,7
 380 936 380 936 380 987 c 256,8,9
 380 1038 380 1038 354.5 1070 c 128,-1,10
 329 1102 329 1102 272 1106 c 0,11,12
 237 1104 237 1104 210 1091 c 0,13,14
 186 1081 186 1081 167.5 1057 c 128,-1,15
 149 1033 149 1033 145 987 c 0,0,1
260 1196 m 0,16,17
 325 1196 325 1196 372 1170 c 128,-1,18
 419 1144 419 1144 446 1100 c 1,19,20
 440 1120 440 1120 432.5 1144.5 c 128,-1,21
 425 1169 425 1169 411.5 1191 c 128,-1,22
 398 1213 398 1213 380.5 1229 c 128,-1,23
 363 1245 363 1245 340 1245 c 0,24,25
 288 1247 288 1247 268 1228.5 c 128,-1,26
 248 1210 248 1210 237 1196 c 1,27,28
 246 1197 246 1197 248.5 1196.5 c 128,-1,29
 251 1196 251 1196 260 1196 c 0,16,17
612 757 m 0,30,31
 637 853 637 853 661 945.5 c 128,-1,32
 685 1038 685 1038 686 1134 c 1,33,34
 677 1169 677 1169 664 1201 c 128,-1,35
 651 1233 651 1233 624 1229 c 0,36,37
 596 1226 596 1226 584 1187 c 2,38,-1
 543 1084 l 2,39,40
 531 1049 531 1049 505 1048 c 128,-1,41
 479 1047 479 1047 463 1068 c 1,42,43
 478 1037 478 1037 479 998 c 0,44,45
 481 964 481 964 467 925 c 128,-1,46
 453 886 453 886 425.5 852.5 c 128,-1,47
 398 819 398 819 358 797 c 128,-1,48
 318 775 318 775 271 775 c 0,49,50
 159 778 159 778 102.5 847 c 128,-1,51
 46 916 46 916 46 1024 c 0,52,53
 51 1083 51 1083 77 1139.5 c 128,-1,54
 103 1196 103 1196 142.5 1240 c 128,-1,55
 182 1284 182 1284 235 1311.5 c 128,-1,56
 288 1339 288 1339 348 1339 c 0,57,58
 394 1339 394 1339 431.5 1312.5 c 128,-1,59
 469 1286 469 1286 499 1224 c 1,60,61
 520 1284 520 1284 552.5 1307 c 128,-1,62
 585 1330 585 1330 623 1330 c 0,63,64
 720 1330 720 1330 756 1271.5 c 128,-1,65
 792 1213 792 1213 792 1120 c 0,66,67
 792 1024 792 1024 766.5 911 c 128,-1,68
 741 798 741 798 711 681 c 0,69,70
 686 585 686 585 665 504 c 128,-1,71
 644 423 644 423 640 364 c 0,72,73
 637 333 637 333 643 287.5 c 128,-1,74
 649 242 649 242 665 200.5 c 128,-1,75
 681 159 681 159 708.5 131 c 128,-1,76
 736 103 736 103 775 103 c 0,77,78
 828 103 828 103 864 122.5 c 128,-1,79
 900 142 900 142 921.5 174.5 c 128,-1,80
 943 207 943 207 952.5 252 c 128,-1,81
 962 297 962 297 962 350 c 0,82,83
 962 380 962 380 958.5 417.5 c 128,-1,84
 955 455 955 455 950 490 c 0,85,86
 936 580 936 580 913 676.5 c 128,-1,87
 890 773 890 773 868 853 c 0,88,89
 854 907 854 907 843.5 949.5 c 128,-1,90
 833 992 833 992 830 1033 c 1,91,92
 870 1128 870 1128 925 1201.5 c 128,-1,93
 980 1275 980 1275 1031 1321 c 0,94,95
 1060 1346 1060 1346 1095 1371 c 128,-1,96
 1130 1396 1130 1396 1169 1419 c 1,97,98
 1196 1429 1196 1429 1213.5 1422 c 128,-1,99
 1231 1415 1231 1415 1240 1399 c 128,-1,100
 1249 1383 1249 1383 1246 1363.5 c 128,-1,101
 1243 1344 1243 1344 1228 1330 c 0,102,103
 1196 1307 1196 1307 1164 1282.5 c 128,-1,104
 1132 1258 1132 1258 1098 1228 c 0,105,106
 1051 1183 1051 1183 1005.5 1127.5 c 128,-1,107
 960 1072 960 1072 941 1021 c 1,108,109
 948 991 948 991 959.5 947.5 c 128,-1,110
 971 904 971 904 983 858 c 0,111,112
 1008 762 1008 762 1034 648 c 128,-1,113
 1060 534 1060 534 1070 426 c 0,114,115
 1075 380 1075 380 1075 333 c 0,116,117
 1075 260 1075 260 1060 199 c 128,-1,118
 1045 138 1045 138 1010.5 93 c 128,-1,119
 976 48 976 48 918 23 c 128,-1,120
 860 -2 860 -2 775 0 c 0,121,122
 695 2 695 2 647.5 38 c 128,-1,123
 600 74 600 74 574 128 c 128,-1,124
 548 182 548 182 540 246 c 128,-1,125
 532 310 532 310 532 366 c 0,126,127
 536 467 536 467 560 564.5 c 128,-1,128
 584 662 584 662 612 757 c 0,30,31
EndSplineSet
EndChar
StartChar: uni0E0C
Encoding: 3596 3596 16
Width: 1779
VWidth: 3622
Flags: W
HStem: 4 95<399.158 498.102 810.602 942.591> 317 100<833.742 929.606> 340 90<387.299 534.418> 1201 103<467.313 588.625>
VStem: 232 101<147.952 290.975> 263.5 109<580.634 708.127 708.127 708.942 708.942 793.93> 948 103<412 430.178 430.178 485.119 485.119 683.96> 975.5 85<143.957 187.969 187.969 204.938 204.938 243.438> 1511 106<115 252.392 252.392 531.242 531.242 644 587.621 1030.3 812.546 1085.91 1085.91 1248.06>
Fore
462 430 m 0,0,1
 518 430 518 430 556 410.5 c 128,-1,2
 594 391 594 391 619 362.5 c 128,-1,3
 644 334 644 334 655.5 301.5 c 128,-1,4
 667 269 667 269 670 242 c 1,5,6
 677 274 677 274 695 305 c 128,-1,7
 713 336 713 336 740.5 361.5 c 128,-1,8
 768 387 768 387 805 402 c 128,-1,9
 842 417 842 417 890 417 c 0,10,11
 918 417 918 417 948 412 c 1,12,-1
 948 467 l 2,13,14
 948 669 948 669 928.5 806 c 128,-1,15
 909 943 909 943 865.5 1028 c 128,-1,16
 822 1113 822 1113 752.5 1152.5 c 128,-1,17
 683 1192 683 1192 582 1201 c 0,18,19
 478 1203 478 1203 399 1179 c 128,-1,20
 320 1155 320 1155 264.5 1118 c 128,-1,21
 209 1081 209 1081 177 1036.5 c 128,-1,22
 145 992 145 992 136 955 c 1,23,-1
 341 876 l 2,24,25
 361 865 361 865 369 833 c 128,-1,26
 377 801 377 801 377 755 c 0,27,28
 377 715 377 715 372.5 662.5 c 128,-1,29
 368 610 368 610 363 554 c 2,30,-1
 350 412 l 1,31,32
 389 433 389 433 462 430 c 0,0,1
1511 115 m 1,33,34
 1511 249 1511 249 1511.5 390 c 128,-1,35
 1512 531 1512 531 1512 672.5 c 128,-1,36
 1512 814 1512 814 1510.5 952.5 c 128,-1,37
 1509 1091 1509 1091 1507 1219 c 0,38,39
 1507 1249 1507 1249 1525.5 1264 c 128,-1,40
 1544 1279 1544 1279 1567 1279 c 128,-1,41
 1590 1279 1590 1279 1608.5 1263 c 128,-1,42
 1627 1247 1627 1247 1627 1215 c 2,43,-1
 1617 73 l 2,44,45
 1615 50 1615 50 1604.5 34.5 c 128,-1,46
 1594 19 1594 19 1579.5 9.5 c 128,-1,47
 1565 0 1565 0 1549.5 -2.5 c 128,-1,48
 1534 -5 1534 -5 1521 -4 c 1,49,-1
 1065 251 l 1,50,51
 1070 203 1070 203 1060.5 159 c 128,-1,52
 1051 115 1051 115 1027 80.5 c 128,-1,53
 1003 46 1003 46 965 24 c 128,-1,54
 927 2 927 2 877 0 c 0,55,56
 782 0 782 0 728 46 c 128,-1,57
 674 92 674 92 665 173 c 2,58,-1
 665 175 l 1,59,60
 656 140 656 140 636.5 108 c 128,-1,61
 617 76 617 76 589 52 c 128,-1,62
 561 28 561 28 525.5 14 c 128,-1,63
 490 0 490 0 449 4 c 2,64,65
 423 0 423 0 385.5 12.5 c 128,-1,66
 348 25 348 25 313.5 51.5 c 128,-1,67
 279 78 279 78 255.5 119.5 c 128,-1,68
 232 161 232 161 232 218 c 256,69,70
 232 274 232 274 238 356.5 c 128,-1,71
 244 439 244 439 251 515 c 0,72,73
 258 589 258 589 263.5 654.5 c 128,-1,74
 269 720 269 720 269 761 c 0,75,76
 269 792 269 792 271 794 c 1,77,78
 246 805 246 805 217.5 816.5 c 128,-1,79
 189 828 189 828 170 835 c 0,80,81
 140 845 140 845 113.5 854 c 128,-1,82
 87 863 87 863 67.5 873.5 c 128,-1,83
 48 884 48 884 35.5 896.5 c 128,-1,84
 23 909 23 909 23 927 c 0,85,86
 23 985 23 985 57.5 1050.5 c 128,-1,87
 92 1116 92 1116 158.5 1172.5 c 128,-1,88
 225 1229 225 1229 320.5 1266.5 c 128,-1,89
 416 1304 416 1304 536 1304 c 0,90,91
 550 1304 550 1304 563.5 1304 c 128,-1,92
 577 1304 577 1304 589 1302 c 0,93,94
 651 1297 651 1297 706.5 1285.5 c 128,-1,95
 762 1274 762 1274 809 1252.5 c 128,-1,96
 856 1231 856 1231 894 1196.5 c 128,-1,97
 932 1162 932 1162 959 1111 c 1,98,-1
 957 1111 l 1,99,100
 1003 1026 1003 1026 1028.5 883.5 c 128,-1,101
 1054 741 1054 741 1054 522 c 0,102,103
 1054 481 1054 481 1053 448.5 c 128,-1,104
 1052 416 1052 416 1051 371 c 1,105,-1
 1511 115 l 1,33,34
571 226 m 0,106,107
 570 276 570 276 535.5 308 c 128,-1,108
 501 340 501 340 449 340 c 0,109,110
 393 340 393 340 363 302.5 c 128,-1,111
 333 265 333 265 333 218 c 256,112,113
 333 170 333 170 363 134.5 c 128,-1,114
 393 99 393 99 449 99 c 0,115,116
 501 99 501 99 534.5 133.5 c 128,-1,117
 568 168 568 168 571 226 c 0,106,107
980 210 m 0,118,119
 980 226 980 226 976.5 244 c 128,-1,120
 973 262 973 262 961.5 278 c 128,-1,121
 950 294 950 294 930.5 305.5 c 128,-1,122
 911 317 911 317 881 317 c 0,123,124
 854 317 854 317 831 307 c 128,-1,125
 808 297 808 297 791.5 279.5 c 128,-1,126
 775 262 775 262 767 236 c 128,-1,127
 759 210 759 210 764 182 c 0,128,129
 769 150 769 150 781.5 132.5 c 128,-1,130
 794 115 794 115 809 105.5 c 128,-1,131
 824 96 824 96 842 94 c 128,-1,132
 860 92 860 92 876 92 c 0,133,134
 909 92 909 92 929.5 102.5 c 128,-1,135
 950 113 950 113 960.5 129 c 128,-1,136
 971 145 971 145 975.5 166 c 128,-1,137
 980 187 980 187 980 210 c 0,118,119
EndSplineSet
EndChar
StartChar: uni0E0D
Encoding: 3597 3597 17
Width: 1775
VWidth: 3622
Flags: W
HStem: -610 105.5<1108.49 1270.37> 4.5 102.5<390.143 533.449 1052.86 1270.7 1270.7 1395.3 1395.3 1420.34 1420.34 1518> 7 108<1038 1178.25> 340 90<364.428 534.418> 1201 101<490.84 753.535>
VStem: 232 102<147.437 276.782 251.208 302.356> 571 103<130.174 287.138> 936 102<115 314.504> 952 102<371.036 936.596> 1095 104<-315.251 -271 -271 -227.049> 1518.5 98.5<111.821 137.992 137.992 220.904 220.904 253.208 253.208 350.754 350.754 404.212 404.212 510.665 510.665 568.665 568.665 682.212 682.212 853.577 853.577 1016.88 1016.88 1224.21> 1663 116<-306.495 -88.8828>
Fore
952 617 m 2,0,1
 952 1201 952 1201 584 1201 c 0,2,3
 493 1201 493 1201 414.5 1177 c 128,-1,4
 336 1153 336 1153 277.5 1117 c 128,-1,5
 219 1081 219 1081 183 1036.5 c 128,-1,6
 147 992 147 992 140 953 c 1,7,-1
 343 876 l 1,8,9
 356 867 356 867 360 829 c 128,-1,10
 364 791 364 791 364 730 c 128,-1,11
 364 669 364 669 360.5 588.5 c 128,-1,12
 357 508 357 508 352 412 c 1,13,14
 386 433 386 433 463 430 c 0,15,16
 527 430 527 430 568.5 405 c 128,-1,17
 610 380 610 380 633 345.5 c 128,-1,18
 656 311 656 311 665 275 c 128,-1,19
 674 239 674 239 674 216 c 0,20,21
 667 138 667 138 612 73 c 0,22,23
 550 4 550 4 449 4 c 0,24,25
 423 0 423 0 385.5 12.5 c 128,-1,26
 348 25 348 25 313.5 51.5 c 128,-1,27
 279 78 279 78 255.5 119.5 c 128,-1,28
 232 161 232 161 232 218 c 0,29,30
 232 276 232 276 234.5 352 c 128,-1,31
 237 428 237 428 241.5 508.5 c 128,-1,32
 246 589 246 589 251 665 c 128,-1,33
 256 741 256 741 264 798 c 1,34,35
 239 814 239 814 198 826 c 128,-1,36
 157 838 157 838 118.5 852.5 c 128,-1,37
 80 867 80 867 51.5 884.5 c 128,-1,38
 23 902 23 902 23 927 c 0,39,40
 23 987 23 987 71.5 1056 c 128,-1,41
 120 1125 120 1125 199.5 1181.5 c 128,-1,42
 279 1238 279 1238 381 1273.5 c 128,-1,43
 483 1309 483 1309 589 1302 c 0,44,45
 704 1295 704 1295 790 1260.5 c 128,-1,46
 876 1226 876 1226 933.5 1145.5 c 128,-1,47
 991 1065 991 1065 1021 928 c 128,-1,48
 1051 791 1051 791 1054 578 c 2,49,-1
 1038 115 l 1,50,51
 1157 106 1157 106 1273 107 c 128,-1,52
 1389 108 1389 108 1518 111 c 1,53,54
 1518 122 1518 122 1518.5 166 c 128,-1,55
 1519 210 1519 210 1519 276.5 c 128,-1,56
 1519 343 1519 343 1520 425.5 c 128,-1,57
 1521 508 1521 508 1521 596 c 0,58,59
 1521 681 1521 681 1520 768.5 c 128,-1,60
 1519 856 1519 856 1518.5 938.5 c 128,-1,61
 1518 1021 1518 1021 1516 1095 c 128,-1,62
 1514 1169 1514 1169 1512 1226 c 1,63,-1
 1512 1222 l 1,64,65
 1507 1259 1507 1259 1524 1279.5 c 128,-1,66
 1541 1300 1541 1300 1562 1300 c 0,67,68
 1581 1300 1581 1300 1599 1281.5 c 128,-1,69
 1617 1263 1617 1263 1617 1220 c 2,70,-1
 1620 653 l 2,71,72
 1622 566 1622 566 1623 484.5 c 128,-1,73
 1624 403 1624 403 1624 324 c 256,74,75
 1624 244 1624 244 1622 183 c 128,-1,76
 1620 122 1620 122 1617 78 c 0,77,78
 1611 41 1611 41 1595.5 29.5 c 128,-1,79
 1580 18 1580 18 1560 11 c 0,80,81
 1541 5 1541 5 1486 4.5 c 128,-1,82
 1431 4 1431 4 1354 4.5 c 128,-1,83
 1277 5 1277 5 1187 6 c 128,-1,84
 1097 7 1097 7 1008 7 c 0,85,86
 980 7 980 7 958 17.5 c 128,-1,87
 936 28 936 28 936 69 c 2,88,-1
 952 617 l 2,0,1
571 226 m 0,89,90
 570 276 570 276 535.5 308 c 128,-1,91
 501 340 501 340 449 340 c 0,92,93
 393 340 393 340 363.5 303.5 c 128,-1,94
 334 267 334 267 334 218 c 256,95,96
 334 168 334 168 363.5 133.5 c 128,-1,97
 393 99 393 99 449 99 c 0,98,99
 501 99 501 99 534.5 133.5 c 128,-1,100
 568 168 568 168 571 226 c 0,89,90
1663 -131 m 1,101,102
 1663 -129 1663 -129 1663.5 -129 c 128,-1,103
 1664 -129 1664 -129 1664 -127 c 1,104,-1
 1663 -131 l 1,101,102
1199 -255 m 0,105,106
 1208 -322 1208 -322 1174.5 -388.5 c 128,-1,107
 1141 -455 1141 -455 1061 -490 c 1,108,109
 1113 -501 1113 -501 1166.5 -504.5 c 128,-1,110
 1220 -508 1220 -508 1272 -499 c 0,111,112
 1344 -488 1344 -488 1409.5 -474 c 128,-1,113
 1475 -460 1475 -460 1526.5 -423 c 128,-1,114
 1578 -386 1578 -386 1613.5 -317.5 c 128,-1,115
 1649 -249 1649 -249 1663 -131 c 0,116,117
 1664 -87 1664 -87 1683 -68.5 c 128,-1,118
 1702 -50 1702 -50 1723 -51.5 c 128,-1,119
 1744 -53 1744 -53 1761.5 -72.5 c 128,-1,120
 1779 -92 1779 -92 1779 -124 c 0,121,122
 1771 -251 1771 -251 1724 -342 c 128,-1,123
 1677 -433 1677 -433 1601 -493.5 c 128,-1,124
 1525 -554 1525 -554 1425 -582 c 128,-1,125
 1325 -610 1325 -610 1210 -610 c 0,126,127
 1132 -610 1132 -610 1056 -594 c 128,-1,128
 980 -578 980 -578 918 -543 c 128,-1,129
 856 -508 856 -508 814.5 -449.5 c 128,-1,130
 773 -391 773 -391 764 -308 c 1,131,-1
 764 -310 l 1,132,133
 755 -262 755 -262 766.5 -221 c 128,-1,134
 778 -180 778 -180 803 -150 c 128,-1,135
 828 -120 828 -120 864 -100.5 c 128,-1,136
 900 -81 900 -81 941 -76 c 0,137,138
 987 -71 987 -71 1030.5 -78 c 128,-1,139
 1074 -85 1074 -85 1109 -107 c 128,-1,140
 1144 -129 1144 -129 1168 -166 c 128,-1,141
 1192 -203 1192 -203 1199 -255 c 0,105,106
945 -182 m 1,142,143
 909 -186 909 -186 884.5 -217.5 c 128,-1,144
 860 -249 860 -249 863 -297 c 256,145,146
 867 -345 867 -345 899.5 -380.5 c 128,-1,147
 932 -416 932 -416 978 -410 c 0,148,149
 1008 -409 1008 -409 1031 -394.5 c 128,-1,150
 1054 -380 1054 -380 1069 -360 c 128,-1,151
 1084 -340 1084 -340 1090.5 -316 c 128,-1,152
 1097 -292 1097 -292 1095 -271 c 0,153,154
 1091 -244 1091 -244 1077 -226.5 c 128,-1,155
 1063 -209 1063 -209 1042 -198 c 128,-1,156
 1021 -187 1021 -187 995 -183.5 c 128,-1,157
 969 -180 969 -180 943 -182 c 1,158,-1
 945 -182 l 1,142,143
EndSplineSet
Substitution2: "Single Substitution lookup 22 subtable" uni0E0D.alt1
Substitution2: "Single Substitution lookup 22 subtable" uni0E0D.alt1
EndChar
StartChar: uni0E0E
Encoding: 3598 3598 18
Width: 1376
VWidth: 3622
Flags: W
HStem: -651 97<264.759 445.698> 336 90<192.581 299.391> 1233 104<460.843 884.587>
VStem: 90 96<-524.301 -455 -455 -382.875> 356 109<174.891 261.33> 373 98.5<386.8 443.785 443.785 556.854 556.854 569.788 569.788 694.911 694.911 793.946 793.946 813.451> 715 95<-433.995 -364.914> 734 96<-242 -180.711> 1121 108<-458 254.788 254.788 639.25>
Fore
1121 210 m 2,0,1
 1123 256 1123 256 1123 299.5 c 128,-1,2
 1123 343 1123 343 1123 384 c 0,3,4
 1123 598 1123 598 1107 752.5 c 128,-1,5
 1091 907 1091 907 1046 1010.5 c 128,-1,6
 1001 1114 1001 1114 919.5 1168 c 128,-1,7
 838 1222 838 1222 708 1233 c 0,8,9
 575 1233 575 1233 481 1203 c 128,-1,10
 387 1173 387 1173 324.5 1133 c 128,-1,11
 262 1093 262 1093 230 1051.5 c 128,-1,12
 198 1010 198 1010 191 987 c 1,13,-1
 437 914 l 1,14,15
 451 914 451 914 459 847 c 128,-1,16
 467 780 467 780 469.5 674 c 128,-1,17
 472 568 472 568 471.5 439 c 128,-1,18
 471 310 471 310 465 186 c 0,19,20
 462 127 462 127 433.5 90 c 128,-1,21
 405 53 405 53 366 32 c 128,-1,22
 327 11 327 11 287.5 3.5 c 128,-1,23
 248 -4 248 -4 223 0 c 1,24,-1
 225 0 l 1,25,26
 122 9 122 9 70 71.5 c 128,-1,27
 18 134 18 134 25 226 c 0,28,29
 25 251 25 251 35.5 287.5 c 128,-1,30
 46 324 46 324 72.5 355.5 c 128,-1,31
 99 387 99 387 142.5 408.5 c 128,-1,32
 186 430 186 430 249 426 c 0,33,34
 294 426 294 426 324 414 c 128,-1,35
 354 402 354 402 373 384 c 1,36,37
 373 437 373 437 372 504 c 128,-1,38
 371 571 371 571 370.5 635.5 c 128,-1,39
 370 700 370 700 367 754 c 128,-1,40
 364 808 364 808 363 833 c 1,41,-1
 364 833 l 1,42,43
 340 847 340 847 297.5 858.5 c 128,-1,44
 255 870 255 870 214 879 c 0,45,46
 159 893 159 893 115 911 c 128,-1,47
 71 929 71 929 71 960 c 0,48,49
 73 1003 73 1003 108 1067.5 c 128,-1,50
 143 1132 143 1132 215.5 1192 c 128,-1,51
 288 1252 288 1252 398.5 1294.5 c 128,-1,52
 509 1337 509 1337 662 1337 c 0,53,54
 837 1337 837 1337 948.5 1282.5 c 128,-1,55
 1060 1228 1060 1228 1122.5 1114.5 c 128,-1,56
 1185 1001 1185 1001 1208 827 c 128,-1,57
 1231 653 1231 653 1229 414 c 2,58,-1
 1222 -486 l 2,59,60
 1222 -522 1222 -522 1213.5 -547.5 c 128,-1,61
 1205 -573 1205 -573 1191.5 -589 c 128,-1,62
 1178 -605 1178 -605 1163 -608.5 c 128,-1,63
 1148 -612 1148 -612 1137 -603 c 0,64,65
 1095 -570 1095 -570 1058 -539.5 c 128,-1,66
 1021 -509 1021 -509 983.5 -482 c 128,-1,67
 946 -455 946 -455 904.5 -429 c 128,-1,68
 863 -403 863 -403 810 -379 c 1,69,70
 794 -442 794 -442 750 -493.5 c 128,-1,71
 706 -545 706 -545 645 -579.5 c 128,-1,72
 584 -614 584 -614 513 -632.5 c 128,-1,73
 442 -651 442 -651 373 -651 c 0,74,75
 317 -651 317 -651 267.5 -639.5 c 128,-1,76
 218 -628 218 -628 180 -603 c 128,-1,77
 142 -578 142 -578 118 -542 c 128,-1,78
 94 -506 94 -506 90 -455 c 0,79,80
 87 -389 87 -389 106.5 -339.5 c 128,-1,81
 126 -290 126 -290 163 -256.5 c 128,-1,82
 200 -223 200 -223 251 -204.5 c 128,-1,83
 302 -186 302 -186 361 -180 c 0,84,85
 449 -173 449 -173 550 -191 c 128,-1,86
 651 -209 651 -209 729 -242 c 1,87,-1
 734 -193 l 2,88,89
 738 -173 738 -173 754.5 -158 c 128,-1,90
 771 -143 771 -143 789 -145 c 128,-1,91
 807 -147 807 -147 820 -173.5 c 128,-1,92
 833 -200 833 -200 830 -264 c 1,93,94
 883 -290 883 -290 936 -322 c 0,95,96
 982 -348 982 -348 1030.5 -382.5 c 128,-1,97
 1079 -417 1079 -417 1120 -458 c 1,98,-1
 1121 210 l 2,0,1
119 233 m 0,99,100
 115 177 115 177 147 140 c 128,-1,101
 179 103 179 103 228 96 c 0,102,103
 255 90 255 90 278 98 c 128,-1,104
 301 106 301 106 317 122 c 128,-1,105
 333 138 333 138 342.5 159 c 128,-1,106
 352 180 352 180 356 202 c 0,107,108
 363 248 363 248 333.5 288.5 c 128,-1,109
 304 329 304 329 253 336 c 0,110,111
 202 341 202 341 163 313 c 128,-1,112
 124 285 124 285 119 233 c 0,99,100
356 -554 m 0,113,114
 410 -554 410 -554 471 -539 c 128,-1,115
 532 -524 532 -524 583.5 -496.5 c 128,-1,116
 635 -469 635 -469 671.5 -430 c 128,-1,117
 708 -391 708 -391 715 -343 c 1,118,119
 683 -327 683 -327 642 -315.5 c 128,-1,120
 601 -304 601 -304 557 -296 c 128,-1,121
 513 -288 513 -288 469.5 -283.5 c 128,-1,122
 426 -279 426 -279 391 -281 c 0,123,124
 348 -285 348 -285 310 -293 c 128,-1,125
 272 -301 272 -301 243 -320.5 c 128,-1,126
 214 -340 214 -340 198 -371.5 c 128,-1,127
 182 -403 182 -403 186 -453 c 0,128,129
 189 -504 189 -504 238.5 -529 c 128,-1,130
 288 -554 288 -554 356 -554 c 0,113,114
EndSplineSet
Substitution2: "Single Substitution lookup 22 subtable" uni0E0E.alt1
Substitution2: "Single Substitution lookup 22 subtable" uni0E0E.alt1
EndChar
StartChar: uni0E0F
Encoding: 3599 3599 19
Width: 1406
VWidth: 3622
Flags: W
HStem: -267 97<201.036 325.423> 336 90<231.886 343.351>
VStem: 400 113<179.578 261.33> 416 97<380 552.5 552.5 606.5 606.5 833> 476 9<-237.123 -190.877> 1141.5 116.5<-371.352 -320.881 -320.881 -213.273 -213.273 -97.6692 -97.6692 276.342 276.342 635.444>
Fore
1029 -373 m 1,0,1
 1058 -414 1058 -414 1084.5 -449.5 c 128,-1,2
 1111 -485 1111 -485 1130 -504 c 1,3,4
 1134 -488 1134 -488 1136.5 -453.5 c 128,-1,5
 1139 -419 1139 -419 1141.5 -372 c 128,-1,6
 1144 -325 1144 -325 1146 -269.5 c 128,-1,7
 1148 -214 1148 -214 1148 -157 c 0,8,9
 1148 -103 1148 -103 1149 -38 c 128,-1,10
 1150 27 1150 27 1150.5 60.5 c 0,11,-1
 1152 194.5 l 0,12,13
 1153 295 1153 295 1153 357 c 0,14,15
 1153 585 1153 585 1138 747 c 128,-1,16
 1123 909 1123 909 1080 1014.5 c 128,-1,17
 1037 1120 1037 1120 958 1172 c 128,-1,18
 879 1224 879 1224 752 1233 c 0,19,20
 640 1242 640 1242 546.5 1217 c 128,-1,21
 453 1192 453 1192 384 1151.5 c 128,-1,22
 315 1111 315 1111 275 1065 c 128,-1,23
 235 1019 235 1019 233 987 c 1,24,-1
 502 907 l 1,25,-1
 513 198 l 2,26,27
 513 150 513 150 491 111.5 c 128,-1,28
 469 73 469 73 432.5 47 c 128,-1,29
 396 21 396 21 353 8.5 c 128,-1,30
 310 -4 310 -4 267 0 c 1,31,-1
 269 0 l 1,32,33
 216 0 216 0 177 18.5 c 128,-1,34
 138 37 138 37 113 68 c 128,-1,35
 88 99 88 99 76.5 139.5 c 128,-1,36
 65 180 65 180 67 226 c 0,37,38
 67 251 67 251 77.5 286.5 c 128,-1,39
 88 322 88 322 114 354 c 128,-1,40
 140 386 140 386 183 407 c 128,-1,41
 226 428 226 428 292 426 c 0,42,43
 324 426 324 426 347 419 c 128,-1,44
 370 412 370 412 386 403 c 0,45,46
 403 393 403 393 416 380 c 1,47,-1
 407 833 l 1,48,-1
 409 833 l 1,49,50
 384 845 384 845 342.5 857.5 c 128,-1,51
 301 870 301 870 260 879 c 0,52,53
 232 886 232 886 205.5 893 c 128,-1,54
 179 900 179 900 158.5 909 c 128,-1,55
 138 918 138 918 125.5 930.5 c 128,-1,56
 113 943 113 943 113 960 c 0,57,58
 108 1008 108 1008 152 1076 c 128,-1,59
 196 1144 196 1144 281 1205 c 128,-1,60
 366 1266 366 1266 488 1305 c 128,-1,61
 610 1344 610 1344 759 1335 c 0,62,63
 911 1327 911 1327 1008.5 1266.5 c 128,-1,64
 1106 1206 1106 1206 1161.5 1089.5 c 128,-1,65
 1217 973 1217 973 1237.5 796 c 128,-1,66
 1258 619 1258 619 1258 379 c 2,67,-1
 1258 -124 l 2,68,69
 1256 -301 1256 -301 1249 -401 c 128,-1,70
 1242 -501 1242 -501 1227 -550.5 c 128,-1,71
 1212 -600 1212 -600 1188 -612 c 128,-1,72
 1164 -624 1164 -624 1128 -624 c 0,73,74
 1114 -624 1114 -624 1095.5 -608.5 c 128,-1,75
 1077 -593 1077 -593 1057.5 -569 c 128,-1,76
 1038 -545 1038 -545 1017 -515.5 c 128,-1,77
 996 -486 996 -486 978 -460 c 0,78,79
 948 -419 948 -419 925 -387.5 c 128,-1,80
 902 -356 902 -356 893 -354 c 1,81,82
 879 -375 879 -375 847 -418.5 c 128,-1,83
 815 -462 815 -462 779 -505 c 128,-1,84
 743 -548 743 -548 706 -582 c 128,-1,85
 669 -616 669 -616 644 -617 c 1,86,87
 623 -616 623 -616 592 -579.5 c 128,-1,88
 561 -543 561 -543 531 -502 c 0,89,90
 497 -455 497 -455 460 -393 c 1,91,92
 458 -432 458 -432 443 -466.5 c 128,-1,93
 428 -501 428 -501 404 -529 c 128,-1,94
 380 -557 380 -557 348.5 -575.5 c 128,-1,95
 317 -594 317 -594 281 -600 c 0,96,97
 237 -608 237 -608 194.5 -598.5 c 128,-1,98
 152 -589 152 -589 117.5 -565 c 128,-1,99
 83 -541 83 -541 61 -504 c 128,-1,100
 39 -467 39 -467 35 -419 c 0,101,102
 30 -327 30 -327 57.5 -276.5 c 128,-1,103
 85 -226 85 -226 124 -202.5 c 128,-1,104
 163 -179 163 -179 201 -174.5 c 128,-1,105
 239 -170 239 -170 255 -170 c 0,106,107
 324 -170 324 -170 373 -198 c 1,108,-1
 373 -179 l 2,109,110
 370 -147 370 -147 386 -132 c 128,-1,111
 402 -117 402 -117 422 -118 c 128,-1,112
 442 -119 442 -119 459 -134.5 c 128,-1,113
 476 -150 476 -150 476 -179 c 1,114,-1
 476 -175 l 1,115,-1
 485 -253 l 1,116,117
 509 -281 509 -281 535 -317.5 c 128,-1,118
 561 -354 561 -354 585 -389 c 0,119,120
 610 -426 610 -426 631.5 -457 c 128,-1,121
 653 -488 653 -488 647 -499 c 1,122,123
 757 -359 757 -359 808.5 -295.5 c 128,-1,124
 860 -232 860 -232 884 -228 c 1,125,126
 916 -228 916 -228 952.5 -269.5 c 128,-1,127
 989 -311 989 -311 1024 -366 c 2,128,-1
 1031 -375 l 1,129,-1
 1029 -373 l 1,0,1
161 233 m 0,130,131
 157 177 157 177 190 140 c 128,-1,132
 223 103 223 103 272 96 c 0,133,134
 301 92 301 92 323 100 c 128,-1,135
 345 108 345 108 360 123 c 128,-1,136
 375 138 375 138 384.5 159 c 128,-1,137
 394 180 394 180 400 202 c 0,138,139
 407 248 407 248 377.5 288.5 c 128,-1,140
 348 329 348 329 295 336 c 0,141,142
 244 343 244 343 205 314 c 128,-1,143
 166 285 166 285 161 233 c 0,130,131
366 -354 m 0,144,145
 363 -306 363 -306 327.5 -286.5 c 128,-1,146
 292 -267 292 -267 246 -267 c 0,147,148
 219 -267 219 -267 194.5 -276 c 128,-1,149
 170 -285 170 -285 153 -302.5 c 128,-1,150
 136 -320 136 -320 128 -347.5 c 128,-1,151
 120 -375 120 -375 129 -412 c 0,152,153
 140 -462 140 -462 168 -485 c 128,-1,154
 196 -508 196 -508 230 -508 c 0,155,156
 255 -508 255 -508 280.5 -501.5 c 128,-1,157
 306 -495 306 -495 325.5 -477.5 c 128,-1,158
 345 -460 345 -460 356.5 -430 c 128,-1,159
 368 -400 368 -400 366 -354 c 0,144,145
EndSplineSet
Substitution2: "Single Substitution lookup 22 subtable" uni0E0F.alt1
Substitution2: "Single Substitution lookup 22 subtable" uni0E0F.alt1
EndChar
StartChar: uni0E10
Encoding: 3600 3600 20
Width: 1271
VWidth: 3622
Flags: W
HStem: -386 96<38.4496 124.793 722.593 816.702> -126 91<701.673 837.212> 340 93<448.445 557.807> 700 103<439.018 580.855> 847 111.5<189.115 282.65 282.65 426.85 426.85 533.119 533.119 601.027 601.027 677.027 677.027 768.996 768.996 856.598> 989 104<965.105 1025.78> 1222 101<409.984 628.129>
VStem: 191 101<-327 -314.85 -314.85 -298.596 -298.596 -291.036 -291.036 -269 -269 -246> 271 104<470.645 611.977> 598.5 91.5<-240.5 -239.328 -239.328 -225.242 -232.285 -167.63> 644 104.5<159.615 190 190 242.401 242.401 284.058 284.058 316.519 316.519 361.853 516.285 590.919> 854.5 102.5<-528.125 -416.485 -416.485 -374.056 -283.524 -153.755> 952 99<613.582 774.938> 1033 104<1100.22 1166.66>
Fore
375 562 m 0,0,1
 379 506 379 506 414 469.5 c 128,-1,2
 449 433 449 433 511 433 c 0,3,4
 538 432 538 432 561.5 441.5 c 128,-1,5
 585 451 585 451 602 468.5 c 128,-1,6
 619 486 619 486 629 509 c 128,-1,7
 639 532 639 532 639 559 c 0,8,9
 639 612 639 612 601.5 653.5 c 128,-1,10
 564 695 564 695 506 700 c 0,11,12
 455 700 455 700 428.5 678 c 128,-1,13
 402 656 402 656 389 631 c 0,14,15
 375 600 375 600 375 562 c 0,0,1
163 -435 m 1,16,-1
 163 -433 l 1,17,-1
 163 -435 l 1,16,-1
67 -555 m 0,18,19
 117 -552 117 -552 143.5 -522 c 128,-1,20
 170 -492 170 -492 163 -433 c 1,21,22
 150 -409 150 -409 126.5 -397.5 c 128,-1,23
 103 -386 103 -386 78 -386 c 0,24,25
 44 -386 44 -386 17.5 -409 c 128,-1,26
 -9 -432 -9 -432 -5 -481 c 0,27,28
 -4 -520 -4 -520 17.5 -538.5 c 128,-1,29
 39 -557 39 -557 67 -555 c 0,18,19
768 -490 m 0,30,31
 787 -509 787 -509 806.5 -525 c 128,-1,32
 826 -541 826 -541 842 -554 c 1,33,34
 853 -508 853 -508 854.5 -462 c 128,-1,35
 856 -416 856 -416 853 -371 c 1,36,37
 822 -391 822 -391 762 -391 c 0,38,39
 720 -391 720 -391 687 -376 c 128,-1,40
 654 -361 654 -361 632 -336 c 128,-1,41
 610 -311 610 -311 598.5 -279.5 c 128,-1,42
 587 -248 587 -248 587 -214 c 256,43,44
 587 -180 587 -180 597.5 -148.5 c 128,-1,45
 608 -117 608 -117 630.5 -92 c 128,-1,46
 653 -67 653 -67 684.5 -51 c 128,-1,47
 716 -35 716 -35 759 -35 c 0,48,49
 863 -35 863 -35 908 -83 c 128,-1,50
 953 -131 953 -131 962 -214 c 0,51,52
 962 -363 962 -363 957 -454 c 128,-1,53
 952 -545 952 -545 937.5 -592.5 c 128,-1,54
 923 -640 923 -640 899.5 -655 c 128,-1,55
 876 -670 876 -670 838 -667 c 0,56,57
 821 -667 821 -667 793.5 -644 c 128,-1,58
 766 -621 766 -621 735 -593.5 c 128,-1,59
 704 -566 704 -566 676.5 -540.5 c 128,-1,60
 649 -515 649 -515 631 -506 c 1,61,62
 621 -511 621 -511 594.5 -536 c 128,-1,63
 568 -561 568 -561 538.5 -588.5 c 128,-1,64
 509 -616 509 -616 482 -639 c 128,-1,65
 455 -662 455 -662 440 -662 c 0,66,67
 419 -662 419 -662 394.5 -646.5 c 128,-1,68
 370 -631 370 -631 343.5 -608 c 128,-1,69
 317 -585 317 -585 293 -557 c 128,-1,70
 269 -529 269 -529 251 -504 c 1,71,72
 232 -568 232 -568 184 -605 c 128,-1,73
 136 -642 136 -642 85 -649 c 0,74,75
 55 -651 55 -651 23 -641 c 128,-1,76
 -9 -631 -9 -631 -35.5 -610 c 128,-1,77
 -62 -589 -62 -589 -79.5 -556.5 c 128,-1,78
 -97 -524 -97 -524 -101 -481 c 0,79,80
 -104 -433 -104 -433 -88.5 -398 c 128,-1,81
 -73 -363 -73 -363 -45.5 -339 c 128,-1,82
 -18 -315 -18 -315 16.5 -302.5 c 128,-1,83
 51 -290 51 -290 87 -290 c 0,84,85
 117 -290 117 -290 143.5 -300.5 c 128,-1,86
 170 -311 170 -311 191 -327 c 1,87,88
 191 -318 191 -318 188.5 -302.5 c 128,-1,89
 186 -287 186 -287 179 -269 c 1,90,91
 175 -242 175 -242 187.5 -225.5 c 128,-1,92
 200 -209 200 -209 217.5 -205.5 c 128,-1,93
 235 -202 235 -202 253.5 -210.5 c 128,-1,94
 272 -219 272 -219 281 -246 c 1,95,-1
 281 -244 l 1,96,97
 292 -313 292 -313 292 -345 c 128,-1,98
 292 -377 292 -377 290 -386 c 1,99,100
 311 -412 311 -412 334 -442 c 128,-1,101
 357 -472 357 -472 376.5 -497 c 128,-1,102
 396 -522 396 -522 409.5 -538.5 c 128,-1,103
 423 -555 423 -555 426 -555 c 1,104,105
 448 -536 448 -536 472.5 -512 c 128,-1,106
 497 -488 497 -488 523.5 -465 c 128,-1,107
 550 -442 550 -442 575.5 -422.5 c 128,-1,108
 601 -403 601 -403 624 -393 c 1,109,110
 654 -393 654 -393 690.5 -424 c 128,-1,111
 727 -455 727 -455 768 -490 c 0,30,31
860 -223 m 256,112,113
 861 -177 861 -177 829.5 -153 c 128,-1,114
 798 -129 798 -129 768 -126 c 0,115,116
 731 -126 731 -126 708 -150.5 c 128,-1,117
 685 -175 685 -175 685 -210 c 0,118,119
 685 -225 685 -225 690 -240.5 c 128,-1,120
 695 -256 695 -256 705.5 -269.5 c 128,-1,121
 716 -283 716 -283 732 -292 c 128,-1,122
 748 -301 748 -301 769 -301 c 0,123,124
 808 -299 808 -299 833 -284 c 128,-1,125
 858 -269 858 -269 860 -223 c 256,112,113
1051 739 m 0,126,127
 1047 601 1047 601 1026 467.5 c 128,-1,128
 1005 334 1005 334 968.5 230.5 c 128,-1,129
 932 127 932 127 883.5 63.5 c 128,-1,130
 835 0 835 0 777 0 c 0,131,132
 731 0 731 0 704 25.5 c 128,-1,133
 677 51 677 51 663 93.5 c 128,-1,134
 649 136 649 136 644 190 c 128,-1,135
 639 244 639 244 635 301 c 0,136,137
 633 325 633 325 634 331.5 c 128,-1,138
 635 338 635 338 631 363 c 1,139,140
 601 348 601 348 570 344 c 128,-1,141
 539 340 539 340 508 340 c 0,142,143
 462 340 462 340 421 355.5 c 128,-1,144
 380 371 380 371 348.5 398.5 c 128,-1,145
 317 426 317 426 296.5 462.5 c 128,-1,146
 276 499 276 499 271 541 c 0,147,148
 264 594 264 594 280.5 642 c 128,-1,149
 297 690 297 690 330 726 c 128,-1,150
 363 762 363 762 409 782.5 c 128,-1,151
 455 803 455 803 506 803 c 0,152,153
 545 803 545 803 587.5 790.5 c 128,-1,154
 630 778 630 778 666 742 c 128,-1,155
 702 706 702 706 724 640.5 c 128,-1,156
 746 575 746 575 743 471 c 0,157,158
 743 409 743 409 744 343.5 c 128,-1,159
 745 278 745 278 748.5 225 c 128,-1,160
 752 172 752 172 760 137.5 c 128,-1,161
 768 103 768 103 782 103 c 0,162,163
 798 101 798 101 816.5 131 c 128,-1,164
 835 161 835 161 854.5 211.5 c 128,-1,165
 874 262 874 262 890.5 328 c 128,-1,166
 907 394 907 394 921.5 465 c 128,-1,167
 936 536 936 536 944 605 c 128,-1,168
 952 674 952 674 952 732 c 0,169,170
 948 764 948 764 942 787 c 128,-1,171
 936 810 936 810 916.5 824 c 128,-1,172
 897 838 897 838 859 845.5 c 128,-1,173
 821 853 821 853 755 853 c 0,174,175
 670 853 670 853 599.5 852 c 128,-1,176
 529 851 529 851 467 849 c 0,177,178
 430 847 430 847 386.5 847 c 128,-1,179
 343 847 343 847 313 847 c 0,180,181
 239 847 239 847 187.5 851.5 c 128,-1,182
 136 856 136 856 104.5 867.5 c 128,-1,183
 73 879 73 879 57.5 899.5 c 128,-1,184
 42 920 42 920 41 953 c 0,185,186
 37 1008 37 1008 79.5 1072.5 c 128,-1,187
 122 1137 122 1137 191 1193 c 128,-1,188
 260 1249 260 1249 346.5 1286 c 128,-1,189
 433 1323 433 1323 522 1323 c 0,190,191
 596 1323 596 1323 649 1314 c 128,-1,192
 702 1305 702 1305 743 1286 c 0,193,194
 798 1258 798 1258 830.5 1224 c 128,-1,195
 863 1190 863 1190 889.5 1161 c 128,-1,196
 916 1132 916 1132 942 1112.5 c 128,-1,197
 968 1093 968 1093 1006 1093 c 0,198,199
 1019 1093 1019 1093 1026 1100 c 128,-1,200
 1033 1107 1033 1107 1033 1128 c 0,201,202
 1033 1167 1033 1167 1084 1167 c 0,203,204
 1137 1167 1137 1167 1137 1125 c 0,205,206
 1137 1095 1137 1095 1125 1069.5 c 128,-1,207
 1113 1044 1113 1044 1093.5 1026 c 128,-1,208
 1074 1008 1074 1008 1051 998.5 c 128,-1,209
 1028 989 1028 989 1006 989 c 0,210,211
 962 985 962 985 925 1006.5 c 128,-1,212
 888 1028 888 1028 856 1056 c 128,-1,213
 824 1084 824 1084 798.5 1112.5 c 128,-1,214
 773 1141 773 1141 752 1155 c 0,215,216
 716 1185 716 1185 664 1203.5 c 128,-1,217
 612 1222 612 1222 532 1222 c 0,218,219
 471 1222 471 1222 403.5 1197.5 c 128,-1,220
 336 1173 336 1173 280.5 1135.5 c 128,-1,221
 225 1098 225 1098 190.5 1053 c 128,-1,222
 156 1008 156 1008 159 969 c 0,223,224
 159 960 159 960 203.5 958.5 c 128,-1,225
 248 957 248 957 364 957 c 2,226,-1
 525 957 l 2,227,228
 594 957 594 957 677.5 958 c 128,-1,229
 761 959 761 959 861 959 c 1,230,-1
 860 959 l 1,231,232
 968 968 968 968 1010 895 c 0,233,234
 1054 831 1054 831 1051 739 c 0,126,127
EndSplineSet
Substitution2: "Single Substitution lookup 22 subtable" uni0E10.alt1
Substitution2: "Single Substitution lookup 22 subtable" uni0E10.alt1
EndChar
StartChar: uni0E11
Encoding: 3601 3601 21
Width: 1648
VWidth: 3622
Flags: W
HStem: 688 92<167.236 323.152> 1010 88<199.845 355.329> 1190 105<1083.37 1297.05>
VStem: 375 99<847.729 989.057> 720 118<30.7491 370.9 370.9 480 480 543.515> 1390 104.5<44 127.089 127.089 166.746 166.746 305.058 305.058 335.181 335.181 398 399.218 400 400 492.727 492.727 515.3 504.013 681.227 610.635 720.242 720.242 751.82 751.82 938.622>
Fore
157 955 m 1,0,1
 147 923 147 923 147 893 c 0,2,3
 147 876 147 876 148.5 862.5 c 128,-1,4
 150 849 150 849 159 835 c 0,5,6
 187 782 187 782 272 780 c 0,7,8
 324 777 324 777 349.5 810.5 c 128,-1,9
 375 844 375 844 375 895 c 0,10,11
 375 1005 375 1005 258 1010 c 0,12,13
 226 1014 226 1014 199 1002.5 c 128,-1,14
 172 991 172 991 157 953 c 1,15,-1
 157 955 l 1,0,1
720 163 m 2,16,-1
 720 285 l 2,17,18
 720 375 720 375 717.5 480 c 128,-1,19
 715 585 715 585 711 704 c 2,20,-1
 704 883 l 2,21,22
 700 964 700 964 697.5 1020.5 c 128,-1,23
 695 1077 695 1077 688 1111.5 c 128,-1,24
 681 1146 681 1146 667.5 1161 c 128,-1,25
 654 1176 654 1176 630 1176 c 0,26,27
 594 1173 594 1173 585 1137 c 0,28,29
 580 1109 580 1109 572 1081.5 c 128,-1,30
 564 1054 564 1054 555 1022 c 1,31,32
 536 1008 536 1008 516 1005 c 1,33,-1
 518 1006 l 1,34,35
 474 992 474 992 451 1024 c 1,36,37
 448 1040 448 1040 437 1066.5 c 128,-1,38
 426 1093 426 1093 407.5 1118.5 c 128,-1,39
 389 1144 389 1144 361.5 1163 c 128,-1,40
 334 1182 334 1182 297 1183 c 1,41,42
 272 1178 272 1178 251 1171 c 128,-1,43
 230 1164 230 1164 216 1155 c 0,44,45
 195 1144 195 1144 179.5 1125.5 c 128,-1,46
 164 1107 164 1107 161 1081 c 1,47,48
 209 1098 209 1098 258 1098 c 0,49,50
 347 1098 347 1098 406 1042.5 c 128,-1,51
 465 987 465 987 474 906 c 0,52,53
 476 874 476 874 463.5 836 c 128,-1,54
 451 798 451 798 424.5 765 c 128,-1,55
 398 732 398 732 359 710 c 128,-1,56
 320 688 320 688 272 688 c 0,57,58
 156 693 156 693 105.5 751.5 c 128,-1,59
 55 810 55 810 48 925 c 0,60,61
 41 1054 41 1054 99 1164 c 0,62,63
 166 1279 166 1279 297 1286 c 0,64,65
 343 1289 343 1289 398 1260 c 128,-1,66
 453 1231 453 1231 492 1169 c 1,67,68
 532 1279 532 1279 628 1279 c 0,69,70
 674 1279 674 1279 707.5 1263 c 128,-1,71
 741 1247 741 1247 764 1201 c 128,-1,72
 787 1155 787 1155 798.5 1072 c 128,-1,73
 810 989 810 989 814 856 c 1,74,75
 833 930 833 930 865 1008 c 128,-1,76
 897 1086 897 1086 944.5 1149.5 c 128,-1,77
 992 1213 992 1213 1059.5 1254 c 128,-1,78
 1127 1295 1127 1295 1217 1295 c 0,79,80
 1307 1291 1307 1291 1362 1228.5 c 128,-1,81
 1417 1166 1417 1166 1447 1065 c 128,-1,82
 1477 964 1477 964 1486.5 835 c 128,-1,83
 1496 706 1496 706 1496 573 c 0,84,85
 1496 492 1496 492 1494.5 412.5 c 128,-1,86
 1493 333 1493 333 1489 258 c 0,87,88
 1489 143 1489 143 1488.5 77 c 128,-1,89
 1488 11 1488 11 1440 7 c 1,90,91
 1399 -9 1399 -9 1380 44 c 1,92,93
 1381 122 1381 122 1384 210.5 c 128,-1,94
 1387 299 1387 299 1390 400 c 1,95,-1
 1390 398 l 1,96,97
 1392 437 1392 437 1393 473 c 128,-1,98
 1394 509 1394 509 1394 558 c 128,-1,99
 1394 607 1394 607 1391.5 663.5 c 128,-1,100
 1389 720 1389 720 1385 777 c 0,101,102
 1378 865 1378 865 1364.5 941 c 128,-1,103
 1351 1017 1351 1017 1330 1077 c 0,104,105
 1297 1187 1297 1187 1217 1190 c 0,106,107
 1035 1194 1035 1194 939 907 c 0,108,109
 888 757 888 757 864 550 c 128,-1,110
 840 343 840 343 838 69 c 0,111,112
 835 39 835 39 813.5 23 c 128,-1,113
 792 7 792 7 771 7 c 0,114,115
 745 7 745 7 726.5 25.5 c 128,-1,116
 708 44 708 44 720 163 c 2,16,-1
EndSplineSet
EndChar
StartChar: uni0E12
Encoding: 3602 3602 22
Width: 1912
VWidth: 3622
Flags: W
HStem: 0 92<961.481 1113.23> 317 100<971.688 1062.65 1060.73 1064.58 1064.58 1096.39 1096.39 1100.68> 398 92<454.138 616.224> 738 99<432.465 595.426> 1176 110<405.043 534.543 866 1041.7>
VStem: 156 100<256.476 440.5 440.5 557.935 557.935 631 631.624 834.96> 304 101<562.945 653.594> 654 108<524.938 705.987> 1116 101<99.3262 139 154 210.844 412 718.712 718.712 787 838.5 925.414> 1128 98<157.992 248.75> 1654 99<111 161.92 161.92 333.535 333.535 370 370 448.485 448.485 528.273 528.273 559.604 559.604 610.665 610.665 735.335 735.335 776.304 776.304 1044.07 1044.07 1146.64 1146.64 1163.97 1163.97 1274.49>
Fore
654 621 m 0,0,1
 653 672 653 672 614 705 c 128,-1,2
 575 738 575 738 524 738 c 0,3,4
 460 738 460 738 433 697 c 0,5,6
 405 654 405 654 405 612 c 0,7,8
 405 577 405 577 433 529 c 0,9,10
 446 511 446 511 469 500.5 c 128,-1,11
 492 490 492 490 524 490 c 0,12,13
 578 490 578 490 613.5 526 c 128,-1,14
 649 562 649 562 654 621 c 0,0,1
1116 670 m 1,15,-1
 1109 787 l 2,16,17
 1106 872 1106 872 1100.5 943.5 c 128,-1,18
 1095 1015 1095 1015 1081.5 1068 c 128,-1,19
 1068 1121 1068 1121 1042.5 1150.5 c 128,-1,20
 1017 1180 1017 1180 975 1180 c 0,21,22
 906 1183 906 1183 858 1128.5 c 128,-1,23
 810 1074 810 1074 784 941 c 1,24,25
 775 923 775 923 765 913.5 c 128,-1,26
 755 904 755 904 736 904 c 0,27,28
 697 904 697 904 685 943 c 2,29,-1
 676 964 l 1,30,-1
 677 960 l 1,31,32
 660 1005 660 1005 643 1044.5 c 128,-1,33
 626 1084 626 1084 603 1113.5 c 128,-1,34
 580 1143 580 1143 550 1159.5 c 128,-1,35
 520 1176 520 1176 478 1176 c 0,36,37
 430 1176 430 1176 390 1149.5 c 128,-1,38
 350 1123 350 1123 320 1063 c 128,-1,39
 290 1003 290 1003 273 908.5 c 128,-1,40
 256 814 256 814 256 676 c 0,41,42
 256 548 256 548 260.5 440.5 c 128,-1,43
 265 333 265 333 272 254 c 128,-1,44
 279 175 279 175 288 131.5 c 128,-1,45
 297 88 297 88 306 88 c 0,46,47
 322 88 322 88 345 101.5 c 128,-1,48
 368 115 368 115 395.5 137 c 128,-1,49
 423 159 423 159 453 189 c 128,-1,50
 483 219 483 219 513 253 c 0,51,52
 547 294 547 294 577 338 c 128,-1,53
 607 382 607 382 630 425 c 1,54,55
 577 398 577 398 524 398 c 0,56,57
 456 398 456 398 413.5 421 c 128,-1,58
 371 444 371 444 346.5 476.5 c 128,-1,59
 322 509 322 509 313 544.5 c 128,-1,60
 304 580 304 580 304 605 c 0,61,62
 304 628 304 628 314.5 667 c 128,-1,63
 325 706 325 706 351 744 c 128,-1,64
 377 782 377 782 420 809.5 c 128,-1,65
 463 837 463 837 527 837 c 0,66,67
 555 837 555 837 595 825.5 c 128,-1,68
 635 814 635 814 672 785.5 c 128,-1,69
 709 757 709 757 735.5 709.5 c 128,-1,70
 762 662 762 662 762 589 c 0,71,72
 762 509 762 509 737.5 436 c 128,-1,73
 713 363 713 363 673 298 c 128,-1,74
 633 233 633 233 582 179.5 c 128,-1,75
 531 126 531 126 478.5 86 c 128,-1,76
 426 46 426 46 376.5 21 c 128,-1,77
 327 -4 327 -4 290 -11 c 1,78,79
 230 -7 230 -7 198 156.5 c 128,-1,80
 166 320 166 320 156 633 c 1,81,-1
 156 631 l 1,82,83
 154 651 154 651 154 668.5 c 128,-1,84
 154 686 154 686 154 706 c 0,85,86
 154 886 154 886 185 999.5 c 128,-1,87
 216 1113 216 1113 263.5 1176.5 c 128,-1,88
 311 1240 311 1240 368 1263 c 128,-1,89
 425 1286 425 1286 478 1286 c 0,90,91
 539 1286 539 1286 588 1264 c 128,-1,92
 637 1242 637 1242 667 1205 c 0,93,94
 685 1183 685 1183 700.5 1158.5 c 128,-1,95
 716 1134 716 1134 727 1107 c 1,96,97
 736 1137 736 1137 749 1159.5 c 128,-1,98
 762 1182 762 1182 782 1206 c 0,99,100
 851 1289 851 1289 980 1286 c 0,101,102
 1054 1286 1054 1286 1100 1249.5 c 128,-1,103
 1146 1213 1146 1213 1171.5 1114 c 128,-1,104
 1197 1015 1197 1015 1207 838.5 c 128,-1,105
 1217 662 1217 662 1217 379 c 1,106,-1
 1657 111 l 1,107,108
 1656 120 1656 120 1655 215.5 c 128,-1,109
 1654 311 1654 311 1654 453 c 0,110,111
 1654 555 1654 555 1653 666.5 c 128,-1,112
 1652 778 1652 778 1650 886 c 0,113,114
 1649 982 1649 982 1648 1070.5 c 128,-1,115
 1647 1159 1647 1159 1647 1222 c 1,116,117
 1652 1259 1652 1259 1666 1275 c 128,-1,118
 1680 1291 1680 1291 1699 1292 c 128,-1,119
 1718 1293 1718 1293 1735.5 1279.5 c 128,-1,120
 1753 1266 1753 1266 1753 1215 c 0,121,122
 1755 1171 1755 1171 1753 1112.5 c 128,-1,123
 1751 1054 1751 1054 1751 975 c 0,124,125
 1751 897 1751 897 1751 817.5 c 128,-1,126
 1751 738 1751 738 1753 653 c 0,127,128
 1753 608 1753 608 1754 568.5 c 128,-1,129
 1755 529 1755 529 1755 488 c 256,130,131
 1755 448 1755 448 1754 409 c 128,-1,132
 1753 370 1753 370 1753 331 c 2,133,-1
 1748 87 l 1,134,135
 1739 35 1739 35 1720.5 20 c 128,-1,136
 1702 5 1702 5 1682 0 c 1,137,138
 1668 -2 1668 -2 1652 0 c 128,-1,139
 1636 2 1636 2 1620 11 c 2,140,-1
 1224 249 l 1,141,142
 1226 241 1226 241 1226 232 c 128,-1,143
 1226 223 1226 223 1226 212 c 0,144,145
 1226 175 1226 175 1218 139 c 128,-1,146
 1210 103 1210 103 1189.5 72.5 c 128,-1,147
 1169 42 1169 42 1133 23 c 128,-1,148
 1097 4 1097 4 1038 0 c 0,149,150
 987 -4 987 -4 943.5 9.5 c 128,-1,151
 900 23 900 23 876 50 c 0,152,153
 826 110 826 110 819 173 c 0,154,155
 815 216 815 216 828.5 259 c 128,-1,156
 842 302 842 302 870.5 337.5 c 128,-1,157
 899 373 899 373 944 395 c 128,-1,158
 989 417 989 417 1049 417 c 0,159,160
 1067 417 1067 417 1080 416.5 c 128,-1,161
 1093 416 1093 416 1113 412 c 1,162,-1
 1116 670 l 1,15,-1
1121 297 m 1,163,164
 1114 301 1114 301 1113 301 c 1,165,166
 1113 304 1113 304 1112 305 c 128,-1,167
 1111 306 1111 306 1111 310 c 1,168,-1
 1121 297 l 1,163,164
1128 216 m 0,169,170
 1128 255 1128 255 1113 301 c 1,171,172
 1095 310 1095 310 1077.5 313.5 c 128,-1,173
 1060 317 1060 317 1044 317 c 0,174,175
 992 317 992 317 956 279.5 c 128,-1,176
 920 242 920 242 925 182 c 0,177,178
 927 156 927 156 950 117 c 1,179,-1
 948 119 l 1,180,181
 971 92 971 92 1037 92 c 256,182,183
 1102 92 1102 92 1120 154 c 0,184,185
 1128 186 1128 186 1128 216 c 0,169,170
EndSplineSet
EndChar
StartChar: uni0E13
Encoding: 3603 3603 23
Width: 1963
VWidth: 3622
Flags: W
HStem: -7 95<391.021 534.418> 308 99<1609.65 1737.66> 327 92<385.6 535.871> 1208 103<450.539 588.624>
VStem: 233 101<138.634 295.83> 260 115<559.343 578 578 625.713 625.713 694.973 694.973 714.488 714.488 793.928> 573 101<119.607 274.991> 916 106<111.686 165.758 165.758 198.727 198.727 236.635 236.635 317.058 317.058 446.119 446.119 570.965 570.965 632.454 601.71 933.355> 1465 97<151.539 241.718> 1477 104<401.438 539.454 539.454 765.812 765.812 865.242 865.242 979.758 979.758 1093.24 1093.24 1205.27 1205.27 1261>
Fore
1578 587 m 0,0,1
 1578 538 1578 538 1577 492 c 128,-1,2
 1576 446 1576 446 1580 400 c 1,3,4
 1595 403 1595 403 1610.5 405 c 128,-1,5
 1626 407 1626 407 1640 407 c 0,6,7
 1702 407 1702 407 1745 383 c 128,-1,8
 1788 359 1788 359 1815.5 323 c 128,-1,9
 1843 287 1843 287 1854.5 244.5 c 128,-1,10
 1866 202 1866 202 1864 164 c 0,11,12
 1857 101 1857 101 1811 39 c 0,13,14
 1762 -21 1762 -21 1652 -11 c 0,15,16
 1594 -4 1594 -4 1557.5 16.5 c 128,-1,17
 1521 37 1521 37 1500.5 66.5 c 128,-1,18
 1480 96 1480 96 1472.5 131 c 128,-1,19
 1465 166 1465 166 1465 202 c 0,20,21
 1465 210 1465 210 1465 221.5 c 128,-1,22
 1465 233 1465 233 1466 242 c 1,23,-1
 1038 2 l 2,24,25
 1017 -7 1017 -7 994 -7 c 0,26,27
 969 -7 969 -7 947 7 c 128,-1,28
 925 21 925 21 916 64 c 1,29,-1
 916 304 l 2,30,31
 916 379 916 379 916 470.5 c 128,-1,32
 916 562 916 562 920 672 c 0,33,34
 918 810 918 810 896 908 c 128,-1,35
 874 1006 874 1006 831.5 1070 c 128,-1,36
 789 1134 789 1134 727 1166.5 c 128,-1,37
 665 1199 665 1199 584 1208 c 0,38,39
 478 1213 478 1213 398 1188.5 c 128,-1,40
 318 1164 318 1164 263.5 1125 c 128,-1,41
 209 1086 209 1086 178 1040 c 128,-1,42
 147 994 147 994 138 955 c 1,43,-1
 343 876 l 1,44,45
 363 863 363 863 369 830.5 c 128,-1,46
 375 798 375 798 375 752 c 0,47,48
 375 702 375 702 370.5 637.5 c 128,-1,49
 366 573 366 573 361 506 c 0,50,51
 357 479 357 479 355.5 453.5 c 128,-1,52
 354 428 354 428 352 402 c 1,53,54
 387 423 387 423 463 419 c 0,55,56
 529 419 529 419 569.5 394.5 c 128,-1,57
 610 370 610 370 633 335.5 c 128,-1,58
 656 301 656 301 665 263.5 c 128,-1,59
 674 226 674 226 674 203 c 0,60,61
 665 126 665 126 612 62 c 0,62,63
 554 -7 554 -7 449 -7 c 0,64,65
 423 -11 423 -11 386.5 1.5 c 128,-1,66
 350 14 350 14 315.5 40.5 c 128,-1,67
 281 67 281 67 257 108 c 128,-1,68
 233 149 233 149 233 205 c 0,69,70
 233 271 233 271 240.5 362 c 128,-1,71
 248 453 248 453 256 539 c 0,72,73
 256 548 256 548 258 559 c 128,-1,74
 260 570 260 570 260 578 c 0,75,76
 265 631 265 631 268 676.5 c 128,-1,77
 271 722 271 722 271 752 c 0,78,79
 271 792 271 792 274 794 c 1,80,81
 248 805 248 805 218.5 816.5 c 128,-1,82
 189 828 189 828 170 835 c 0,83,84
 142 845 142 845 115 854 c 128,-1,85
 88 863 88 863 69 873.5 c 128,-1,86
 50 884 50 884 37.5 896.5 c 128,-1,87
 25 909 25 909 25 927 c 0,88,89
 25 983 25 983 59.5 1050.5 c 128,-1,90
 94 1118 94 1118 159.5 1175.5 c 128,-1,91
 225 1233 225 1233 319.5 1272 c 128,-1,92
 414 1311 414 1311 534 1311 c 0,93,94
 547 1311 547 1311 562 1311 c 128,-1,95
 577 1311 577 1311 589 1309 c 0,96,97
 697 1300 697 1300 778.5 1265.5 c 128,-1,98
 860 1231 860 1231 913 1157.5 c 128,-1,99
 966 1084 966 1084 992.5 965.5 c 128,-1,100
 1019 847 1019 847 1019 672 c 0,101,102
 1017 631 1017 631 1017 593 c 128,-1,103
 1017 555 1017 555 1017 516 c 0,104,105
 1017 442 1017 442 1018 376.5 c 128,-1,106
 1019 311 1019 311 1022 258 c 0,107,108
 1022 233 1022 233 1023 215.5 c 128,-1,109
 1024 198 1024 198 1024 182 c 128,-1,110
 1024 166 1024 166 1025 149.5 c 128,-1,111
 1026 133 1026 133 1028 111 c 1,112,113
 1143 175 1143 175 1251.5 235 c 128,-1,114
 1360 295 1360 295 1477 359 c 1,115,-1
 1470 1245 l 1,116,117
 1475 1275 1475 1275 1490 1290 c 128,-1,118
 1505 1305 1505 1305 1522 1306 c 128,-1,119
 1539 1307 1539 1307 1555.5 1295.5 c 128,-1,120
 1572 1284 1572 1284 1581 1261 c 1,121,122
 1583 1206 1583 1206 1584 1149.5 c 128,-1,123
 1585 1093 1585 1093 1585 1037 c 256,124,125
 1585 980 1585 980 1584 922.5 c 128,-1,126
 1583 865 1583 865 1581 808 c 0,127,128
 1578 752 1578 752 1578 724.5 c 0,129,-1
 1578 587 l 0,0,1
449 88 m 0,130,131
 501 88 501 88 535.5 122 c 128,-1,132
 570 156 570 156 573 214 c 0,133,134
 573 264 573 264 537 295.5 c 128,-1,135
 501 327 501 327 449 327 c 0,136,137
 387 327 387 327 363 288 c 0,138,139
 334 246 334 246 334 205 c 0,140,141
 334 168 334 168 363 126 c 0,142,143
 389 88 389 88 449 88 c 0,130,131
1580 299 m 1,144,145
 1576 292 1576 292 1576 288 c 1,146,147
 1571 285 1571 285 1569 285 c 1,148,-1
 1580 299 l 1,144,145
1649 308 m 0,149,150
 1618 308 1618 308 1576 288 c 1,151,152
 1569 265 1569 265 1565.5 245 c 128,-1,153
 1562 225 1562 225 1562 203 c 0,154,155
 1562 175 1562 175 1571 145 c 0,156,157
 1590 81 1590 81 1654 80 c 0,158,159
 1719 78 1719 78 1739 104 c 0,160,161
 1763 138 1763 138 1767 173 c 0,162,163
 1771 232 1771 232 1735.5 270 c 128,-1,164
 1700 308 1700 308 1649 308 c 0,149,150
EndSplineSet
EndChar
StartChar: uni0E14
Encoding: 3604 3604 24
Width: 1445
VWidth: 3622
Flags: W
HStem: -11 107<295.757 386.273> 439 90<563.953 716.247> 778 90<566.126 720.03> 1226 109<604.663 844.835>
VStem: 166 119.5<147.365 232 232 335.581 335.581 883.491> 437 99<605.222 672.849 668.996 676.703 676.703 692> 1183 99<24.6715 885.141>
Fore
720 1226 m 0,0,1
 635 1226 635 1226 554.5 1188 c 128,-1,2
 474 1150 474 1150 412 1074.5 c 128,-1,3
 350 999 350 999 313 887 c 128,-1,4
 276 775 276 775 276 626 c 0,5,6
 276 368 276 368 285.5 232 c 128,-1,7
 295 96 295 96 315 96 c 0,8,9
 361 96 361 96 437 147 c 0,10,11
 520 205 520 205 594 279 c 0,12,13
 667 354 667 354 729 442 c 2,14,-1
 739 456 l 1,15,16
 718 448 718 448 697.5 443.5 c 128,-1,17
 677 439 677 439 658 439 c 0,18,19
 593 439 593 439 550.5 462 c 128,-1,20
 508 485 508 485 483 516.5 c 128,-1,21
 458 548 458 548 447.5 583.5 c 128,-1,22
 437 619 437 619 437 644 c 256,23,24
 437 669 437 669 447.5 707 c 128,-1,25
 458 745 458 745 483.5 781 c 128,-1,26
 509 817 509 817 551.5 842.5 c 128,-1,27
 594 868 594 868 658 868 c 0,28,29
 685 868 685 868 720 856 c 128,-1,30
 755 844 755 844 788.5 815.5 c 128,-1,31
 822 787 822 787 849 741 c 128,-1,32
 876 695 876 695 883 628 c 1,33,-1
 883 630 l 1,34,35
 890 538 890 538 830 426 c 0,36,37
 801 375 801 375 761.5 323 c 128,-1,38
 722 271 722 271 681 225 c 0,39,40
 637 179 637 179 585.5 136.5 c 128,-1,41
 534 94 534 94 485 62 c 0,42,43
 432 28 432 28 386 9.5 c 128,-1,44
 340 -9 340 -9 297 -11 c 0,45,46
 255 -11 255 -11 230 26.5 c 128,-1,47
 205 64 205 64 191 143 c 0,48,49
 168 281 168 281 166 633 c 0,50,51
 163 849 163 849 225 985 c 0,52,53
 290 1123 290 1123 373 1199 c 0,54,55
 456 1274 456 1274 557 1304 c 0,56,57
 656 1335 656 1335 720 1335 c 0,58,59
 780 1335 780 1335 870 1316 c 0,60,61
 920 1307 920 1307 967 1283 c 128,-1,62
 1014 1259 1014 1259 1058 1220 c 256,63,64
 1102 1182 1102 1182 1140 1126 c 128,-1,65
 1178 1070 1178 1070 1212 996 c 0,66,67
 1275 842 1275 842 1282 589 c 2,68,-1
 1282 34 l 2,69,70
 1282 30 1282 30 1279.5 24.5 c 128,-1,71
 1277 19 1277 19 1275 18 c 0,72,73
 1256 -4 1256 -4 1233 -4 c 0,74,75
 1208 -4 1208 -4 1199 7 c 0,76,77
 1197 9 1197 9 1193.5 10.5 c 128,-1,78
 1190 12 1190 12 1190 14 c 1,79,80
 1189 16 1189 16 1186 21.5 c 128,-1,81
 1183 27 1183 27 1183 30 c 2,82,-1
 1183 582 l 2,83,84
 1183 766 1183 766 1142.5 889 c 128,-1,85
 1102 1012 1102 1012 1036.5 1086 c 128,-1,86
 971 1160 971 1160 888 1191 c 128,-1,87
 805 1222 805 1222 720 1226 c 0,0,1
769 662 m 0,88,89
 768 709 768 709 737 743.5 c 128,-1,90
 706 778 706 778 658 778 c 0,91,92
 596 778 596 778 566 736 c 0,93,94
 552 715 552 715 544 692 c 128,-1,95
 536 669 536 669 536 653 c 0,96,97
 536 616 536 616 564 571 c 0,98,99
 596 529 596 529 658 529 c 0,100,101
 709 529 709 529 736.5 566 c 128,-1,102
 764 603 764 603 769 662 c 0,88,89
EndSplineSet
EndChar
StartChar: uni0E15
Encoding: 3605 3605 25
Width: 1445
VWidth: 3622
Flags: W
HStem: -11 107<294.574 348.283> 398 92<459.175 616.523> 738 99<438.75 597.41> 1219 101<403.251 573.835 960.408 1079.53>
VStem: 163 116<151.425 356.263 253.844 1011.76> 313 97<563.592 674.297> 653 104<524.247 705.987> 1183 99<24.6715 839.627>
Fore
821 978 m 2,0,1
 808 946 808 946 777 946 c 0,2,3
 734 946 734 946 729 987 c 1,4,5
 708 1033 708 1033 681 1076.5 c 128,-1,6
 654 1120 654 1120 626 1153 c 0,7,8
 600 1189 600 1189 564.5 1204 c 128,-1,9
 529 1219 529 1219 481 1219 c 0,10,11
 377 1219 377 1219 325 1072 c 0,12,13
 269 913 269 913 269 676 c 0,14,15
 269 409 269 409 279 244 c 0,16,17
 294 97 294 97 317 96 c 0,18,19
 331 94 331 94 353 105.5 c 128,-1,20
 375 117 375 117 401.5 139 c 128,-1,21
 428 161 428 161 457 190 c 128,-1,22
 486 219 486 219 516 253 c 0,23,24
 548 294 548 294 578 338 c 128,-1,25
 608 382 608 382 630 425 c 1,26,27
 580 398 580 398 527 398 c 0,28,29
 463 398 463 398 421 421 c 128,-1,30
 379 444 379 444 355 476.5 c 128,-1,31
 331 509 331 509 322 544.5 c 128,-1,32
 313 580 313 580 313 605 c 0,33,34
 313 628 313 628 323.5 667 c 128,-1,35
 334 706 334 706 359 744 c 128,-1,36
 384 782 384 782 425.5 809.5 c 128,-1,37
 467 837 467 837 531 837 c 0,38,39
 559 837 559 837 598 825.5 c 128,-1,40
 637 814 637 814 672.5 785.5 c 128,-1,41
 708 757 708 757 732.5 709.5 c 128,-1,42
 757 662 757 662 757 589 c 0,43,44
 757 467 757 467 705 357.5 c 128,-1,45
 653 248 653 248 579.5 165.5 c 128,-1,46
 506 83 506 83 428 36 c 128,-1,47
 350 -11 350 -11 297 -11 c 0,48,49
 219 -11 219 -11 187 147 c 0,50,51
 163 287 163 287 163 633 c 0,52,53
 163 856 163 856 193 991.5 c 128,-1,54
 223 1127 223 1127 269 1199.5 c 128,-1,55
 315 1272 315 1272 371.5 1296 c 128,-1,56
 428 1320 428 1320 481 1320 c 0,57,58
 605 1320 605 1320 685 1238 c 0,59,60
 738 1185 738 1185 764 1127 c 1,61,62
 777 1157 777 1157 792.5 1186 c 128,-1,63
 808 1215 808 1215 830 1240 c 0,64,65
 865 1277 865 1277 911 1298.5 c 128,-1,66
 957 1320 957 1320 1012 1320 c 0,67,68
 1060 1320 1060 1320 1108.5 1299.5 c 128,-1,69
 1157 1279 1157 1279 1196 1213.5 c 128,-1,70
 1235 1148 1235 1148 1258.5 1025 c 128,-1,71
 1282 902 1282 902 1282 697 c 2,72,-1
 1282 34 l 2,73,74
 1282 30 1282 30 1279.5 24.5 c 128,-1,75
 1277 19 1277 19 1275 18 c 0,76,77
 1256 -4 1256 -4 1233 -4 c 0,78,79
 1208 -4 1208 -4 1199 7 c 0,80,81
 1197 9 1197 9 1193.5 10.5 c 128,-1,82
 1190 12 1190 12 1190 14 c 1,83,84
 1189 16 1189 16 1186 21.5 c 128,-1,85
 1183 27 1183 27 1183 30 c 2,86,-1
 1183 630 l 2,87,88
 1183 752 1183 752 1174.5 860 c 128,-1,89
 1166 968 1166 968 1146.5 1048 c 128,-1,90
 1127 1128 1127 1128 1093.5 1175 c 128,-1,91
 1060 1222 1060 1222 1012 1222 c 0,92,93
 982 1222 982 1222 953.5 1209.5 c 128,-1,94
 925 1197 925 1197 900.5 1170 c 128,-1,95
 876 1143 876 1143 855.5 1097 c 128,-1,96
 835 1051 835 1051 822 983 c 2,97,-1
 821 978 l 2,0,1
653 621 m 0,98,99
 651 672 651 672 614.5 705 c 128,-1,100
 578 738 578 738 527 738 c 0,101,102
 467 738 467 738 439 697 c 0,103,104
 410 654 410 654 410 612 c 0,105,106
 410 577 410 577 439 529 c 0,107,108
 453 511 453 511 474 500.5 c 128,-1,109
 495 490 495 490 527 490 c 0,110,111
 580 490 580 490 613.5 526 c 128,-1,112
 647 562 647 562 653 621 c 0,98,99
EndSplineSet
EndChar
StartChar: uni0E16
Encoding: 3606 3606 26
Width: 1372
VWidth: 3622
Flags: W
HStem: 4 95<431.473 575.449> 340 90<448.95 576.356> 1229 103<546.495 726.562>
VStem: 279 98<169.146 254.216 249.682 258.75> 311 106<687.934 830.959> 616 99<134.584 271.672> 1106 107<39 86.2115 86.2115 224.624 603.455 1035.8> 1118.5 98.5<164.492 226 226 319.911 319.911 473.127 473.127 497.881 485.504 789.608>
Fore
715 216 m 2,0,1
 706 134 706 134 653 73 c 0,2,3
 594 4 594 4 492 4 c 0,4,5
 463 0 463 0 427 12.5 c 128,-1,6
 391 25 391 25 358 51.5 c 128,-1,7
 325 78 325 78 302 119.5 c 128,-1,8
 279 161 279 161 279 218 c 0,9,10
 279 271 279 271 283.5 350.5 c 128,-1,11
 288 430 288 430 295 511 c 0,12,13
 301 591 301 591 306 666 c 128,-1,14
 311 741 311 741 311 791 c 0,15,16
 311 830 311 830 313 831 c 1,17,18
 287 845 287 845 246 856.5 c 128,-1,19
 205 868 205 868 168 877 c 0,20,21
 140 884 140 884 113.5 892 c 128,-1,22
 87 900 87 900 65.5 910 c 128,-1,23
 44 920 44 920 31.5 932.5 c 128,-1,24
 19 945 19 945 19 962 c 0,25,26
 25 1005 25 1005 58.5 1068.5 c 128,-1,27
 92 1132 92 1132 166.5 1190.5 c 128,-1,28
 241 1249 241 1249 362 1290.5 c 128,-1,29
 483 1332 483 1332 663 1332 c 0,30,31
 677 1332 677 1332 695 1332 c 128,-1,32
 713 1332 713 1332 727 1330 c 0,33,34
 876 1320 876 1320 972 1271 c 128,-1,35
 1068 1222 1068 1222 1124 1131 c 128,-1,36
 1180 1040 1180 1040 1202 904 c 128,-1,37
 1224 768 1224 768 1224 582 c 0,38,39
 1224 502 1224 502 1222 413.5 c 128,-1,40
 1220 325 1220 325 1217 226 c 0,41,42
 1217 182 1217 182 1215 133.5 c 128,-1,43
 1213 85 1213 85 1213 39 c 1,44,45
 1189 9 1189 9 1164 10 c 128,-1,46
 1139 11 1139 11 1116 25 c 0,47,48
 1106 32 1106 32 1106 44 c 0,49,50
 1114 210 1114 210 1118.5 347.5 c 128,-1,51
 1123 485 1123 485 1123 598 c 0,52,53
 1123 773 1123 773 1106.5 892.5 c 128,-1,54
 1090 1012 1090 1012 1044.5 1086 c 128,-1,55
 999 1160 999 1160 921.5 1193 c 128,-1,56
 844 1226 844 1226 722 1229 c 0,57,58
 562 1233 562 1233 454.5 1205.5 c 128,-1,59
 347 1178 347 1178 280.5 1138 c 128,-1,60
 214 1098 214 1098 181.5 1056 c 128,-1,61
 149 1014 149 1014 140 987 c 1,62,-1
 386 914 l 1,63,64
 403 900 403 900 410 869 c 128,-1,65
 417 838 417 838 417 794 c 0,66,67
 417 748 417 748 413 686 c 128,-1,68
 409 624 409 624 403 557 c 0,69,70
 400 520 400 520 397 482 c 128,-1,71
 394 444 394 444 393 409 c 1,72,73
 444 433 444 433 506 430 c 0,74,75
 571 430 571 430 612 405 c 128,-1,76
 653 380 653 380 676 345.5 c 128,-1,77
 699 311 699 311 707 276 c 128,-1,78
 715 241 715 241 715 218 c 2,79,-1
 715 216 l 2,0,1
616 226 m 0,80,81
 614 276 614 276 577.5 308 c 128,-1,82
 541 340 541 340 492 340 c 0,83,84
 462 340 462 340 439.5 329 c 128,-1,85
 417 318 417 318 405 301 c 0,86,87
 377 258 377 258 377 218 c 0,88,89
 377 179 377 179 405 136 c 0,90,91
 428 99 428 99 492 99 c 0,92,93
 543 99 543 99 576.5 133.5 c 128,-1,94
 610 168 610 168 616 226 c 0,80,81
EndSplineSet
EndChar
StartChar: uni0E17
Encoding: 3607 3607 27
Width: 1469
VWidth: 3622
Flags: W
HStem: 815 107<256.907 435.341> 1071 20G<593 595.5> 1247 99<227.756 436.47>
VStem: 55 108<967.751 1079 1079 1128.94> 485 108<361 418.5 418.5 495.935 495.935 554.665 554.665 756.396 756.396 862.634 966.75 1089.68> 1206 110<20.9448 103.969 103.969 122.727 122.727 242.15 242.15 427.212 427.212 652.85 652.85 673.123 673.123 908.598>
Fore
488 1068 m 0,0,1
 488 1155 488 1155 440.5 1199 c 128,-1,2
 393 1243 393 1243 313 1247 c 0,3,4
 246 1247 246 1247 205 1201 c 0,5,6
 186 1174 186 1174 175 1144 c 128,-1,7
 164 1114 164 1114 163 1083 c 0,8,9
 161 1022 161 1022 196 966 c 1,10,11
 216 945 216 945 247 932.5 c 128,-1,12
 278 920 278 920 318 922 c 0,13,14
 384 925 384 925 437 962 c 0,15,16
 488 999 488 999 488 1068 c 0,0,1
631 25 m 1,17,18
 596 2 596 2 568 0 c 0,19,20
 552 -2 552 -2 536 1 c 128,-1,21
 520 4 520 4 507.5 14.5 c 128,-1,22
 495 25 495 25 488 45 c 128,-1,23
 481 65 481 65 485 99 c 2,24,-1
 492 863 l 1,25,26
 437 819 437 819 318 815 c 0,27,28
 193 814 193 814 122 897 c 0,29,30
 57 980 57 980 55 1079 c 0,31,32
 53 1130 53 1130 70.5 1175 c 128,-1,33
 88 1220 88 1220 119 1261 c 0,34,35
 154 1300 154 1300 202.5 1323 c 128,-1,36
 251 1346 251 1346 313 1346 c 0,37,38
 448 1346 448 1346 514 1279 c 128,-1,39
 580 1212 580 1212 593 1090 c 1,40,-1
 593 1091 l 1,41,42
 598 1049 598 1049 599.5 988 c 128,-1,43
 601 927 601 927 601 856 c 0,44,45
 601 761 601 761 599.5 656.5 c 128,-1,46
 598 552 598 552 594 453 c 0,47,48
 593 430 593 430 593 418.5 c 0,49,-1
 593 361 l 1,50,51
 621 520 621 520 661.5 665 c 128,-1,52
 702 810 702 810 750.5 929.5 c 128,-1,53
 799 1049 799 1049 856.5 1136.5 c 128,-1,54
 914 1224 914 1224 976 1268 c 0,55,56
 1006 1288 1006 1288 1037 1296.5 c 128,-1,57
 1068 1305 1068 1305 1093 1302 c 0,58,59
 1141 1295 1141 1295 1169 1284 c 0,60,61
 1217 1263 1217 1263 1247 1191.5 c 128,-1,62
 1277 1120 1277 1120 1294 1015.5 c 128,-1,63
 1311 911 1311 911 1317 783.5 c 128,-1,64
 1323 656 1323 656 1323 522 c 0,65,66
 1323 426 1323 426 1322 332.5 c 128,-1,67
 1321 239 1321 239 1318 152 c 0,68,69
 1316 122 1316 122 1316 93.5 c 128,-1,70
 1316 65 1316 65 1316 35 c 0,71,72
 1316 28 1316 28 1307 19 c 0,73,74
 1288 2 1288 2 1272 0 c 1,75,76
 1252 -5 1252 -5 1234.5 3.5 c 128,-1,77
 1217 12 1217 12 1210 46 c 1,78,79
 1206 103 1206 103 1206 162 c 128,-1,80
 1206 221 1206 221 1206 279 c 2,81,-1
 1206 577 l 2,82,83
 1206 677 1206 677 1203.5 769 c 128,-1,84
 1201 861 1201 861 1194 938 c 128,-1,85
 1187 1015 1187 1015 1172 1072.5 c 128,-1,86
 1157 1130 1157 1130 1134 1160 c 0,87,88
 1102 1201 1102 1201 1051 1185 c 1,89,-1
 1058 1187 l 1,90,91
 982 1130 982 1130 921 1020.5 c 128,-1,92
 860 911 860 911 809.5 761.5 c 128,-1,93
 759 612 759 612 718 427 c 128,-1,94
 677 242 677 242 642 39 c 1,95,-1
 631 25 l 1,17,18
EndSplineSet
EndChar
StartChar: uni0E18
Encoding: 3608 3608 28
Width: 1188
VWidth: 3622
Flags: W
HStem: 12 102<341.443 386.604 386.604 475.488 475.488 579.092 579.092 616.038 616.038 779.668 781.329 838> 782 101<244.101 303.684 303.684 311 311 500.5 500.5 667.996 667.996 771.185> 946 99<946.84 997.681> 1063 20G<999.5 1001> 1201 104<389.016 709.899>
VStem: 99 103<885.701 947.68> 228 115<117 643.559> 842 106<127 151.625 152.376 302.815 302.815 399.723 399.723 548.104 548.104 633.927 633.927 638.5 700.5 730.57> 1001 106<1045 1063.67 1063.67 1081 1081 1082.5 1083 1083.48 1083.52 1147.47>
Fore
840 456 m 0,0,1
 840 575 840 575 834 638.5 c 128,-1,2
 828 702 828 702 813 731.5 c 128,-1,3
 798 761 798 761 772 765 c 128,-1,4
 746 769 746 769 709 769 c 2,5,-1
 690 769 l 1,6,-1
 311 782 l 2,7,8
 255 784 255 784 217.5 787.5 c 128,-1,9
 180 791 180 791 157 796 c 0,10,11
 99 807 99 807 99 891 c 0,12,13
 99 950 99 950 128 1021.5 c 128,-1,14
 157 1093 157 1093 213 1156 c 128,-1,15
 269 1219 269 1219 350.5 1262 c 128,-1,16
 432 1305 432 1305 534 1305 c 0,17,18
 670 1305 670 1305 750.5 1262.5 c 128,-1,19
 831 1220 831 1220 876 1166 c 1,20,-1
 876 1167 l 1,21,22
 891 1151 891 1151 904.5 1131 c 128,-1,23
 918 1111 918 1111 930 1093 c 0,24,25
 945 1074 945 1074 954.5 1059.5 c 128,-1,26
 964 1045 964 1045 971 1045 c 0,27,28
 991 1045 991 1045 994.5 1056 c 128,-1,29
 998 1067 998 1067 1001 1083 c 1,30,-1
 1001 1081 l 1,31,32
 1001 1083 1001 1083 1002 1083.5 c 128,-1,33
 1003 1084 1003 1084 1003 1088 c 0,34,35
 1005 1148 1005 1148 1054 1148 c 0,36,37
 1106 1148 1106 1148 1107 1098 c 0,38,39
 1109 1070 1109 1070 1100 1042.5 c 128,-1,40
 1091 1015 1091 1015 1074.5 994 c 128,-1,41
 1058 973 1058 973 1032 959.5 c 128,-1,42
 1006 946 1006 946 975 946 c 0,43,44
 906 946 906 946 872 992 c 0,45,46
 858 1012 858 1012 841 1032 c 128,-1,47
 824 1052 824 1052 805 1077 c 0,48,49
 787 1100 787 1100 764 1120.5 c 128,-1,50
 741 1141 741 1141 709 1159 c 0,51,52
 651 1197 651 1197 534 1201 c 0,53,54
 458 1201 458 1201 397 1167.5 c 128,-1,55
 336 1134 336 1134 292.5 1086 c 128,-1,56
 249 1038 249 1038 225.5 987 c 128,-1,57
 202 936 202 936 202 902 c 0,58,59
 202 888 202 888 241.5 885.5 c 128,-1,60
 281 883 281 883 366 883 c 2,61,-1
 453 883 l 2,62,63
 513 883 513 883 586.5 883 c 128,-1,64
 660 883 660 883 750 881 c 0,65,66
 808 879 808 879 847 871 c 128,-1,67
 886 863 886 863 908 824 c 128,-1,68
 930 785 930 785 939 700.5 c 128,-1,69
 948 616 948 616 948 460 c 2,70,-1
 948 127 l 2,71,72
 952 94 952 94 939.5 71 c 128,-1,73
 927 48 927 48 909 35 c 0,74,75
 891 21 891 21 863 21 c 2,76,-1
 616 14 l 2,77,78
 582 12 582 12 542 12 c 128,-1,79
 502 12 502 12 471 12 c 2,80,-1
 410 12 l 2,81,82
 301 16 301 16 246 28 c 0,83,84
 228 32 228 32 228 50 c 2,85,-1
 232 600 l 1,86,87
 246 658 246 658 288 658 c 0,88,89
 306 658 306 658 323 644 c 128,-1,90
 340 630 340 630 343 601 c 2,91,-1
 341 117 l 1,92,93
 382 115 382 115 432.5 114 c 128,-1,94
 483 113 483 113 518 113 c 0,95,96
 633 113 633 113 713 119 c 0,97,98
 754 120 754 120 780.5 122 c 128,-1,99
 807 124 807 124 838 127 c 1,100,101
 840 140 840 140 841 152 c 128,-1,102
 842 164 842 164 842 179.5 c 128,-1,103
 842 195 842 195 842 214 c 128,-1,104
 842 233 842 233 842 262 c 0,105,106
 842 297 842 297 841 344 c 128,-1,107
 840 391 840 391 840 456 c 0,0,1
EndSplineSet
EndChar
StartChar: uni0E19
Encoding: 3609 3609 29
Width: 1641
VWidth: 3622
Flags: W
HStem: -18 98<1208.77 1392.14> 382 94<1229.61 1362.45> 769 101<190.684 382.256> 1205 93<224.722 431.259>
VStem: 53 99<978.938 1073.62> 482.5 104.5<140.713 171.996 171.996 250.3 250.3 382.365 382.365 518.123 518.123 598 598 602.758 602.758 676.181 676.181 724.031 724.031 765.542 765.542 813.633 878.23 1048.3 945.57 1044.18> 1060 104<148.08 325 462 515.277 515.277 617.331 617.331 654.167 654.167 845.223 845.223 1011.46 1011.46 1080.12 1080.12 1189.09 1189.09 1272> 1436 94<155.093 267.537 266.896 268.177 268.177 283>
Fore
493 85 m 2,0,1
 486 191 486 191 482.5 288.5 c 128,-1,2
 479 386 479 386 481 476 c 0,3,4
 481 522 481 522 482 560 c 128,-1,5
 483 598 483 598 483 636 c 128,-1,6
 483 674 483 674 484 716.5 c 128,-1,7
 485 759 485 759 486 815 c 1,8,9
 456 796 456 796 413 783.5 c 128,-1,10
 370 771 370 771 317 769 c 0,11,12
 187 768 187 768 120 851 c 0,13,14
 55 934 55 934 53 1031 c 0,15,16
 51 1083 51 1083 68 1128.5 c 128,-1,17
 85 1174 85 1174 115 1215 c 0,18,19
 149 1254 149 1254 198.5 1276 c 128,-1,20
 248 1298 248 1298 310 1298 c 0,21,22
 446 1298 446 1298 512 1231 c 128,-1,23
 578 1164 578 1164 587 1045 c 0,24,25
 589 1019 589 1019 590 977.5 c 128,-1,26
 591 936 591 936 591 886 c 256,27,28
 591 837 591 837 590 781 c 128,-1,29
 589 725 589 725 589 667 c 0,30,31
 587 603 587 603 587 538.5 c 128,-1,32
 587 474 587 474 587 412 c 256,33,34
 587 350 587 350 587 297 c 128,-1,35
 587 244 587 244 586 204 c 128,-1,36
 585 164 585 164 584.5 140.5 c 128,-1,37
 584 117 584 117 582 115 c 1,38,39
 683 170 683 170 796 264 c 0,40,41
 906 352 906 352 1060 437 c 1,42,43
 1063 670 1063 670 1064 848 c 128,-1,44
 1065 1026 1065 1026 1065 1174 c 2,45,-1
 1065 1272 l 1,46,47
 1091 1343 1091 1343 1141 1309 c 0,48,49
 1182 1282 1182 1282 1174 1240 c 1,50,51
 1174 1192 1174 1192 1172.5 1138 c 128,-1,52
 1171 1084 1171 1084 1169 1022 c 0,53,54
 1164 868 1164 868 1164 667 c 0,55,56
 1164 612 1164 612 1163 568 c 128,-1,57
 1162 524 1162 524 1164 462 c 1,58,59
 1199 471 1199 471 1228.5 473.5 c 128,-1,60
 1258 476 1258 476 1282 476 c 0,61,62
 1366 476 1366 476 1415.5 446.5 c 128,-1,63
 1465 417 1465 417 1490.5 377.5 c 128,-1,64
 1516 338 1516 338 1523 298 c 128,-1,65
 1530 258 1530 258 1530 239 c 0,66,67
 1530 209 1530 209 1520.5 165.5 c 128,-1,68
 1511 122 1511 122 1483.5 81.5 c 128,-1,69
 1456 41 1456 41 1409 11.5 c 128,-1,70
 1362 -18 1362 -18 1288 -18 c 0,71,72
 1171 -18 1171 -18 1116 76 c 128,-1,73
 1061 170 1061 170 1060 325 c 1,74,75
 976 274 976 274 918 230 c 128,-1,76
 860 186 860 186 808 147 c 0,77,78
 762 113 762 113 719.5 81.5 c 128,-1,79
 677 50 677 50 624 18 c 0,80,81
 608 9 608 9 593 7 c 128,-1,82
 578 5 578 5 568 7 c 0,83,84
 543 12 543 12 522.5 26.5 c 128,-1,85
 502 41 502 41 493 81 c 1,86,-1
 493 85 l 2,0,1
486 1022 m 0,87,88
 486 1107 486 1107 438.5 1154 c 128,-1,89
 391 1201 391 1201 311 1205 c 0,90,91
 241 1205 241 1205 200 1155 c 0,92,93
 177 1128 177 1128 166.5 1098 c 128,-1,94
 156 1068 156 1068 152 1038 c 256,95,96
 149 1008 149 1008 156.5 978 c 128,-1,97
 164 948 164 948 184 923 c 0,98,99
 223 870 223 870 317 870 c 0,100,101
 380 870 380 870 435 914 c 0,102,103
 486 957 486 957 486 1022 c 0,87,88
1162 364 m 1,104,105
 1162 361 1162 361 1161 357.5 c 128,-1,106
 1160 354 1160 354 1160 350 c 1,107,-1
 1150 345 l 1,108,-1
 1162 364 l 1,104,105
1282 382 m 0,109,110
 1231 382 1231 382 1160 350 c 1,111,112
 1157 212 1157 212 1194 146 c 128,-1,113
 1231 80 1231 80 1288 80 c 0,114,115
 1360 80 1360 80 1397 131 c 0,116,117
 1436 186 1436 186 1436 239 c 0,118,119
 1436 258 1436 258 1427.5 283 c 128,-1,120
 1419 308 1419 308 1400 330 c 128,-1,121
 1381 352 1381 352 1352 367 c 128,-1,122
 1323 382 1323 382 1282 382 c 0,109,110
EndSplineSet
EndChar
StartChar: uni0E1A
Encoding: 3610 3610 30
Width: 1542
VWidth: 3622
Flags: W
HStem: -5 113<683 706.119 706.119 742.581 742.581 885.281 885.281 906.839 906.839 1038.1 1038.1 1100 1100 1142.99 1142.99 1143.49 1143.49 1254.94> 796 101<342.105 466.055> 1055 20G<1360 1361.29> 1229 94<346.102 530.37>
VStem: 584.5 108.5<111 159 159 251.262 251.262 425.854 425.854 467.926 467.926 568.458 568.458 683.577 683.577 782.886 782.886 789.181 789.181 842 1004.22 1068.55> 1245 108<784.283 982 982 1113.83 1113.83 1275.46> 1272 113<140.27 205 205 231.877 231.877 313.566 313.566 530.399 530.399 557.739 557.739 651 700 848.717> 1360 6<982 1074>
Fore
693 722 m 0,0,1
 693 474 693 474 683 111 c 1,2,3
 702 108 702 108 729.5 108 c 128,-1,4
 757 108 757 108 794 108 c 0,5,6
 902 108 902 108 975.5 106 c 128,-1,7
 1049 104 1049 104 1100 103.5 c 128,-1,8
 1151 103 1151 103 1186.5 104.5 c 128,-1,9
 1222 106 1222 106 1256 111 c 0,10,11
 1277 115 1277 115 1274.5 139.5 c 128,-1,12
 1272 164 1272 164 1272 205 c 0,13,14
 1272 292 1272 292 1267.5 423.5 c 128,-1,15
 1263 555 1263 555 1259 700 c 0,16,17
 1254 851 1254 851 1249.5 991.5 c 128,-1,18
 1245 1132 1245 1132 1245 1235 c 0,19,20
 1242 1268 1242 1268 1258.5 1289.5 c 128,-1,21
 1275 1311 1275 1311 1297 1311 c 256,22,23
 1318 1311 1318 1311 1335.5 1292.5 c 128,-1,24
 1353 1274 1353 1274 1353 1233 c 2,25,-1
 1360 1074 l 1,26,-1
 1360 1075 l 1,27,-1
 1366 982 l 1,28,-1
 1378 651 l 2,29,30
 1385 501 1385 501 1386 355.5 c 128,-1,31
 1387 210 1387 210 1385 62 c 0,32,33
 1387 14 1387 14 1330 0 c 1,34,35
 1136 -2 1136 -2 1011 -3 c 128,-1,36
 886 -4 886 -4 804 -4.5 c 128,-1,37
 722 -5 722 -5 672.5 -5 c 128,-1,38
 623 -5 623 -5 580 -5 c 0,39,40
 577 -5 577 -5 575 6.5 c 128,-1,41
 573 18 573 18 573 54 c 128,-1,42
 573 90 573 90 575 159 c 128,-1,43
 577 228 577 228 578 345 c 0,44,45
 580 437 580 437 582 506 c 128,-1,46
 584 575 584 575 584.5 630.5 c 128,-1,47
 585 686 585 686 586 736.5 c 128,-1,48
 587 787 587 787 587 842 c 1,49,50
 559 817 559 817 517.5 807.5 c 128,-1,51
 476 798 476 798 417 796 c 0,52,53
 356 794 356 794 307 814.5 c 128,-1,54
 258 835 258 835 223.5 870.5 c 128,-1,55
 189 906 189 906 170.5 954.5 c 128,-1,56
 152 1003 152 1003 150 1058 c 0,57,58
 149 1111 149 1111 168 1158.5 c 128,-1,59
 187 1206 187 1206 221.5 1243.5 c 128,-1,60
 256 1281 256 1281 304 1302 c 128,-1,61
 352 1323 352 1323 409 1323 c 0,62,63
 670 1323 670 1323 686 1070 c 0,64,65
 690 1024 690 1024 691.5 934.5 c 128,-1,66
 693 845 693 845 693 722 c 0,0,1
584 1047 m 0,67,68
 584 1132 584 1132 538.5 1181.5 c 128,-1,69
 493 1231 493 1231 412 1229 c 0,70,71
 338 1228 338 1228 298 1179 c 128,-1,72
 258 1130 258 1130 249 1063 c 0,73,74
 242 985 242 985 287.5 941 c 128,-1,75
 333 897 333 897 417 897 c 0,76,77
 448 897 448 897 477 907.5 c 128,-1,78
 506 918 506 918 530 938.5 c 128,-1,79
 554 959 554 959 569 986.5 c 128,-1,80
 584 1014 584 1014 584 1047 c 0,67,68
EndSplineSet
EndChar
StartChar: uni0E1B
Encoding: 3611 3611 31
Width: 1434
VWidth: 3622
Flags: W
HStem: 2 107<583.219 641.596 641.596 783.515 783.515 805.081 805.081 840.546 840.546 907.419 907.419 969.696 969.696 1009.39 1009.39 1101.48 1101.48 1173> 796 101<240.772 364.41> 1229 94<253.399 432.616>
VStem: 51 99<987.279 1058 1058 1113.53> 485.5 107.5<111 345 345 425.854 425.854 483.973 483.973 568.458 568.458 683.577 683.577 782.886 782.886 789.181 789.181 842 1004.22 1028.55 1028.55 1174.7> 1128 119<1341 1608.67 1608.67 1683.55 1683.55 1788.47 1788.47 1813.58 1813.58 1906.02> 1155 108<644.778 1046.5 1046.5 1153.5 1153.5 1248 1341 1500> 1173 111<113 133.206 133.206 203.115 203.115 333.077 333.077 523.869 523.869 640.5 640.5 694.805>
Fore
593 722 m 0,0,1
 593 474 593 474 582 111 c 1,2,3
 621 110 621 110 702.5 109 c 128,-1,4
 784 108 784 108 909 108 c 0,5,6
 968 108 968 108 1030.5 109 c 128,-1,7
 1093 110 1093 110 1173 113 c 1,8,-1
 1173 196 l 2,9,10
 1173 304 1173 304 1167 472 c 2,11,-1
 1155 845 l 2,12,13
 1148 1054 1148 1054 1142 1248 c 128,-1,14
 1136 1442 1136 1442 1128 1608 c 0,15,16
 1125 1693 1125 1693 1124 1758.5 c 128,-1,17
 1123 1824 1123 1824 1123 1868 c 1,18,19
 1134 1912 1134 1912 1185 1909 c 0,20,21
 1238 1905 1238 1905 1238 1859 c 0,22,23
 1238 1811 1238 1811 1240.5 1716.5 c 128,-1,24
 1243 1622 1243 1622 1247 1500 c 2,25,-1
 1252 1341 l 1,26,-1
 1263 966 l 2,27,28
 1266 777 1266 777 1270 640.5 c 128,-1,29
 1274 504 1274 504 1276.5 408.5 c 128,-1,30
 1279 313 1279 313 1280.5 252 c 128,-1,31
 1282 191 1282 191 1283 155 c 128,-1,32
 1284 119 1284 119 1284 99.5 c 128,-1,33
 1284 80 1284 80 1284 67 c 0,34,35
 1286 41 1286 41 1274.5 24 c 128,-1,36
 1263 7 1263 7 1231 0 c 0,37,38
 1226 -2 1226 -2 1186 -1 c 128,-1,39
 1146 0 1146 0 1072 2 c 256,40,41
 998 4 998 4 947.5 4.5 c 128,-1,42
 897 5 897 5 868 5 c 0,43,44
 842 5 842 5 813 4.5 c 128,-1,45
 784 4 784 4 754 2 c 0,46,47
 658 2 658 2 598 2 c 128,-1,48
 538 2 538 2 492 11 c 1,49,50
 472 9 472 9 479 345 c 0,51,52
 481 437 481 437 483 506 c 128,-1,53
 485 575 485 575 485.5 630.5 c 128,-1,54
 486 686 486 686 487 736.5 c 128,-1,55
 488 787 488 787 488 842 c 1,56,57
 458 817 458 817 415.5 807.5 c 128,-1,58
 373 798 373 798 315 796 c 0,59,60
 255 794 255 794 205.5 814.5 c 128,-1,61
 156 835 156 835 121.5 870.5 c 128,-1,62
 87 906 87 906 68.5 953.5 c 128,-1,63
 50 1001 50 1001 51 1058 c 0,64,65
 53 1116 53 1116 72.5 1164.5 c 128,-1,66
 92 1213 92 1213 124.5 1248.5 c 128,-1,67
 157 1284 157 1284 204 1303.5 c 128,-1,68
 251 1323 251 1323 308 1323 c 0,69,70
 575 1323 575 1323 585 1070 c 0,71,72
 589 1024 589 1024 591 934.5 c 128,-1,73
 593 845 593 845 593 722 c 0,0,1
485 1047 m 0,74,75
 485 1132 485 1132 438 1180.5 c 128,-1,76
 391 1229 391 1229 311 1229 c 0,77,78
 274 1229 274 1229 243 1214 c 128,-1,79
 212 1199 212 1199 191 1175 c 128,-1,80
 170 1151 170 1151 159.5 1121 c 128,-1,81
 149 1091 149 1091 150 1063 c 0,82,83
 152 987 152 987 186.5 942 c 128,-1,84
 221 897 221 897 315 897 c 0,85,86
 345 897 345 897 376 907.5 c 128,-1,87
 407 918 407 918 431 938.5 c 128,-1,88
 455 959 455 959 470 986.5 c 128,-1,89
 485 1014 485 1014 485 1047 c 0,74,75
EndSplineSet
EndChar
StartChar: uni0E1C
Encoding: 3612 3612 32
Width: 1268
VWidth: 3622
Flags: W
HStem: 4 125<938.05 1011.03> 817 94<396.296 406.454 406.454 530.712>
VStem: 154 113<151.009 342.992 342.992 387.773 387.773 623.692 623.692 631.485 631.485 793.789 793.789 861 1017.39 1135.48> 1008 115<131.74 235.689 235.689 299 299 348.877 348.877 456.877 456.877 580.392 580.392 718.392 718.392 906.846 906.846 1147.39 1147.39 1157.54 1157.54 1301.1>
Fore
154 522 m 0,0,1
 154 614 154 614 153 726 c 128,-1,2
 152 838 152 838 150 982 c 0,3,4
 138 1151 138 1151 203.5 1239.5 c 128,-1,5
 269 1328 269 1328 402 1339 c 0,6,7
 456 1343 456 1343 506.5 1327 c 128,-1,8
 557 1311 557 1311 594 1279 c 128,-1,9
 631 1247 631 1247 654 1200 c 128,-1,10
 677 1153 677 1153 681 1098 c 0,11,12
 686 975 686 975 621.5 894.5 c 128,-1,13
 557 814 557 814 444 805 c 0,14,15
 421 803 421 803 395.5 806.5 c 128,-1,16
 370 810 370 810 345 817 c 128,-1,17
 320 824 320 824 299 835.5 c 128,-1,18
 278 847 278 847 262 861 c 1,19,-1
 265 700 l 2,20,21
 267 631 267 631 267 563 c 128,-1,22
 267 495 267 495 267 428 c 0,23,24
 267 327 267 327 268 259 c 128,-1,25
 269 191 269 191 265 149 c 1,26,27
 345 228 345 228 419 313 c 0,28,29
 460 366 460 366 500.5 443 c 128,-1,30
 541 520 541 520 577 610 c 1,31,32
 584 623 584 623 594.5 638.5 c 128,-1,33
 605 654 605 654 626 656 c 0,34,35
 649 658 649 658 665 648.5 c 128,-1,36
 681 639 681 639 688 603 c 1,37,-1
 686 605 l 1,38,39
 713 529 713 529 754.5 445 c 128,-1,40
 796 361 796 361 843 291 c 128,-1,41
 890 221 890 221 935 175 c 128,-1,42
 980 129 980 129 1015 129 c 1,43,44
 1012 129 1012 129 1011 173.5 c 128,-1,45
 1010 218 1010 218 1010 299 c 0,46,47
 1010 345 1010 345 1009 399 c 128,-1,48
 1008 453 1008 453 1008 515 c 256,49,50
 1008 577 1008 577 1007 646 c 128,-1,51
 1006 715 1006 715 1006 791 c 0,52,53
 1006 902 1006 902 1008 1023 c 128,-1,54
 1010 1144 1010 1144 1014 1272 c 1,55,56
 1021 1300 1021 1300 1035 1307 c 128,-1,57
 1049 1314 1049 1314 1075 1314 c 0,58,59
 1097 1314 1097 1314 1109 1301.5 c 128,-1,60
 1121 1289 1121 1289 1125 1258 c 0,61,62
 1123 1151 1123 1151 1123 1057.5 c 128,-1,63
 1123 964 1123 964 1123 877 c 0,64,65
 1123 541 1123 541 1123 346.5 c 128,-1,66
 1123 152 1123 152 1113 83 c 2,67,68
 1113 65 1113 65 1103 50 c 128,-1,69
 1093 35 1093 35 1079 24.5 c 128,-1,70
 1065 14 1065 14 1049 9 c 128,-1,71
 1033 4 1033 4 1022 4 c 0,72,73
 943 7 943 7 819 133 c 0,74,75
 762 191 762 191 718 262.5 c 128,-1,76
 674 334 674 334 631 440 c 1,77,78
 601 371 601 371 550 294.5 c 128,-1,79
 499 218 499 218 441.5 153 c 128,-1,80
 384 88 384 88 328 46 c 128,-1,81
 272 4 272 4 233 4 c 0,82,83
 203 4 203 4 187.5 23 c 128,-1,84
 172 42 172 42 164.5 98 c 128,-1,85
 157 154 157 154 155.5 255.5 c 128,-1,86
 154 357 154 357 154 522 c 0,0,1
267 1056 m 0,87,88
 269 1022 269 1022 284 993 c 128,-1,89
 299 964 299 964 323 943 c 128,-1,90
 347 922 347 922 376 911 c 128,-1,91
 405 900 405 900 437 904 c 0,92,93
 499 909 499 909 539.5 957.5 c 128,-1,94
 580 1006 580 1006 575 1086 c 0,95,96
 568 1166 568 1166 519.5 1202 c 128,-1,97
 471 1238 471 1238 409 1233 c 0,98,99
 329 1226 329 1226 293.5 1174.5 c 128,-1,100
 258 1123 258 1123 267 1056 c 0,87,88
EndSplineSet
EndChar
StartChar: uni0E1D
Encoding: 3613 3613 33
Width: 1278
VWidth: 3622
Flags: W
HStem: 816 95<376 401.718 401.718 406.454 406.454 531.645>
VStem: 154 114<133.588 176.446 176.446 345.416 345.416 430.589 388.002 616.529 557.485 675.573 675.573 763.369 763.369 858.573 1017.39 1135.48> 998.5 120.5<115.521 222 222 331.454 331.454 421.107 421.107 458 591.5 775.869> 1018 114<596.614 781.5 781.5 967.089 967.089 1111.88 1111.88 1342.79 1342.79 1388.43 1388.43 1578.4 1578.4 1706.7 1706.7 1914.4>
Fore
154 585 m 0,0,1
 154 670 154 670 153 766.5 c 128,-1,2
 152 863 152 863 150 982 c 0,3,4
 143 1137 143 1137 206 1232.5 c 128,-1,5
 269 1328 269 1328 402 1339 c 0,6,7
 456 1343 456 1343 505.5 1328.5 c 128,-1,8
 555 1314 555 1314 592.5 1283 c 128,-1,9
 630 1252 630 1252 653.5 1205.5 c 128,-1,10
 677 1159 677 1159 681 1098 c 128,-1,11
 685 1037 685 1037 669.5 984.5 c 128,-1,12
 654 932 654 932 622.5 894 c 128,-1,13
 591 856 591 856 546 832 c 128,-1,14
 501 808 501 808 444 805 c 0,15,16
 398 801 398 801 346.5 816 c 128,-1,17
 295 831 295 831 264 860 c 1,18,19
 267 775 267 775 268 666 c 128,-1,20
 269 557 269 557 271 449 c 0,21,22
 271 327 271 327 270 243 c 128,-1,23
 269 159 269 159 269 111 c 1,24,25
 352 175 352 175 427 300 c 128,-1,26
 502 425 502 425 573 610 c 0,27,28
 578 626 578 626 591.5 636 c 128,-1,29
 605 646 605 646 620 646 c 128,-1,30
 635 646 635 646 650 636 c 128,-1,31
 665 626 665 626 674 605 c 0,32,33
 693 559 693 559 723.5 505 c 128,-1,34
 754 451 754 451 788 397 c 128,-1,35
 822 343 822 343 856.5 292 c 128,-1,36
 891 241 891 241 919.5 201 c 128,-1,37
 948 161 948 161 966.5 137 c 128,-1,38
 985 113 985 113 987 113 c 1,39,40
 994 129 994 129 998.5 222 c 128,-1,41
 1003 315 1003 315 1006.5 458 c 128,-1,42
 1010 601 1010 601 1012 781.5 c 128,-1,43
 1014 962 1014 962 1015.5 1153 c 128,-1,44
 1017 1344 1017 1344 1018 1532.5 c 128,-1,45
 1019 1721 1019 1721 1021 1880 c 0,46,47
 1021 1917 1021 1917 1038.5 1929.5 c 128,-1,48
 1056 1942 1056 1942 1086 1939 c 1,49,-1
 1084 1940 l 1,50,51
 1114 1939 1114 1939 1123 1923 c 128,-1,52
 1132 1907 1132 1907 1134 1871 c 2,53,-1
 1132 1668 l 2,54,55
 1130 1583 1130 1583 1132 1488.5 c 128,-1,56
 1134 1394 1134 1394 1134 1288 c 0,57,58
 1134 1116 1134 1116 1133 935.5 c 128,-1,59
 1132 755 1132 755 1128.5 591.5 c 128,-1,60
 1125 428 1125 428 1119 294.5 c 128,-1,61
 1113 161 1113 161 1102 85 c 0,62,63
 1098 51 1098 51 1074.5 28 c 128,-1,64
 1051 5 1051 5 1019 4 c 0,65,66
 994 2 994 2 967.5 15 c 128,-1,67
 941 28 941 28 899.5 74 c 128,-1,68
 858 120 858 120 794.5 210.5 c 128,-1,69
 731 301 731 301 633 453 c 1,70,71
 596 373 596 373 546.5 291.5 c 128,-1,72
 497 210 497 210 444 145.5 c 128,-1,73
 391 81 391 81 337 40.5 c 128,-1,74
 283 0 283 0 237 0 c 0,75,76
 207 0 207 0 189.5 20.5 c 128,-1,77
 172 41 172 41 163 102 c 128,-1,78
 154 163 154 163 152 278.5 c 128,-1,79
 150 394 150 394 154 585 c 0,0,1
267 1056 m 0,80,81
 269 1022 269 1022 284 993 c 128,-1,82
 299 964 299 964 323 943 c 128,-1,83
 347 922 347 922 376 911 c 128,-1,84
 405 900 405 900 437 904 c 0,85,86
 499 909 499 909 539.5 957.5 c 128,-1,87
 580 1006 580 1006 575 1086 c 256,88,89
 570 1166 570 1166 520.5 1202 c 128,-1,90
 471 1238 471 1238 409 1233 c 0,91,92
 329 1226 329 1226 293.5 1174.5 c 128,-1,93
 258 1123 258 1123 267 1056 c 0,80,81
EndSplineSet
EndChar
StartChar: uni0E1E
Encoding: 3614 3614 34
Width: 1507
VWidth: 3622
Flags: W
HStem: 796 97<200.627 362.156> 1222 105<217.145 418.545>
VStem: 41 111<939.631 1153.25> 488 112<174.855 265.962 265.962 277.089 277.089 621.269 621.269 668.212 668.212 772.812 772.812 801.18 801.18 860> 1248 104<338.019 474 474 627.482 627.482 730.5 730.5 967.175 967.175 1057.12 1057.12 1277>
Fore
1206 7 m 2,0,1
 1155 7 1155 7 1121.5 51.5 c 128,-1,2
 1088 96 1088 96 1048 172.5 c 128,-1,3
 1008 249 1008 249 970 354.5 c 128,-1,4
 932 460 932 460 899 584 c 1,5,6
 868 458 868 458 825 352 c 128,-1,7
 782 246 782 246 736 169 c 128,-1,8
 690 92 690 92 645 49.5 c 128,-1,9
 600 7 600 7 568 7 c 0,10,11
 538 7 538 7 522 23 c 128,-1,12
 506 39 506 39 499 78 c 128,-1,13
 492 117 492 117 490 183 c 128,-1,14
 488 249 488 249 488 350 c 0,15,16
 488 402 488 402 488 450.5 c 128,-1,17
 488 499 488 499 488 556.5 c 128,-1,18
 488 614 488 614 486.5 686.5 c 128,-1,19
 485 759 485 759 481 860 c 1,20,21
 451 822 451 822 405 809 c 128,-1,22
 359 796 359 796 302 796 c 0,23,24
 191 796 191 796 115 870 c 0,25,26
 41 946 41 946 41 1061 c 0,27,28
 41 1118 41 1118 59.5 1166.5 c 128,-1,29
 78 1215 78 1215 111.5 1250.5 c 128,-1,30
 145 1286 145 1286 192 1306.5 c 128,-1,31
 239 1327 239 1327 295 1327 c 0,32,33
 444 1327 444 1327 513 1249 c 1,34,-1
 513 1251 l 1,35,36
 577 1178 577 1178 591 999 c 0,37,38
 594 946 594 946 596 881.5 c 128,-1,39
 598 817 598 817 598 741 c 0,40,41
 600 667 600 667 600 595.5 c 128,-1,42
 600 524 600 524 600 455 c 0,43,44
 600 387 600 387 600 329.5 c 128,-1,45
 600 272 600 272 601 225 c 2,46,-1
 601 173 l 1,47,-1
 631 223 l 2,48,49
 653 258 653 258 673 303 c 128,-1,50
 693 348 693 348 718 403 c 0,51,52
 739 456 739 456 758.5 513.5 c 128,-1,53
 778 571 778 571 793 627 c 128,-1,54
 808 683 808 683 819 735 c 128,-1,55
 830 787 830 787 835 830 c 0,56,57
 840 851 840 851 857 861.5 c 128,-1,58
 874 872 874 872 892.5 872 c 128,-1,59
 911 872 911 872 927 861.5 c 128,-1,60
 943 851 943 851 948 830 c 0,61,62
 957 787 957 787 970 736 c 128,-1,63
 983 685 983 685 999 623 c 0,64,65
 1015 562 1015 562 1032 503 c 128,-1,66
 1049 444 1049 444 1068 387 c 0,67,68
 1084 340 1084 340 1104.5 291 c 128,-1,69
 1125 242 1125 242 1148 200 c 0,70,71
 1182 133 1182 133 1199 133 c 0,72,73
 1213 133 1213 133 1223 225 c 128,-1,74
 1233 317 1233 317 1239 474 c 128,-1,75
 1245 631 1245 631 1248 838 c 128,-1,76
 1251 1045 1251 1045 1251 1277 c 1,77,78
 1256 1291 1256 1291 1271 1299 c 128,-1,79
 1286 1307 1286 1307 1303 1307 c 128,-1,80
 1320 1307 1320 1307 1335.5 1301 c 128,-1,81
 1351 1295 1351 1295 1360 1281 c 1,82,83
 1358 968 1358 968 1352 730.5 c 128,-1,84
 1346 493 1346 493 1330 333 c 128,-1,85
 1314 173 1314 173 1294 92 c 128,-1,86
 1274 11 1274 11 1208 7 c 2,87,-1
 1206 7 l 2,0,1
462 1060 m 0,88,89
 460 1123 460 1123 423.5 1172.5 c 128,-1,90
 387 1222 387 1222 306 1222 c 0,91,92
 244 1222 244 1222 198 1180.5 c 128,-1,93
 152 1139 152 1139 152 1061 c 0,94,95
 152 978 152 978 200 935.5 c 128,-1,96
 248 893 248 893 310 893 c 0,97,98
 341 893 341 893 367.5 906.5 c 128,-1,99
 394 920 394 920 414.5 942 c 128,-1,100
 435 964 435 964 447.5 994 c 128,-1,101
 460 1024 460 1024 462 1060 c 0,88,89
EndSplineSet
EndChar
StartChar: uni0E1F
Encoding: 3615 3615 35
Width: 1499
VWidth: 3622
Flags: W
HStem: 11 21G<564.5 598 1229 1256.5> 801 103<224.842 388.677> 1233 106<213.694 364.699>
VStem: 39 106<985.416 1163.59> 456 135<951.444 978.452 978.452 1122.78> 485 110<234.441 400.727 400.727 449.231 449.231 532.212 532.212 585 585 675.212 675.212 748.908 748.908 810.252 810.252 826.996 826.996 872> 1206 135.5<246.742 264.416 264.416 335.5 483 517.925 1504.5 1917> 1209.5 111.5<144.679 332.712 1800.95 1924> 1229 121<547.739 669.512 669.512 840.158 840.158 843.327 843.327 1127.76 1127.76 1157.24 1157.24 1380.64 1380.64 1392.85 1392.85 1504.5 1509 1605.22 1605.22 1655.96>
Fore
1229 11 m 2,0,1
 1182 5 1182 5 1133 54 c 128,-1,2
 1084 103 1084 103 1039 185 c 128,-1,3
 994 267 994 267 953.5 377.5 c 128,-1,4
 913 488 913 488 877 610 c 1,5,6
 851 485 851 485 813 376 c 128,-1,7
 775 267 775 267 735 185.5 c 128,-1,8
 695 104 695 104 654.5 57.5 c 128,-1,9
 614 11 614 11 582 11 c 0,10,11
 547 11 547 11 527.5 40 c 128,-1,12
 508 69 508 69 498 137 c 128,-1,13
 488 205 488 205 486.5 315 c 128,-1,14
 485 425 485 425 485 585 c 0,15,16
 485 624 485 624 485 654.5 c 0,17,-1
 485 715.5 l 0,18,19
 485 746 485 746 484 782.5 c 128,-1,20
 483 819 483 819 483 872 c 1,21,22
 451 837 451 837 404 819 c 128,-1,23
 357 801 357 801 306 801 c 0,24,25
 198 801 198 801 117 879 c 0,26,27
 39 960 39 960 39 1072 c 0,28,29
 39 1127 39 1127 57.5 1176.5 c 128,-1,30
 76 1226 76 1226 109.5 1261.5 c 128,-1,31
 143 1297 143 1297 192 1318 c 128,-1,32
 241 1339 241 1339 299 1339 c 0,33,34
 373 1339 373 1339 427 1321.5 c 128,-1,35
 481 1304 481 1304 515.5 1265 c 128,-1,36
 550 1226 550 1226 567.5 1163 c 128,-1,37
 585 1100 585 1100 591 1008 c 0,38,39
 593 953 593 953 593.5 888.5 c 128,-1,40
 594 824 594 824 594 748 c 0,41,42
 594 674 594 674 595 602.5 c 128,-1,43
 596 531 596 531 596 462 c 0,44,45
 598 400 598 400 600.5 339.5 c 128,-1,46
 603 279 603 279 607 233 c 0,47,48
 610 200 610 200 610 179.5 c 128,-1,49
 610 159 610 159 608 159 c 1,50,51
 612 159 612 159 640 225 c 0,52,53
 660 267 660 267 677.5 315 c 128,-1,54
 695 363 695 363 713 414 c 256,55,56
 731 465 731 465 746.5 522.5 c 128,-1,57
 762 580 762 580 778 647 c 0,58,59
 794 709 794 709 803 760.5 c 128,-1,60
 812 812 812 812 815 854 c 0,61,62
 821 883 821 883 837.5 897 c 128,-1,63
 854 911 854 911 873.5 911 c 128,-1,64
 893 911 893 911 910 897.5 c 128,-1,65
 927 884 927 884 932 860 c 0,66,67
 937 819 937 819 949.5 767 c 128,-1,68
 962 715 962 715 980 651 c 1,69,-1
 978 653 l 1,70,71
 998 591 998 591 1016.5 531 c 128,-1,72
 1035 471 1035 471 1058 412 c 0,73,74
 1077 359 1077 359 1098.5 308.5 c 128,-1,75
 1120 258 1120 258 1144 214 c 1,76,-1
 1143 214 l 1,77,78
 1182 143 1182 143 1203 143 c 0,79,80
 1206 143 1206 143 1209.5 194.5 c 128,-1,81
 1213 246 1213 246 1216.5 335.5 c 128,-1,82
 1220 425 1220 425 1223 543.5 c 128,-1,83
 1226 662 1226 662 1229 796 c 0,84,85
 1231 853 1231 853 1231 883.5 c 0,86,-1
 1231 1038 l 0,87,88
 1231 1157 1231 1157 1229.5 1276.5 c 128,-1,89
 1228 1396 1228 1396 1225 1509 c 128,-1,90
 1222 1622 1222 1622 1217 1725.5 c 128,-1,91
 1212 1829 1212 1829 1206 1917 c 0,92,93
 1206 1981 1206 1981 1261 1972 c 0,94,95
 1307 1963 1307 1963 1312 1924 c 0,96,97
 1323 1838 1323 1838 1330 1731 c 128,-1,98
 1337 1624 1337 1624 1341.5 1504.5 c 128,-1,99
 1346 1385 1346 1385 1348.5 1256.5 c 128,-1,100
 1351 1128 1351 1128 1351 999 c 0,101,-1
 1351 914.5 l 0,102,103
 1351 830 1351 830 1350 773 c 0,104,105
 1348 619 1348 619 1339 483 c 128,-1,106
 1330 347 1330 347 1321 243.5 c 128,-1,107
 1312 140 1312 140 1297 76 c 128,-1,108
 1282 12 1282 12 1231 11 c 2,109,-1
 1229 11 l 2,0,1
456 1070 m 0,110,111
 456 1102 456 1102 446.5 1131 c 128,-1,112
 437 1160 437 1160 418.5 1182.5 c 128,-1,113
 400 1205 400 1205 371.5 1219 c 128,-1,114
 343 1233 343 1233 302 1233 c 0,115,116
 237 1233 237 1233 191 1191.5 c 128,-1,117
 145 1150 145 1150 145 1072 c 0,118,119
 145 1031 145 1031 158.5 999.5 c 128,-1,120
 172 968 172 968 195 946.5 c 128,-1,121
 218 925 218 925 246 914.5 c 128,-1,122
 274 904 274 904 306 904 c 0,123,124
 368 904 368 904 410.5 950 c 128,-1,125
 453 996 453 996 456 1070 c 0,110,111
EndSplineSet
EndChar
StartChar: uni0E20
Encoding: 3616 3616 36
Width: 1386
VWidth: 3622
Flags: W
HStem: 333 93<196.938 306.934> 1240 103<503.842 950.833>
VStem: 359 117<170.363 254.074> 380 108<386 476.308 476.308 481.727 481.727 642.546 642.546 667.062 667.062 748.123 748.123 832.875> 1123 110<37 192.823 192.823 446.881 446.881 481.369 481.369 592.85 592.85 612 612.846 764.48 764.48 793.911 793.911 1008.12>
Fore
373 387 m 2,0,1
 375 386 l 1,2,3
 380 486 380 486 380 566 c 0,4,5
 380 601 380 601 380 635 c 128,-1,6
 380 669 380 669 377 699 c 0,7,8
 370 830 370 830 363 833 c 1,9,-1
 364 833 l 1,10,11
 338 847 338 847 300 858.5 c 128,-1,12
 262 870 262 870 223 879 c 0,13,14
 168 893 168 893 127.5 909 c 128,-1,15
 87 925 87 925 87 960 c 0,16,17
 90 1005 90 1005 124.5 1072 c 128,-1,18
 159 1139 159 1139 238 1201 c 128,-1,19
 317 1263 317 1263 447 1305.5 c 128,-1,20
 577 1348 577 1348 773 1343 c 0,21,22
 877 1339 877 1339 954 1316 c 128,-1,23
 1031 1293 1031 1293 1081 1256 c 0,24,25
 1180 1176 1180 1176 1212 1010 c 0,26,27
 1224 950 1224 950 1229.5 874.5 c 128,-1,28
 1235 799 1235 799 1235 713 c 0,29,30
 1235 676 l 0,31,32
 1235 639 1235 639 1233 612 c 1,33,-1
 1233 614 l 1,34,35
 1229 493 1229 493 1226.5 348 c 128,-1,36
 1224 203 1224 203 1224 37 c 1,37,38
 1201 7 1201 7 1178 7 c 256,39,40
 1155 7 1155 7 1137 18 c 1,41,-1
 1143 16 l 1,42,-1
 1127 23 l 2,43,44
 1113 30 1113 30 1113 42 c 2,45,-1
 1120 370 l 2,46,47
 1121 451 1121 451 1122 523.5 c 128,-1,48
 1123 596 1123 596 1123 662 c 0,49,50
 1123 810 1123 810 1110.5 919.5 c 128,-1,51
 1098 1029 1098 1029 1060 1100 c 128,-1,52
 1022 1171 1022 1171 953 1205.5 c 128,-1,53
 884 1240 884 1240 771 1240 c 0,54,55
 607 1240 607 1240 500.5 1211 c 128,-1,56
 394 1182 394 1182 332.5 1141 c 128,-1,57
 271 1100 271 1100 242.5 1057 c 128,-1,58
 214 1014 214 1014 207 987 c 1,59,60
 264 968 264 968 326.5 951 c 128,-1,61
 389 934 389 934 446 914 c 0,62,63
 471 904 471 904 479 798 c 0,64,65
 483 752 483 752 484.5 698 c 128,-1,66
 486 644 486 644 488 587 c 2,67,-1
 488 524 l 2,68,69
 488 481 488 481 487 439.5 c 128,-1,70
 486 398 486 398 485 357 c 0,71,72
 483 318 483 318 480.5 274 c 128,-1,73
 478 230 478 230 476 189 c 0,74,75
 472 131 472 131 442 93 c 128,-1,76
 412 55 412 55 372.5 33 c 128,-1,77
 333 11 333 11 291 3.5 c 128,-1,78
 249 -4 249 -4 223 0 c 1,79,-1
 225 0 l 1,80,81
 122 9 122 9 70 71.5 c 128,-1,82
 18 134 18 134 25 226 c 0,83,84
 25 251 25 251 35.5 286.5 c 128,-1,85
 46 322 46 322 71.5 354 c 128,-1,86
 97 386 97 386 140.5 407 c 128,-1,87
 184 428 184 428 248 426 c 0,88,89
 294 426 294 426 324 415.5 c 128,-1,90
 354 405 354 405 373 387 c 2,0,1
122 230 m 0,91,92
 119 173 119 173 150.5 136 c 128,-1,93
 182 99 182 99 232 92 c 0,94,95
 294 87 294 87 322 120 c 0,96,97
 340 142 340 142 348 160.5 c 128,-1,98
 356 179 356 179 359 198 c 0,99,100
 364 235 364 235 340 283 c 0,101,102
 317 325 317 325 256 333 c 0,103,104
 205 338 205 338 166 309.5 c 128,-1,105
 127 281 127 281 122 230 c 0,91,92
EndSplineSet
EndChar
StartChar: uni0E21
Encoding: 3617 3617 37
Width: 1282
VWidth: 3622
Flags: W
HStem: -18 91<280.441 459.122> 387 94<223.701 370.777 369.131 372.423 372.423 409 414.5 490.626> 775 93<255.927 458.218> 1212 90<267.363 454.772>
VStem: 83 96<173.244 275.934> 499 101<201.281 305.729 449 613.864> 508 115<886.091 1156.59> 1033 97<121.911 255.027 255.027 392.212 392.212 449 449 562.089 562.089 990.031 990.031 1032.31 1032.31 1142.46 1142.46 1157.64 1157.64 1238.59>
Fore
508 336 m 1,0,-1
 497 341 l 1,1,-1
 497 356 l 1,2,-1
 508 336 l 1,0,-1
499 299 m 0,3,4
 499 310 499 310 498 319.5 c 128,-1,5
 497 329 497 329 497 341 c 1,6,7
 456 366 456 366 414.5 376.5 c 128,-1,8
 373 387 373 387 338 387 c 0,9,10
 265 387 265 387 220 344 c 128,-1,11
 175 301 175 301 179 221 c 0,12,13
 179 193 179 193 188.5 165.5 c 128,-1,14
 198 138 198 138 219.5 116 c 128,-1,15
 241 94 241 94 276 81.5 c 128,-1,16
 311 69 311 69 363 73 c 0,17,18
 440 80 440 80 469.5 132 c 128,-1,19
 499 184 499 184 499 299 c 0,3,4
508 817 m 1,20,21
 448 778 448 778 341 775 c 0,22,23
 274 771 274 771 225.5 792.5 c 128,-1,24
 177 814 177 814 142 854 c 0,25,26
 76 941 76 941 74 1037 c 0,27,28
 73 1086 73 1086 90.5 1131 c 128,-1,29
 108 1176 108 1176 138 1219 c 0,30,31
 173 1258 173 1258 222 1280 c 128,-1,32
 271 1302 271 1302 333 1302 c 0,33,34
 467 1302 467 1302 542 1231 c 128,-1,35
 617 1160 617 1160 623 1042 c 2,36,-1
 600 421 l 1,37,38
 667 375 667 375 721 331.5 c 128,-1,39
 775 288 775 288 826 248 c 0,40,41
 872 210 872 210 928.5 169.5 c 128,-1,42
 985 129 985 129 1044 88 c 1,43,44
 1040 92 1040 92 1037.5 121 c 128,-1,45
 1035 150 1035 150 1033 199 c 128,-1,46
 1031 248 1031 248 1031 311.5 c 128,-1,47
 1031 375 1031 375 1031 449 c 0,48,49
 1031 557 1031 557 1030 675.5 c 128,-1,50
 1029 794 1029 794 1028 906 c 0,51,52
 1026 991 1026 991 1025 1074 c 128,-1,53
 1024 1157 1024 1157 1024 1210 c 0,54,55
 1022 1233 1022 1233 1038 1245.5 c 128,-1,56
 1054 1258 1054 1258 1075.5 1258 c 128,-1,57
 1097 1258 1097 1258 1111 1250 c 128,-1,58
 1125 1242 1125 1242 1130 1213 c 0,59,60
 1136 1162 1136 1162 1134 1102 c 128,-1,61
 1132 1042 1132 1042 1132 962 c 2,62,-1
 1132 637 l 2,63,64
 1132 552 1132 552 1132 471.5 c 128,-1,65
 1132 391 1132 391 1130 313 c 2,66,-1
 1125 64 l 1,67,68
 1116 23 1116 23 1095 9 c 128,-1,69
 1074 -5 1074 -5 1052 -11 c 0,70,71
 1040 -12 1040 -12 1024 -10.5 c 128,-1,72
 1008 -9 1008 -9 989 0 c 1,73,74
 934 37 934 37 882 79.5 c 128,-1,75
 830 122 830 122 785 157 c 0,76,77
 761 179 761 179 739.5 196.5 c 128,-1,78
 718 214 718 214 697 231 c 128,-1,79
 676 248 676 248 653 266.5 c 128,-1,80
 630 285 630 285 600 306 c 1,81,82
 600 230 600 230 587.5 170.5 c 128,-1,83
 575 111 575 111 548.5 70.5 c 128,-1,84
 522 30 522 30 477 8 c 128,-1,85
 432 -14 432 -14 366 -18 c 0,86,87
 292 -21 292 -21 240.5 -1.5 c 128,-1,88
 189 18 189 18 155.5 51.5 c 128,-1,89
 122 85 122 85 105 129 c 128,-1,90
 88 173 88 173 83 219 c 0,91,92
 83 258 83 258 98 304 c 128,-1,93
 113 350 113 350 145 390 c 128,-1,94
 177 430 177 430 224.5 455.5 c 128,-1,95
 272 481 272 481 336 481 c 0,96,97
 370 481 370 481 409 474 c 128,-1,98
 448 467 448 467 492 449 c 1,99,-1
 508 817 l 1,20,21
515 1026 m 0,100,101
 515 1111 515 1111 464.5 1159.5 c 128,-1,102
 414 1208 414 1208 334 1212 c 0,103,104
 265 1217 265 1217 221 1164 c 0,105,106
 179 1107 179 1107 173 1042 c 256,107,108
 168 976 168 976 207 922 c 0,109,110
 244 868 244 868 341 868 c 0,111,112
 403 868 403 868 460 914 c 0,113,114
 515 957 515 957 515 1026 c 0,100,101
EndSplineSet
EndChar
StartChar: uni0E22
Encoding: 3618 3618 38
Width: 1261
VWidth: 3622
Flags: W
HStem: 0 92<517.975 717.294> 580 101<357 431.062 431.062 499.312> 840 96<340.058 512.356> 1247 99<298.165 531.633>
VStem: 157 96<230.536 488.427 985.286 1152.53> 161.5 82.5<748.58 785 826 857.837 857.837 862.221 862.221 915.103> 571 99<1004.05 1175.13> 1017 103<238.789 384 384 1199.86 1199.86 1345.5>
Fore
157 340 m 0,0,1
 161 451 161 451 185.5 518 c 128,-1,2
 210 585 210 585 258 630 c 1,3,4
 218 647 218 647 195.5 689.5 c 128,-1,5
 173 732 173 732 161.5 785 c 128,-1,6
 150 838 150 838 147.5 895.5 c 128,-1,7
 145 953 145 953 145 1005 c 0,8,9
 145 1052 145 1052 154 1111.5 c 128,-1,10
 163 1171 163 1171 192 1223 c 128,-1,11
 221 1275 221 1275 277 1310.5 c 128,-1,12
 333 1346 333 1346 425 1346 c 0,13,14
 490 1344 490 1344 537.5 1322 c 128,-1,15
 585 1300 585 1300 616 1261 c 0,16,17
 640 1222 640 1222 655 1179.5 c 128,-1,18
 670 1137 670 1137 670 1093 c 0,19,20
 670 1042 670 1042 654.5 996 c 128,-1,21
 639 950 639 950 608 915.5 c 128,-1,22
 577 881 577 881 532.5 860.5 c 128,-1,23
 488 840 488 840 432 840 c 0,24,25
 317 840 317 840 235 916 c 1,26,27
 237 870 237 870 244 826 c 128,-1,28
 251 782 251 782 269.5 747.5 c 128,-1,29
 288 713 288 713 321 694.5 c 128,-1,30
 354 676 354 676 407 681 c 2,31,32
 433 677 433 677 455 681 c 2,33,34
 478 681 478 681 500 684.5 c 128,-1,35
 522 688 522 688 541 693 c 0,36,37
 561 700 561 700 568 681 c 0,38,39
 580 653 580 653 573 630.5 c 128,-1,40
 566 608 566 608 545 598 c 0,41,42
 525 587 525 587 502 587 c 2,43,-1
 357 580 l 1,44,45
 329 557 329 557 308 534 c 128,-1,46
 287 511 287 511 276 490 c 1,47,-1
 278 490 l 1,48,49
 253 440 253 440 253 347 c 0,50,51
 253 278 253 278 290 229 c 128,-1,52
 327 180 327 180 381 149.5 c 128,-1,53
 435 119 435 119 498 105.5 c 128,-1,54
 561 92 561 92 612 92 c 0,55,56
 676 92 676 92 747.5 103.5 c 128,-1,57
 819 115 819 115 879 147.5 c 128,-1,58
 939 180 939 180 978 237 c 128,-1,59
 1017 294 1017 294 1017 384 c 2,60,-1
 1017 837 l 2,61,62
 1017 978 1017 978 1017 1098.5 c 128,-1,63
 1017 1219 1017 1219 1014 1300 c 0,64,65
 1014 1346 1014 1346 1065 1346 c 0,66,67
 1120 1346 1120 1346 1120 1304 c 2,68,-1
 1120 386 l 2,69,70
 1116 269 1116 269 1073.5 194.5 c 128,-1,71
 1031 120 1031 120 958.5 77 c 128,-1,72
 886 34 886 34 789.5 17 c 128,-1,73
 693 0 693 0 580 0 c 0,74,75
 520 0 520 0 445 19.5 c 128,-1,76
 370 39 370 39 305.5 80.5 c 128,-1,77
 241 122 241 122 197.5 185.5 c 128,-1,78
 154 249 154 249 157 340 c 0,0,1
253 1086 m 0,79,80
 255 1014 255 1014 311 975 c 0,81,82
 341 953 341 953 370.5 944.5 c 128,-1,83
 400 936 400 936 428 936 c 0,84,85
 495 936 495 936 533 980 c 128,-1,86
 571 1024 571 1024 571 1088 c 0,87,88
 571 1150 571 1150 534 1199 c 0,89,90
 499 1247 499 1247 423 1247 c 0,91,92
 345 1247 345 1247 301.5 1210 c 128,-1,93
 258 1173 258 1173 253 1086 c 0,79,80
EndSplineSet
EndChar
StartChar: uni0E23
Encoding: 3619 3619 39
Width: 1261
VWidth: 3622
Flags: W
HStem: 4 99<545.666 703.775> 357 101<540.067 689.607> 769 98<187.013 210.723 210.723 329.908 329.908 391.423 391.423 477.089 477.089 591.604 591.604 661.557> 934 87<948.857 1004.53> 1187 104<358.386 594.741>
VStem: 50 104<869.158 965.426> 384 104<163.401 325.793> 782 92<387 404.719 405.281 453.881 453.881 617.54 617.54 622.574 622.574 657 683.5 724.258> 1008 106<1029.5 1048.25 1048.25 1053.42 1053.42 1067 1067 1069.94 1070.06 1083>
Fore
867 244 m 2,0,1
 867 173 867 173 844 127 c 128,-1,2
 821 81 821 81 786.5 54 c 128,-1,3
 752 27 752 27 709.5 15.5 c 128,-1,4
 667 4 667 4 628 4 c 0,5,6
 573 4 573 4 528 25 c 128,-1,7
 483 46 483 46 451 79.5 c 128,-1,8
 419 113 419 113 401.5 154 c 128,-1,9
 384 195 384 195 384 235 c 0,10,11
 384 310 384 310 444 384 c 0,12,13
 474 417 474 417 518 437.5 c 128,-1,14
 562 458 562 458 614 458 c 0,15,16
 662 458 662 458 707 440.5 c 128,-1,17
 752 423 752 423 784 387 c 1,18,19
 784 396 784 396 783 405 c 128,-1,20
 782 414 782 414 782 423 c 0,21,22
 780 458 780 458 780 484.5 c 128,-1,23
 780 511 780 511 780 531 c 0,24,25
 780 610 780 610 770.5 657 c 128,-1,26
 761 704 761 704 735 729.5 c 128,-1,27
 709 755 709 755 663 762 c 128,-1,28
 617 769 617 769 547 769 c 2,29,-1
 260 766 l 2,30,31
 202 766 202 766 162 768.5 c 128,-1,32
 122 771 122 771 96.5 782.5 c 128,-1,33
 71 794 71 794 60.5 816 c 128,-1,34
 50 838 50 838 50 877 c 0,35,36
 50 934 50 934 82.5 1005.5 c 128,-1,37
 115 1077 115 1077 176 1141 c 128,-1,38
 237 1205 237 1205 321 1248 c 128,-1,39
 405 1291 405 1291 509 1291 c 0,40,41
 601 1291 601 1291 669.5 1270 c 128,-1,42
 738 1249 738 1249 786.5 1217 c 128,-1,43
 835 1185 835 1185 868.5 1148 c 128,-1,44
 902 1111 902 1111 927 1081 c 0,45,46
 943 1061 943 1061 956 1045 c 128,-1,47
 969 1029 969 1029 978 1029 c 0,48,49
 998 1029 998 1029 1001.5 1040 c 128,-1,50
 1005 1051 1005 1051 1008 1067 c 0,51,52
 1008 1068 1008 1068 1009 1070 c 128,-1,53
 1010 1072 1010 1072 1010 1075 c 0,54,55
 1012 1134 1012 1134 1061 1134 c 0,56,57
 1109 1134 1109 1134 1114 1083 c 0,58,59
 1116 1056 1116 1056 1107 1029.5 c 128,-1,60
 1098 1003 1098 1003 1081.5 981.5 c 128,-1,61
 1065 960 1065 960 1039.5 947 c 128,-1,62
 1014 934 1014 934 982 934 c 0,63,64
 927 934 927 934 897 959.5 c 128,-1,65
 867 985 867 985 833 1021 c 1,66,-1
 835 1021 l 1,67,-1
 799 1061 l 2,68,69
 778 1084 778 1084 752.5 1105.5 c 128,-1,70
 727 1127 727 1127 692.5 1144.5 c 128,-1,71
 658 1162 658 1162 613 1173.5 c 128,-1,72
 568 1185 568 1185 509 1187 c 0,73,74
 432 1187 432 1187 367 1153.5 c 128,-1,75
 302 1120 302 1120 254.5 1072 c 128,-1,76
 207 1024 207 1024 180.5 973 c 128,-1,77
 154 922 154 922 154 888 c 0,78,79
 154 874 154 874 186 869.5 c 128,-1,80
 218 865 218 865 302 865 c 0,81,82
 327 865 327 865 358 866 c 128,-1,83
 389 867 389 867 425 867 c 0,84,85
 472 867 472 867 529.5 867.5 c 128,-1,86
 587 868 587 868 654 868 c 0,87,88
 785 868 785 868 831 777 c 0,89,90
 851 736 851 736 862.5 683.5 c 128,-1,91
 874 631 874 631 874 573 c 2,92,-1
 867 244 l 2,0,1
617 103 m 0,93,94
 685 103 685 103 717.5 140 c 128,-1,95
 750 177 750 177 746 244 c 0,96,97
 743 287 743 287 707.5 322 c 128,-1,98
 672 357 672 357 617 357 c 0,99,100
 557 357 557 357 522.5 322 c 128,-1,101
 488 287 488 287 488 235 c 0,102,103
 488 179 488 179 522.5 141 c 128,-1,104
 557 103 557 103 617 103 c 0,93,94
EndSplineSet
EndChar
StartChar: uni0E24
Encoding: 3620 3620 40
Width: 1379
VWidth: 3622
Flags: W
HStem: 0 96<421.703 542.09> 336 90<436.922 565.418> 1231 103<437.306 700.877 700.877 728.34 729 900.593>
VStem: 262 104<125.525 265.688> 603 101<212 264.884> 1109 108<-699.875 -327 661.463 990.328> 1128 103<-495.377 -327 -327 -148.781 -148.781 -124.5 -124.5 88.5959 88.5959 179.127 179.127 319.758 319.758 651.034>
Fore
704 212 m 2,0,1
 699 133 699 133 642 69 c 0,2,3
 614 35 614 35 575 17.5 c 128,-1,4
 536 0 536 0 481 0 c 0,5,6
 455 -4 455 -4 417 8.5 c 128,-1,7
 379 21 379 21 344.5 47.5 c 128,-1,8
 310 74 310 74 286 115.5 c 128,-1,9
 262 157 262 157 262 214 c 0,10,11
 265 271 265 271 271.5 348.5 c 128,-1,12
 278 426 278 426 285 508 c 0,13,14
 287 527 287 527 289.5 551 c 128,-1,15
 292 575 292 575 294 594 c 2,16,-1
 308 768 l 2,17,18
 311 819 311 819 315 821 c 1,19,20
 290 837 290 837 249.5 847.5 c 128,-1,21
 209 858 209 858 170 868 c 0,22,23
 142 876 142 876 114.5 883.5 c 128,-1,24
 87 891 87 891 65.5 900 c 128,-1,25
 44 909 44 909 31.5 921.5 c 128,-1,26
 19 934 19 934 19 948 c 0,27,28
 19 991 19 991 58 1056 c 128,-1,29
 97 1121 97 1121 175 1183 c 128,-1,30
 253 1245 253 1245 369 1289.5 c 128,-1,31
 485 1334 485 1334 639 1334 c 0,32,33
 673.5 1334 l 0,34,35
 708 1334 708 1334 729 1330 c 1,36,-1
 727 1330 l 1,37,38
 886 1318 886 1318 985 1271 c 128,-1,39
 1084 1224 1084 1224 1139 1114.5 c 128,-1,40
 1194 1005 1194 1005 1212.5 815.5 c 128,-1,41
 1231 626 1231 626 1231 329 c 0,42,43
 1231 191 1231 191 1228.5 28.5 c 128,-1,44
 1226 -134 1226 -134 1222 -327 c 2,45,-1
 1217 -639 l 2,46,47
 1219 -702 1219 -702 1171 -700 c 1,48,-1
 1173 -700 l 1,49,50
 1113 -709 1113 -709 1109 -644 c 0,51,52
 1116 -357 1116 -357 1119.5 -124.5 c 128,-1,53
 1123 108 1123 108 1127 290 c 0,54,55
 1128 320 1128 320 1128 349.5 c 128,-1,56
 1128 379 1128 379 1128 407 c 0,57,58
 1128 547 1128 547 1120.5 658 c 128,-1,59
 1113 769 1113 769 1098 858 c 0,60,61
 1065 1056 1065 1056 976 1139 c 0,62,63
 886 1219 886 1219 713 1229 c 0,64,65
 697 1231 697 1231 689 1231 c 0,66,-1
 649 1231 l 0,67,68
 524 1231 524 1231 434.5 1202.5 c 128,-1,69
 345 1174 345 1174 285 1134.5 c 128,-1,70
 225 1095 225 1095 191 1051.5 c 128,-1,71
 157 1008 157 1008 143 980 c 1,72,-1
 389 904 l 1,73,74
 403 893 403 893 408.5 868.5 c 128,-1,75
 414 844 414 844 414 807 c 0,76,77
 414 762 414 762 409.5 704.5 c 128,-1,78
 405 647 405 647 398 584 c 0,79,80
 394 538 394 538 390 493.5 c 128,-1,81
 386 449 386 449 382 407 c 1,82,83
 426 432 426 432 497 426 c 0,84,85
 559 425 559 425 599.5 400 c 128,-1,86
 640 375 640 375 663 341.5 c 128,-1,87
 686 308 686 308 695 272.5 c 128,-1,88
 704 237 704 237 704 214 c 2,89,-1
 704 212 l 2,0,1
603 223 m 0,90,91
 601 272 601 272 566.5 304 c 128,-1,92
 532 336 532 336 481 336 c 0,93,94
 449 336 449 336 429 325.5 c 128,-1,95
 409 315 409 315 394 297 c 0,96,97
 366 255 366 255 366 214 c 256,98,99
 366 173 366 173 394 133 c 0,100,101
 417 96 417 96 481 96 c 0,102,103
 532 96 532 96 565 130 c 128,-1,104
 598 164 598 164 603 223 c 0,90,91
EndSplineSet
EndChar
StartChar: uni0E25
Encoding: 3621 3621 41
Width: 1438
VWidth: 3622
Flags: W
HStem: 0 99<417.69 586.981> 18 118<1156.6 1215.69> 343 105<420.224 593.78> 752 99<597.435 799.582> 1247 106<535.205 881.158>
VStem: 149 102<687.365 973.694> 262 97<133.554 202.396 202.396 311.026> 623 97<134.456 266.136> 1185 105<136.078 225.5 225.5 356.435 356.435 419 419 560.246 560.246 612.181 612.181 918.899>
Fore
341 50 m 0,0,1
 301 78 301 78 282.5 111.5 c 128,-1,2
 264 145 264 145 265 187 c 2,3,4
 262 207 262 207 262 217.5 c 0,5,-1
 262 271 l 0,6,7
 262 375 262 375 289.5 478.5 c 128,-1,8
 317 582 317 582 369 664 c 128,-1,9
 421 746 421 746 499 797.5 c 128,-1,10
 577 849 577 849 677 851 c 0,11,12
 748 851 748 851 804 824.5 c 128,-1,13
 860 798 860 798 904 753 c 128,-1,14
 948 708 948 708 982.5 650.5 c 128,-1,15
 1017 593 1017 593 1043.5 530 c 128,-1,16
 1070 467 1070 467 1089.5 404 c 128,-1,17
 1109 341 1109 341 1125 288 c 0,18,19
 1144 221 1144 221 1156.5 178.5 c 128,-1,20
 1169 136 1169 136 1178 136 c 0,21,22
 1182 136 1182 136 1183.5 225.5 c 128,-1,23
 1185 315 1185 315 1185 490 c 0,24,25
 1185 527 1185 527 1185 568.5 c 128,-1,26
 1185 610 1185 610 1183 656 c 0,27,28
 1180 824 1180 824 1135 935.5 c 128,-1,29
 1090 1047 1090 1047 1021 1114.5 c 128,-1,30
 952 1182 952 1182 870.5 1212 c 128,-1,31
 789 1242 789 1242 715 1247 c 0,32,33
 626 1245 626 1245 547.5 1218.5 c 128,-1,34
 469 1192 469 1192 407 1131 c 128,-1,35
 345 1070 345 1070 304.5 967.5 c 128,-1,36
 264 865 264 865 251 713 c 0,37,38
 246 669 246 669 196 663 c 0,39,40
 172 662 172 662 160.5 677 c 128,-1,41
 149 692 149 692 149 713 c 0,42,43
 161 899 161 899 214 1021.5 c 128,-1,44
 267 1144 267 1144 345 1217.5 c 128,-1,45
 423 1291 423 1291 517.5 1322 c 128,-1,46
 612 1353 612 1353 709 1353 c 256,47,48
 807 1353 807 1353 910.5 1319.5 c 128,-1,49
 1014 1286 1014 1286 1098 1206.5 c 128,-1,50
 1182 1127 1182 1127 1235.5 994 c 128,-1,51
 1289 861 1289 861 1289 665 c 0,52,53
 1289 642 1289 642 1289 605 c 128,-1,54
 1289 568 1289 568 1291 515 c 2,55,-1
 1291 458 l 2,56,57
 1291 419 1291 419 1290 380 c 0,58,-1
 1288 302 l 0,59,60
 1282 198 1282 198 1266 115 c 0,61,62
 1249 18 1249 18 1189 18 c 0,63,64
 1159 18 1159 18 1135 41 c 128,-1,65
 1111 64 1111 64 1089.5 103.5 c 128,-1,66
 1068 143 1068 143 1049.5 195.5 c 128,-1,67
 1031 248 1031 248 1012 306 c 0,68,69
 985 382 985 382 956 460.5 c 128,-1,70
 927 539 927 539 888 604 c 128,-1,71
 849 669 849 669 798.5 710.5 c 128,-1,72
 748 752 748 752 683 752 c 0,73,74
 658 752 658 752 614 737 c 128,-1,75
 570 722 570 722 522 684.5 c 128,-1,76
 474 647 474 647 433.5 582.5 c 128,-1,77
 393 518 393 518 375 417 c 1,78,79
 402 433 402 433 436.5 440.5 c 128,-1,80
 471 448 471 448 497 448 c 0,81,82
 557 448 557 448 599.5 424 c 128,-1,83
 642 400 642 400 668.5 365.5 c 128,-1,84
 695 331 695 331 707.5 292 c 128,-1,85
 720 253 720 253 720 225 c 0,86,87
 720 104 720 104 642 48 c 0,88,89
 570 0 570 0 497 0 c 0,90,91
 456 0 456 0 418 12.5 c 128,-1,92
 380 25 380 25 341 50 c 0,0,1
359 228 m 0,93,94
 359 166 359 166 397 132.5 c 128,-1,95
 435 99 435 99 497 99 c 0,96,97
 548 99 548 99 585 136 c 0,98,99
 623 179 623 179 623 228 c 0,100,101
 623 242 623 242 615 261.5 c 128,-1,102
 607 281 607 281 593 304 c 0,103,104
 564 343 564 343 493 343 c 0,105,106
 442 343 442 343 400.5 312 c 128,-1,107
 359 281 359 281 359 228 c 0,93,94
EndSplineSet
EndChar
StartChar: uni0E26
Encoding: 3622 3622 42
Width: 1376
VWidth: 3622
Flags: W
HStem: 336 90<192.581 303.688> 1240 103<536.134 965.82>
VStem: 380 96<386 428.185 428.185 476.308 476.308 528.758 528.758 642.546 642.546 667.062 667.062 748.123 748.123 832.875> 1118 110<-670 -446.458 -446.458 -413.973 -413.973 -303.819 -303.819 -255.758 -255.758 51.8424 51.8424 155.488 155.488 234.515 234.515 283.485 283.485 352.608 352.608 515.092 515.092 699.431 699.431 776.523>
Fore
373 387 m 2,0,1
 375 386 l 1,2,3
 380 486 380 486 380 566 c 0,4,5
 380 601 380 601 380 635 c 128,-1,6
 380 669 380 669 377 699 c 0,7,8
 370 830 370 830 363 833 c 1,9,-1
 364 833 l 1,10,11
 340 847 340 847 301 858.5 c 128,-1,12
 262 870 262 870 223 879 c 0,13,14
 166 893 166 893 128 910 c 128,-1,15
 90 927 90 927 90 960 c 0,16,17
 94 1005 94 1005 142.5 1072 c 128,-1,18
 191 1139 191 1139 278.5 1202 c 128,-1,19
 366 1265 366 1265 491 1306.5 c 128,-1,20
 616 1348 616 1348 775 1343 c 0,21,22
 916 1332 916 1332 1005.5 1280 c 128,-1,23
 1095 1228 1095 1228 1144.5 1130.5 c 128,-1,24
 1194 1033 1194 1033 1211.5 890.5 c 128,-1,25
 1229 748 1229 748 1229 555 c 0,26,27
 1229 492 1229 492 1229 424 c 128,-1,28
 1229 356 1229 356 1228 281 c 0,29,30
 1228 256 1228 256 1228 209.5 c 128,-1,31
 1228 163 1228 163 1227 101 c 128,-1,32
 1226 39 1226 39 1226 3.5 c 0,33,-1
 1226 -173 l 0,34,35
 1226 -256 1226 -256 1225 -338.5 c 128,-1,36
 1224 -421 1224 -421 1224 -489 c 128,-1,37
 1224 -557 1224 -557 1224 -605.5 c 128,-1,38
 1224 -654 1224 -654 1224 -670 c 1,39,40
 1199 -704 1199 -704 1178 -704 c 0,41,42
 1162 -704 1162 -704 1141 -692 c 1,43,-1
 1146 -693 l 1,44,-1
 1130 -686 l 2,45,46
 1116 -681 1116 -681 1116 -665 c 0,47,48
 1116 -654 1116 -654 1116 -613.5 c 128,-1,49
 1116 -573 1116 -573 1116 -513 c 128,-1,50
 1116 -453 1116 -453 1117 -379.5 c 128,-1,51
 1118 -306 1118 -306 1118 -228 c 2,52,-1
 1118 210 l 2,53,54
 1118 235 1118 235 1119 259 c 128,-1,55
 1120 283 1120 283 1120 308 c 0,56,57
 1121 382 1121 382 1122 450 c 128,-1,58
 1123 518 1123 518 1123 580 c 0,59,60
 1123 713 1123 713 1117 818 c 128,-1,61
 1111 923 1111 923 1090 1005 c 0,62,63
 1060 1125 1060 1125 985.5 1182.5 c 128,-1,64
 911 1240 911 1240 769 1240 c 0,65,66
 633 1240 633 1240 533 1211 c 128,-1,67
 433 1182 433 1182 365 1140 c 128,-1,68
 297 1098 297 1098 260 1056 c 128,-1,69
 223 1014 223 1014 212 987 c 1,70,71
 267 968 267 968 324.5 951 c 128,-1,72
 382 934 382 934 437 914 c 0,73,74
 465 902 465 902 471 798 c 0,75,76
 474 752 474 752 475 698 c 128,-1,77
 476 644 476 644 476 587 c 0,78,79
 476 529 476 529 474 470.5 c 128,-1,80
 472 412 472 412 469 356 c 2,81,-1
 458 189 l 2,82,83
 455 131 455 131 426.5 93 c 128,-1,84
 398 55 398 55 361.5 33 c 128,-1,85
 325 11 325 11 286.5 3.5 c 128,-1,86
 248 -4 248 -4 223 0 c 1,87,-1
 225 0 l 1,88,89
 122 9 122 9 70 71.5 c 128,-1,90
 18 134 18 134 25 226 c 0,91,92
 25 251 25 251 35.5 286.5 c 128,-1,93
 46 322 46 322 71.5 354 c 128,-1,94
 97 386 97 386 140.5 407 c 128,-1,95
 184 428 184 428 248 426 c 0,96,97
 294 426 294 426 324 415.5 c 128,-1,98
 354 405 354 405 373 387 c 2,0,1
119 233 m 0,99,100
 115 177 115 177 147 140 c 128,-1,101
 179 103 179 103 228 96 c 0,102,103
 290 90 290 90 318 124 c 0,104,105
 350 163 350 163 356 202 c 0,106,107
 361 239 361 239 336 287 c 0,108,109
 311 329 311 329 253 336 c 0,110,111
 202 341 202 341 163 313 c 128,-1,112
 124 285 124 285 119 233 c 0,99,100
EndSplineSet
EndChar
StartChar: uni0E27
Encoding: 3623 3623 43
Width: 1043
VWidth: 3622
Flags: W
HStem: -4 100<639.816 671.335 671.335 698.5> 336 97<604.993 715.805> 1265 101<363.296 634.895>
VStem: 23 104<918 1115.66> 796 99<389 676.031 676.031 682.092 682.092 775.062 775.062 889.7 889.7 897.661 897.661 1139.34>
Fore
895 209 m 2,0,1
 891 150 891 150 860.5 107.5 c 128,-1,2
 830 65 830 65 789 39.5 c 128,-1,3
 748 14 748 14 706.5 3.5 c 128,-1,4
 665 -7 665 -7 639 -4 c 1,5,-1
 640 -4 l 1,6,7
 536 5 536 5 482 69.5 c 128,-1,8
 428 134 428 134 432 225 c 0,9,10
 432 249 432 249 444 286.5 c 128,-1,11
 456 324 456 324 483.5 357.5 c 128,-1,12
 511 391 511 391 555.5 414 c 128,-1,13
 600 437 600 437 665 433 c 0,14,15
 706 432 706 432 737.5 418.5 c 128,-1,16
 769 405 769 405 789 389 c 1,17,-1
 796 633 l 2,18,19
 798 685 798 685 798.5 731 c 128,-1,20
 799 777 799 777 799 819 c 0,21,22
 799 925 799 925 788 1007.5 c 128,-1,23
 777 1090 777 1090 740.5 1146.5 c 128,-1,24
 704 1203 704 1203 637 1233 c 128,-1,25
 570 1263 570 1263 458 1265 c 0,26,27
 368 1266 368 1266 306 1243 c 128,-1,28
 244 1220 244 1220 207 1174 c 0,29,30
 133 1079 133 1079 127 922 c 0,31,32
 126 897 126 897 112.5 884.5 c 128,-1,33
 99 872 99 872 80 868 c 0,34,35
 28 860 28 860 23 918 c 0,36,37
 18 1132 18 1132 127.5 1249 c 128,-1,38
 237 1366 237 1366 451 1366 c 0,39,40
 603 1366 603 1366 692.5 1325 c 128,-1,41
 782 1284 782 1284 829 1210 c 128,-1,42
 876 1136 876 1136 889 1031.5 c 128,-1,43
 902 927 902 927 902 801 c 0,44,45
 902 761 902 761 902 719 c 128,-1,46
 902 677 902 677 900 633 c 2,47,-1
 895 209 l 2,0,1
534 233 m 0,48,49
 531 177 531 177 562.5 140 c 128,-1,50
 594 103 594 103 644 96 c 0,51,52
 674 92 674 92 698.5 101 c 128,-1,53
 723 110 723 110 739 126 c 0,54,55
 775 168 775 168 782 202 c 0,56,57
 787 241 787 241 757 285 c 0,58,59
 732 327 732 327 669 336 c 0,60,61
 617 343 617 343 578 314 c 128,-1,62
 539 285 539 285 534 233 c 0,48,49
EndSplineSet
EndChar
StartChar: uni0E28
Encoding: 3624 3624 44
Width: 1448
VWidth: 3622
Flags: W
HStem: 11 21G<143 167> 421 90<553.018 715.676> 755 92<533.768 679.342> 1243 103<508.799 863.172>
VStem: 78 102<126.639 185 185 248.754 248.754 404.923 404.923 454.365 454.365 522.181 522.181 565.427 565.427 838.032> 754 90<551.222 682.859> 1164 108<102.222 245.15 245.15 353.365 353.365 524.727 524.727 623.572 623.572 726 726 800.248> 1371 96.5<1464.94 1724.15 1723.55 1724.76 1724.76 1799.06 1799.06 1810.98 1810.98 1852>
Fore
1456 1852 m 1,0,1
 1465 1811 1465 1811 1467.5 1768 c 128,-1,2
 1470 1725 1470 1725 1470 1679 c 0,3,4
 1470 1587 1470 1587 1454 1493 c 128,-1,5
 1438 1399 1438 1399 1406 1309.5 c 128,-1,6
 1374 1220 1374 1220 1326.5 1139 c 128,-1,7
 1279 1058 1279 1058 1215 992 c 1,8,9
 1254 879 1254 879 1263 726 c 128,-1,10
 1272 573 1272 573 1272 407 c 0,11,12
 1272 357 1272 357 1271 299.5 c 128,-1,13
 1270 242 1270 242 1269 191 c 128,-1,14
 1268 140 1268 140 1265.5 101 c 128,-1,15
 1263 62 1263 62 1261 48 c 1,16,17
 1238 -12 1238 -12 1196 2 c 1,18,-1
 1197 0 l 1,19,20
 1183 5 1183 5 1171 18 c 0,21,22
 1169 19 1169 19 1166.5 24.5 c 128,-1,23
 1164 30 1164 30 1164 34 c 2,24,-1
 1167 430 l 2,25,26
 1167 524 1167 524 1163 619.5 c 128,-1,27
 1159 715 1159 715 1142 803 c 128,-1,28
 1125 891 1125 891 1092.5 969 c 128,-1,29
 1060 1047 1060 1047 1004 1105.5 c 128,-1,30
 948 1164 948 1164 866.5 1200 c 128,-1,31
 785 1236 785 1236 670 1243 c 0,32,33
 582 1240 582 1240 496 1193 c 128,-1,34
 410 1146 410 1146 343 1060.5 c 128,-1,35
 276 975 276 975 232.5 854.5 c 128,-1,36
 189 734 189 734 184 585 c 0,37,38
 184 571 184 571 183 545.5 c 128,-1,39
 182 520 182 520 182 499 c 0,40,41
 180 458 180 458 180 409.5 c 128,-1,42
 180 361 180 361 180 313 c 0,43,44
 180 241 180 241 178.5 185 c 128,-1,45
 177 129 177 129 172 126 c 1,46,47
 193 129 193 129 221 183 c 128,-1,48
 249 237 249 237 278.5 310.5 c 128,-1,49
 308 384 308 384 331 458 c 128,-1,50
 354 532 354 532 364 578 c 0,51,52
 396 711 396 711 457 781 c 128,-1,53
 518 851 518 851 628 847 c 0,54,55
 729 844 729 844 786.5 789 c 128,-1,56
 844 734 844 734 844 640 c 0,57,58
 844 554 844 554 784 488 c 0,59,60
 722 421 722 421 624 421 c 0,61,62
 603 421 603 421 575 427 c 128,-1,63
 547 433 547 433 515 444 c 0,64,65
 497 451 497 451 477.5 463.5 c 128,-1,66
 458 476 458 476 446 490 c 1,67,68
 402 347 402 347 363 254 c 128,-1,69
 324 161 324 161 288.5 107 c 128,-1,70
 253 53 253 53 218.5 32 c 128,-1,71
 184 11 184 11 150 11 c 0,72,73
 136 11 136 11 123 29.5 c 128,-1,74
 110 48 110 48 100 105.5 c 128,-1,75
 90 163 90 163 84 267 c 128,-1,76
 78 371 78 371 78 545 c 0,77,78
 78 929 78 929 237 1139 c 0,79,80
 398 1346 398 1346 670 1346 c 0,81,82
 782 1346 782 1346 865 1320.5 c 128,-1,83
 948 1295 948 1295 1007.5 1257 c 128,-1,84
 1067 1219 1067 1219 1105 1172 c 128,-1,85
 1143 1125 1143 1125 1166 1083 c 1,86,87
 1274 1210 1274 1210 1322.5 1358.5 c 128,-1,88
 1371 1507 1371 1507 1371 1684 c 0,89,90
 1371 1725 1371 1725 1367.5 1765.5 c 128,-1,91
 1364 1806 1364 1806 1358 1848 c 1,92,93
 1367 1891 1367 1891 1396.5 1892 c 128,-1,94
 1426 1893 1426 1893 1450 1863 c 1,95,-1
 1456 1852 l 1,0,1
492 640 m 0,96,97
 492 573 492 573 529 542 c 128,-1,98
 566 511 566 511 628 511 c 0,99,100
 679 511 679 511 714.5 550 c 128,-1,101
 750 589 750 589 754 642 c 0,102,103
 755 663 755 663 749 683.5 c 128,-1,104
 743 704 743 704 727 720 c 128,-1,105
 711 736 711 736 686.5 745.5 c 128,-1,106
 662 755 662 755 624 755 c 0,107,108
 573 755 573 755 532.5 724 c 128,-1,109
 492 693 492 693 492 640 c 0,96,97
EndSplineSet
EndChar
StartChar: uni0E29
Encoding: 3625 3625 45
Width: 1528
VWidth: 3622
Flags: W
HStem: 3.5 104.5<605.844 739.754 739.754 934.181 934.181 974.454 974.454 1096.39 1096.39 1108.98 1102.69 1222.68> 461 87.5<956.064 970.5 970.5 1054.54 1054.54 1070.24 1070.24 1168.48> 796 101<279.906 415.854> 819 95<844.167 923.461> 1229 94<270.225 456.686>
VStem: 510 107<111 273.091 273.091 568.458 568.458 583.338 583.338 789.181 789.181 840.495 947.897 1068.9> 711 96<657.919 796.958> 1171 104<861.5 904.423 904.423 920.235 920.235 1006.79 1006.79 1038.79 1038.79 1106.33 1106.33 1156.21 1156.21 1194.64 1194.64 1235 1238 1261.98> 1185 114.5<130.597 160.604 160.604 222.542 222.542 264.819 264.819 314.362 314.362 388.612 388.612 416.724 416.724 481.5 481.5 570 580.653 607.5 607.5 649> 1373 100<758.74 892.499>
Fore
1171 1238 m 1,0,-1
 1171 1235 l 1,1,-1
 1171 1238 l 1,0,-1
617 722 m 2,2,3
 616 594 616 594 613 444 c 128,-1,4
 610 294 610 294 605 111 c 1,5,6
 624 108 624 108 650.5 108 c 128,-1,7
 677 108 677 108 713 108 c 2,8,-1
 916 108 l 2,9,10
 973 108 973 108 1033 111.5 c 128,-1,11
 1093 115 1093 115 1160 111 c 0,12,13
 1176 111 1176 111 1180.5 130 c 128,-1,14
 1185 149 1185 149 1185 182.5 c 128,-1,15
 1185 216 1185 216 1182.5 263 c 128,-1,16
 1180 310 1180 310 1180 366 c 0,17,18
 1180 472 1180 472 1179 536 c 0,19,-1
 1174 854 l 0,20,21
 1174 902 1174 902 1173.5 955 c 128,-1,22
 1173 1008 1173 1008 1173 1058.5 c 128,-1,23
 1173 1109 1173 1109 1172 1154 c 128,-1,24
 1171 1199 1171 1199 1171 1235 c 0,25,26
 1169 1261 1169 1261 1185 1278 c 128,-1,27
 1201 1295 1201 1295 1221.5 1296 c 128,-1,28
 1242 1297 1242 1297 1258.5 1278 c 128,-1,29
 1275 1259 1275 1259 1275 1215 c 0,30,31
 1277 1155 1277 1155 1279.5 1097.5 c 128,-1,32
 1282 1040 1282 1040 1284 980 c 0,33,34
 1288 904 1288 904 1288.5 861.5 c 0,35,-1
 1293 649 l 0,36,37
 1295 570 1295 570 1296 481.5 c 128,-1,38
 1297 393 1297 393 1297 318 c 0,39,40
 1297 267 1297 267 1299.5 211.5 c 128,-1,41
 1302 156 1302 156 1298.5 110 c 128,-1,42
 1295 64 1295 64 1280 33 c 128,-1,43
 1265 2 1265 2 1229 2 c 0,44,45
 1141 4 1141 4 1036.5 3 c 128,-1,46
 932 2 932 2 832 2 c 128,-1,47
 732 2 732 2 648 3.5 c 128,-1,48
 564 5 564 5 515 11 c 0,49,50
 506 12 506 12 502.5 23 c 128,-1,51
 499 34 499 34 499 42 c 2,52,-1
 504 345 l 2,53,54
 506 437 506 437 507.5 506 c 128,-1,55
 509 575 509 575 510 630.5 c 128,-1,56
 511 686 511 686 512 736.5 c 128,-1,57
 513 787 513 787 513 842 c 1,58,59
 485 817 485 817 443.5 807.5 c 128,-1,60
 402 798 402 798 343 796 c 0,61,62
 209 794 209 794 145 876 c 0,63,64
 78 964 78 964 78 1058 c 0,65,66
 74 1153 74 1153 142 1238 c 0,67,68
 175 1277 175 1277 223.5 1300 c 128,-1,69
 272 1323 272 1323 334 1323 c 0,70,71
 467 1323 467 1323 534 1255 c 128,-1,72
 601 1187 601 1187 612 1070 c 0,73,74
 616 1035 616 1035 616.5 976.5 c 128,-1,75
 617 918 617 918 617 838 c 2,76,-1
 617 722 l 2,2,3
509 1047 m 0,77,78
 509 1132 509 1132 463 1179 c 128,-1,79
 417 1226 417 1226 338 1229 c 0,80,81
 267 1231 267 1231 223 1182 c 0,82,83
 202 1157 202 1157 190.5 1126 c 128,-1,84
 179 1095 179 1095 175 1063 c 0,85,86
 170 1001 170 1001 209 946 c 0,87,88
 226 922 226 922 261.5 909.5 c 128,-1,89
 297 897 297 897 343 897 c 0,90,91
 405 897 405 897 458 939 c 0,92,93
 509 980 509 980 509 1047 c 0,77,78
1077 748 m 0,94,95
 1081 692 1081 692 1049 642.5 c 128,-1,96
 1017 593 1017 593 955 568 c 1,97,98
 989 554 989 554 1029.5 548.5 c 128,-1,99
 1070 543 1070 543 1111 547 c 0,100,101
 1160 550 1160 550 1207 562.5 c 128,-1,102
 1254 575 1254 575 1291 607.5 c 128,-1,103
 1328 640 1328 640 1350.5 699.5 c 128,-1,104
 1373 759 1373 759 1373 856 c 1,105,106
 1369 877 1369 877 1379.5 893 c 128,-1,107
 1390 909 1390 909 1415 913 c 0,108,109
 1473 920 1473 920 1473 860 c 0,110,111
 1473 465 1473 465 1114 449 c 0,112,113
 1042 446 1042 446 970.5 461 c 128,-1,114
 899 476 899 476 841.5 512 c 128,-1,115
 784 548 784 548 747.5 604 c 128,-1,116
 711 660 711 660 711 739 c 0,117,118
 711 817 711 817 769 868 c 0,119,120
 796 888 796 888 824.5 900.5 c 128,-1,121
 853 913 853 913 881 914 c 0,122,123
 960 918 960 918 1014 868.5 c 128,-1,124
 1068 819 1068 819 1077 748 c 0,94,95
876 819 m 0,125,126
 845 819 845 819 826 798.5 c 128,-1,127
 807 778 807 778 807 739 c 0,128,129
 807 679 807 679 835 662 c 1,130,-1
 833 662 l 1,131,132
 868 642 868 642 883 642 c 0,133,134
 906 642 906 642 926 651 c 128,-1,135
 946 660 946 660 960.5 673 c 128,-1,136
 975 686 975 686 982 704 c 128,-1,137
 989 722 989 722 987 738 c 0,138,139
 983 784 983 784 949.5 801.5 c 128,-1,140
 916 819 916 819 876 819 c 0,125,126
EndSplineSet
EndChar
StartChar: uni0E2A
Encoding: 3626 3626 46
Width: 1538
VWidth: 3622
Flags: W
HStem: 0 104<482.558 610.827> 350 105<510.87 630.498> 755 103<662.769 854.656> 1258 100<643.719 896.263>
VStem: 168 108<730.77 950.792> 339.5 92.5<139.585 220.031 179.808 319.85> 686 96<192.528 267.816> 1229 107<275.654 327.331 327.331 453.577 453.577 553.365 553.365 779.497> 1479 104<1678.43 1842.59>
Fore
416 41 m 0,0,1
 387 58 387 58 372 83 c 128,-1,2
 357 108 357 108 349 135.5 c 128,-1,3
 341 163 341 163 339.5 192 c 128,-1,4
 338 221 338 221 338 248 c 0,5,6
 338 382 338 382 370 494.5 c 128,-1,7
 402 607 402 607 456.5 688 c 128,-1,8
 511 769 511 769 583.5 813.5 c 128,-1,9
 656 858 656 858 739 858 c 0,10,11
 840 858 840 858 911.5 801.5 c 128,-1,12
 983 745 983 745 1033 660 c 128,-1,13
 1083 575 1083 575 1115.5 477 c 128,-1,14
 1148 379 1148 379 1173 297 c 2,15,-1
 1222 138 l 1,16,17
 1224 174 l 2,18,19
 1226 210 1226 210 1227 266 c 128,-1,20
 1228 322 1228 322 1228.5 389 c 128,-1,21
 1229 456 1229 456 1229 518 c 2,22,-1
 1229 662 l 2,23,24
 1229 828 1229 828 1186.5 940 c 128,-1,25
 1144 1052 1144 1052 1078 1121 c 128,-1,26
 1012 1190 1012 1190 932.5 1221 c 128,-1,27
 853 1252 853 1252 778 1258 c 0,28,29
 695 1256 695 1256 613 1232 c 128,-1,30
 531 1208 531 1208 462 1151.5 c 128,-1,31
 393 1095 393 1095 343.5 1001 c 128,-1,32
 294 907 294 907 276 764 c 1,33,34
 269 739 269 739 252 730.5 c 128,-1,35
 235 722 235 722 221 722 c 0,36,37
 164 722 164 722 168 768 c 0,38,39
 173 939 173 939 232.5 1052.5 c 128,-1,40
 292 1166 292 1166 379.5 1234 c 128,-1,41
 467 1302 467 1302 570.5 1330 c 128,-1,42
 674 1358 674 1358 769 1358 c 0,43,44
 858 1358 858 1358 953.5 1332.5 c 128,-1,45
 1049 1307 1049 1307 1132 1240 c 1,46,47
 1206 1282 1206 1282 1263.5 1342.5 c 128,-1,48
 1321 1403 1321 1403 1363.5 1475.5 c 128,-1,49
 1406 1548 1406 1548 1434.5 1630 c 128,-1,50
 1463 1712 1463 1712 1479 1797 c 0,51,52
 1484 1832 1484 1832 1501.5 1850 c 128,-1,53
 1519 1868 1519 1868 1541 1868 c 0,54,55
 1594 1868 1594 1868 1583 1776 c 0,56,57
 1567 1687 1567 1687 1539 1598 c 128,-1,58
 1511 1509 1511 1509 1465.5 1427.5 c 128,-1,59
 1420 1346 1420 1346 1356.5 1276 c 128,-1,60
 1293 1206 1293 1206 1206 1159 c 1,61,62
 1233 1123 1233 1123 1257 1080.5 c 128,-1,63
 1281 1038 1281 1038 1302 964 c 0,64,65
 1311 932 1311 932 1319 850 c 128,-1,66
 1327 768 1327 768 1332 662.5 c 128,-1,67
 1337 557 1337 557 1336 444 c 128,-1,68
 1335 331 1335 331 1325.5 236.5 c 128,-1,69
 1316 142 1316 142 1295 80 c 128,-1,70
 1274 18 1274 18 1236 18 c 0,71,72
 1206 18 1206 18 1181.5 41.5 c 128,-1,73
 1157 65 1157 65 1135.5 106 c 128,-1,74
 1114 147 1114 147 1096.5 200 c 128,-1,75
 1079 253 1079 253 1061 310 c 0,76,77
 1037 380 1037 380 1007.5 459 c 128,-1,78
 978 538 978 538 940 603.5 c 128,-1,79
 902 669 902 669 854.5 712 c 128,-1,80
 807 755 807 755 746 755 c 0,81,82
 723 755 723 755 682.5 742 c 128,-1,83
 642 729 642 729 598 692.5 c 128,-1,84
 554 656 554 656 514 592.5 c 128,-1,85
 474 529 474 529 451 428 c 1,86,87
 479 442 479 442 509 447.5 c 128,-1,88
 539 453 539 453 564 455 c 0,89,90
 630 456 630 456 671.5 432.5 c 128,-1,91
 713 409 713 409 737 373.5 c 128,-1,92
 761 338 761 338 770.5 299 c 128,-1,93
 780 260 780 260 782 232 c 0,94,95
 784 177 784 177 769 133.5 c 128,-1,96
 754 90 754 90 723.5 61 c 128,-1,97
 693 32 693 32 652.5 16 c 128,-1,98
 612 0 612 0 564 0 c 0,99,100
 525 0 525 0 488 8 c 128,-1,101
 451 16 451 16 416 41 c 0,0,1
432 235 m 0,102,103
 432 173 432 173 469 138.5 c 128,-1,104
 506 104 506 104 564 104 c 0,105,106
 589 104 589 104 611 115 c 128,-1,107
 633 126 633 126 650 144.5 c 128,-1,108
 667 163 667 163 676.5 186 c 128,-1,109
 686 209 686 209 686 235 c 0,110,111
 686 265 686 265 656 311 c 0,112,113
 628 350 628 350 561 350 c 0,114,115
 509 350 509 350 470.5 319 c 128,-1,116
 432 288 432 288 432 235 c 0,102,103
EndSplineSet
EndChar
StartChar: uni0E2B
Encoding: 3627 3627 47
Width: 1452
VWidth: 3622
Flags: W
HStem: 745 99<231.162 408.141> 1219 101<286.732 401.395 963 1035.66> 1240 95<976.593 1150.17>
VStem: 768 99<1001.6 1116.46> 1116 101<10.4922 83.85 83.85 136.727 136.727 166.727 166.727 328.515 328.515 421.25> 1203 102<996.751 1140.83>
Fore
805 591 m 0,0,1
 840 647 840 647 872 696.5 c 128,-1,2
 904 746 904 746 934 791 c 1,3,4
 833 840 833 840 799 918 c 0,5,6
 768 998 768 998 768 1068 c 0,7,8
 768 1123 768 1123 785.5 1171.5 c 128,-1,9
 803 1220 803 1220 837.5 1256.5 c 128,-1,10
 872 1293 872 1293 924 1314 c 128,-1,11
 976 1335 976 1335 1044 1335 c 0,12,13
 1098 1332 1098 1332 1147 1312.5 c 128,-1,14
 1196 1293 1196 1293 1230.5 1260.5 c 128,-1,15
 1265 1228 1265 1228 1285 1181 c 128,-1,16
 1305 1134 1305 1134 1305 1075 c 0,17,18
 1305 1035 1305 1035 1296.5 988 c 128,-1,19
 1288 941 1288 941 1265.5 899.5 c 128,-1,20
 1243 858 1243 858 1204.5 827 c 128,-1,21
 1166 796 1166 796 1106 789 c 1,22,23
 1162 704 1162 704 1186 612 c 128,-1,24
 1210 520 1210 520 1217 424.5 c 128,-1,25
 1224 329 1224 329 1220.5 232.5 c 128,-1,26
 1217 136 1217 136 1217 41 c 0,27,28
 1213 14 1213 14 1197.5 1 c 128,-1,29
 1182 -12 1182 -12 1164 -12 c 128,-1,30
 1146 -12 1146 -12 1131 1 c 128,-1,31
 1116 14 1116 14 1116 41 c 0,32,33
 1118 87 1118 87 1116 126.5 c 128,-1,34
 1114 166 1114 166 1114 207 c 0,35,36
 1114 416 1114 416 1093 543 c 128,-1,37
 1072 670 1072 670 1021 722 c 1,38,39
 971 663 971 663 919 575.5 c 128,-1,40
 867 488 867 488 812 393 c 0,41,42
 775 329 775 329 737 267 c 128,-1,43
 699 205 699 205 663.5 153 c 128,-1,44
 628 101 628 101 594.5 63 c 128,-1,45
 561 25 561 25 532 9 c 0,46,47
 511 -2 511 -2 487 -5.5 c 128,-1,48
 463 -9 463 -9 442 -2.5 c 128,-1,49
 421 4 421 4 406 23 c 128,-1,50
 391 42 391 42 387 78 c 1,51,52
 398 173 398 173 407 245 c 128,-1,53
 416 317 416 317 424.5 375 c 128,-1,54
 433 433 433 433 441 482 c 128,-1,55
 449 531 449 531 458 577 c 0,56,57
 463 605 463 605 467.5 623.5 c 128,-1,58
 472 642 472 642 475.5 661.5 c 128,-1,59
 479 681 479 681 483.5 707.5 c 128,-1,60
 488 734 488 734 493 777 c 1,61,62
 453 754 453 754 409.5 749.5 c 128,-1,63
 366 745 366 745 325 745 c 0,64,65
 237 741 237 741 179.5 773 c 128,-1,66
 122 805 122 805 89.5 853.5 c 128,-1,67
 57 902 57 902 46 958 c 128,-1,68
 35 1014 35 1014 39 1058 c 0,69,70
 42 1097 42 1097 59 1144.5 c 128,-1,71
 76 1192 76 1192 113 1232 c 128,-1,72
 150 1272 150 1272 209.5 1297.5 c 128,-1,73
 269 1323 269 1323 357 1320 c 0,74,75
 398 1316 398 1316 444 1297.5 c 128,-1,76
 490 1279 490 1279 529 1242.5 c 128,-1,77
 568 1206 568 1206 594.5 1152 c 128,-1,78
 621 1098 621 1098 624 1026 c 0,79,80
 626 976 626 976 619 903.5 c 128,-1,81
 612 831 612 831 600.5 749 c 128,-1,82
 589 667 589 667 574 579.5 c 128,-1,83
 559 492 559 492 545 412 c 0,84,85
 525 311 525 311 512 227 c 128,-1,86
 499 143 499 143 495 108 c 1,87,88
 522 175 522 175 567 232.5 c 128,-1,89
 612 290 612 290 651 347 c 0,90,91
 690 407 690 407 728 469 c 128,-1,92
 766 531 766 531 805 591 c 0,0,1
329 844 m 0,93,94
 437 844 437 844 469 891 c 0,95,96
 506 950 506 950 513 1038 c 0,97,98
 513 1067 513 1067 503 1098.5 c 128,-1,99
 493 1130 493 1130 474.5 1156 c 128,-1,100
 456 1182 456 1182 428 1199.5 c 128,-1,101
 400 1217 400 1217 361 1219 c 0,102,103
 308 1220 308 1220 269 1207 c 128,-1,104
 230 1194 230 1194 205 1170 c 128,-1,105
 180 1146 180 1146 166 1116 c 128,-1,106
 152 1086 152 1086 149 1054 c 0,107,108
 145 1029 145 1029 149.5 993 c 128,-1,109
 154 957 154 957 173.5 924 c 128,-1,110
 193 891 193 891 230 867.5 c 128,-1,111
 267 844 267 844 329 844 c 0,93,94
867 1070 m 0,112,113
 865 1033 865 1033 874.5 999.5 c 128,-1,114
 884 966 884 966 903.5 940 c 128,-1,115
 923 914 923 914 949.5 899 c 128,-1,116
 976 884 976 884 1008 884 c 0,117,118
 1052 884 1052 884 1089.5 894 c 128,-1,119
 1127 904 1127 904 1153.5 926 c 128,-1,120
 1180 948 1180 948 1193 985 c 128,-1,121
 1206 1022 1206 1022 1203 1077 c 0,122,123
 1199 1144 1199 1144 1157.5 1192 c 128,-1,124
 1116 1240 1116 1240 1037 1240 c 0,125,126
 994 1240 994 1240 963 1226 c 128,-1,127
 932 1212 932 1212 911.5 1188 c 128,-1,128
 891 1164 891 1164 879.5 1133 c 128,-1,129
 868 1102 868 1102 867 1070 c 0,112,113
EndSplineSet
EndChar
StartChar: uni0E2C
Encoding: 3628 3628 48
Width: 1659
VWidth: 3622
Flags: W
HStem: 11 21G<564.5 599> 801 103<224.666 388.677> 1120 108<1046.86 1151.06> 1233 106<213.861 365.597> 1449 100<1035.55 1170.71>
VStem: 41 104<985.903 1163.85> 456 135<951.444 1125.54> 486 109<219.473 315 328 391.485 391.485 449.231 449.231 521.058 521.058 585 585 660.727 660.727 685 685 748.908 748.908 803.213 803.213 872> 893 108<1272.55 1395.72> 1243 107<334.29 425.018 425.018 665.9 665.9 668.723 668.723 885.185 885.185 1142.91>
Fore
1206 129 m 0,0,1
 1213 129 1213 129 1220.5 181 c 128,-1,2
 1228 233 1228 233 1233 323.5 c 128,-1,3
 1238 414 1238 414 1240.5 537 c 128,-1,4
 1243 660 1243 660 1243 801 c 0,5,6
 1243 891 1243 891 1242.5 969 c 128,-1,7
 1242 1047 1242 1047 1236 1146 c 1,8,9
 1196 1132 1196 1132 1164 1124 c 128,-1,10
 1132 1116 1132 1116 1102 1120 c 0,11,12
 1052 1120 1052 1120 1014 1139.5 c 128,-1,13
 976 1159 976 1159 949.5 1190.5 c 128,-1,14
 923 1222 923 1222 908 1262 c 128,-1,15
 893 1302 893 1302 893 1344 c 0,16,17
 893 1383 893 1383 908 1420 c 128,-1,18
 923 1457 923 1457 950.5 1484.5 c 128,-1,19
 978 1512 978 1512 1017 1530 c 128,-1,20
 1056 1548 1056 1548 1106 1549 c 0,21,22
 1169 1553 1169 1553 1212.5 1532.5 c 128,-1,23
 1256 1512 1256 1512 1281 1480 c 0,24,25
 1321 1426 1321 1426 1332 1381 c 1,26,27
 1355 1401 1355 1401 1373.5 1417 c 128,-1,28
 1392 1433 1392 1433 1406 1452 c 1,29,30
 1426 1470 1426 1470 1449 1468 c 128,-1,31
 1472 1466 1472 1466 1487.5 1453 c 128,-1,32
 1503 1440 1503 1440 1505 1418.5 c 128,-1,33
 1507 1397 1507 1397 1486 1376 c 1,34,-1
 1493 1383 l 1,35,36
 1479 1353 1479 1353 1449.5 1325.5 c 128,-1,37
 1420 1298 1420 1298 1389 1274 c 2,38,-1
 1350 1249 l 1,39,-1
 1350 838 l 2,40,41
 1350 647 1350 647 1346.5 495 c 128,-1,42
 1343 343 1343 343 1330.5 236 c 128,-1,43
 1318 129 1318 129 1294 70.5 c 128,-1,44
 1270 12 1270 12 1231 11 c 0,45,46
 1182 7 1182 7 1134 55 c 128,-1,47
 1086 103 1086 103 1041 185 c 128,-1,48
 996 267 996 267 955 377.5 c 128,-1,49
 914 488 914 488 879 610 c 1,50,51
 851 485 851 485 814 376 c 128,-1,52
 777 267 777 267 736 185.5 c 128,-1,53
 695 104 695 104 655.5 57.5 c 128,-1,54
 616 11 616 11 582 11 c 0,55,56
 547 11 547 11 528 40 c 128,-1,57
 509 69 509 69 499.5 137 c 128,-1,58
 490 205 490 205 488 315 c 128,-1,59
 486 425 486 425 486 585 c 0,60,61
 486 624 486 624 486 654.5 c 128,-1,62
 486 685 486 685 485.5 715.5 c 128,-1,63
 485 746 485 746 485 782.5 c 128,-1,64
 485 819 485 819 485 872 c 1,65,66
 451 837 451 837 404 819 c 128,-1,67
 357 801 357 801 306 801 c 0,68,69
 196 801 196 801 119 879 c 0,70,71
 41 962 41 962 41 1072 c 0,72,73
 41 1127 41 1127 59.5 1176.5 c 128,-1,74
 78 1226 78 1226 111.5 1261.5 c 128,-1,75
 145 1297 145 1297 193 1318 c 128,-1,76
 241 1339 241 1339 299 1339 c 0,77,78
 375 1339 375 1339 428 1322 c 128,-1,79
 481 1305 481 1305 515.5 1266.5 c 128,-1,80
 550 1228 550 1228 567.5 1164 c 128,-1,81
 585 1100 585 1100 591 1008 c 0,82,83
 593 950 593 950 593.5 879 c 128,-1,84
 594 808 594 808 594 734 c 128,-1,85
 594 660 594 660 595 587.5 c 128,-1,86
 596 515 596 515 598 455 c 0,87,88
 600 391 600 391 602.5 328 c 128,-1,89
 605 265 605 265 608 218 c 0,90,91
 614 147 614 147 612 142 c 1,92,93
 617 149 617 149 640 209 c 0,94,95
 660 255 660 255 678.5 303.5 c 128,-1,96
 697 352 697 352 713 407 c 0,97,98
 731 458 731 458 747.5 518 c 128,-1,99
 764 578 764 578 778 646 c 0,100,101
 792 706 792 706 803 758 c 128,-1,102
 814 810 814 810 817 854 c 1,103,104
 835 897 835 897 876 897 c 0,105,106
 900 897 900 897 911.5 881 c 128,-1,107
 923 865 923 865 932 849 c 1,108,109
 941 798 941 798 952.5 753 c 128,-1,110
 964 708 964 708 980 651 c 0,111,112
 999 589 999 589 1019.5 527 c 128,-1,113
 1040 465 1040 465 1061 407 c 0,114,115
 1105 301 l 0,116,117
 1127 248 1127 248 1148 203 c 0,118,119
 1189 129 1189 129 1206 129 c 0,0,1
456 1070 m 0,120,121
 456 1102 456 1102 447.5 1131 c 128,-1,122
 439 1160 439 1160 420.5 1182.5 c 128,-1,123
 402 1205 402 1205 372.5 1219 c 128,-1,124
 343 1233 343 1233 302 1233 c 0,125,126
 237 1233 237 1233 191 1192 c 128,-1,127
 145 1151 145 1151 145 1072 c 0,128,129
 145 1031 145 1031 158.5 999.5 c 128,-1,130
 172 968 172 968 195 946.5 c 128,-1,131
 218 925 218 925 246 914.5 c 128,-1,132
 274 904 274 904 306 904 c 0,133,134
 368 904 368 904 410.5 950 c 128,-1,135
 453 996 453 996 456 1070 c 0,120,121
1235 1327 m 0,136,137
 1235 1387 1235 1387 1194 1417 c 0,138,139
 1153 1449 1153 1449 1121 1449 c 0,140,141
 1068 1449 1068 1449 1034.5 1409 c 128,-1,142
 1001 1369 1001 1369 1001 1321 c 0,143,144
 1001 1286 1001 1286 1029.5 1257 c 128,-1,145
 1058 1228 1058 1228 1121 1228 c 0,146,147
 1136 1228 1136 1228 1154.5 1236.5 c 128,-1,148
 1173 1245 1173 1245 1192 1259 c 0,149,150
 1235 1291 1235 1291 1235 1327 c 0,136,137
EndSplineSet
Substitution2: "Single Substitution lookup 22 subtable" uni0E2C.alt1
Substitution2: "Single Substitution lookup 22 subtable" uni0E2C.alt1
EndChar
StartChar: uni0E2D
Encoding: 3629 3629 49
Width: 1282
VWidth: 3622
Flags: W
HStem: -7 110.5<384.849 603.392 603.392 661.266 632.329 876.159> 333 100<437.587 589.178> 729 104<419.937 582.938> 1236 110<477.331 796.496>
VStem: 159 108<242.59 365.212 365.212 441.218 817 969.655> 1031 108<247.081 729.354>
Fore
478 729 m 0,0,1
 449 731 449 731 419 723 c 128,-1,2
 389 715 389 715 365 697 c 128,-1,3
 341 679 341 679 325.5 652.5 c 128,-1,4
 310 626 310 626 310 591 c 0,5,6
 313 550 313 550 330 520 c 128,-1,7
 347 490 347 490 373.5 470.5 c 128,-1,8
 400 451 400 451 432.5 441.5 c 128,-1,9
 465 432 465 432 499 433 c 0,10,11
 564 437 564 437 590 470.5 c 128,-1,12
 616 504 616 504 619 555 c 0,13,14
 623 626 623 626 590 675.5 c 128,-1,15
 557 725 557 725 478 729 c 0,0,1
481 833 m 0,16,17
 548 831 548 831 595 805.5 c 128,-1,18
 642 780 642 780 671 740 c 128,-1,19
 700 700 700 700 713.5 650.5 c 128,-1,20
 727 601 727 601 725 552 c 0,21,22
 722 451 722 451 664.5 392 c 128,-1,23
 607 333 607 333 490 333 c 0,24,25
 417 333 417 333 359 359.5 c 128,-1,26
 301 386 301 386 271 442 c 1,27,28
 267 417 267 417 265.5 390.5 c 128,-1,29
 264 364 264 364 267 340 c 2,30,31
 260 251 260 251 292 202.5 c 128,-1,32
 324 154 324 154 383 131 c 128,-1,33
 442 108 442 108 521 103.5 c 128,-1,34
 600 99 600 99 686 99 c 0,35,36
 761 99 761 99 811 104.5 c 128,-1,37
 861 110 861 110 894 120.5 c 128,-1,38
 927 131 927 131 947.5 147 c 128,-1,39
 968 163 968 163 980 184 c 0,40,41
 1031 278 1031 278 1031 433 c 0,42,43
 1031 584 1031 584 1018 729 c 128,-1,44
 1005 874 1005 874 959.5 987 c 128,-1,45
 914 1100 914 1100 830 1169 c 128,-1,46
 746 1238 746 1238 605 1236 c 0,47,48
 534 1236 534 1236 475.5 1200 c 128,-1,49
 417 1164 417 1164 372 1105.5 c 128,-1,50
 327 1047 327 1047 298 972 c 128,-1,51
 269 897 269 897 256 817 c 1,52,53
 249 796 249 796 230.5 787 c 128,-1,54
 212 778 212 778 192.5 780 c 128,-1,55
 173 782 173 782 159 794.5 c 128,-1,56
 145 807 145 807 147 830 c 0,57,58
 186 1081 186 1081 301 1212 c 128,-1,59
 416 1343 416 1343 605 1346 c 0,60,61
 761 1350 761 1350 863.5 1286 c 128,-1,62
 966 1222 966 1222 1027 1102.5 c 128,-1,63
 1088 983 1088 983 1113.5 812.5 c 128,-1,64
 1139 642 1139 642 1139 433 c 0,65,66
 1139 343 1139 343 1127.5 262.5 c 128,-1,67
 1116 182 1116 182 1079 122 c 128,-1,68
 1042 62 1042 62 974.5 27.5 c 128,-1,69
 907 -7 907 -7 796 -7 c 0,70,71
 646 -7 646 -7 527.5 -1 c 128,-1,72
 409 5 409 5 327.5 39 c 128,-1,73
 246 73 246 73 202.5 144.5 c 128,-1,74
 159 216 159 216 159 348 c 0,75,76
 159 433 159 433 173 520 c 128,-1,77
 187 607 187 607 223.5 676.5 c 128,-1,78
 260 746 260 746 323 790.5 c 128,-1,79
 386 835 386 835 481 833 c 0,16,17
EndSplineSet
EndChar
StartChar: uni0E2E
Encoding: 3630 3630 50
Width: 1289
VWidth: 3622
Flags: W
HStem: 0 99<349.989 400.5 460.5 509.802 509.802 518.277 518.277 649.908 649.908 784 784 805.921> 336 90<353.237 552.837> 729 101<413.182 571> 867 104<403.383 554.699> 1268 108<400.68 650.137>
VStem: 150 99<260.017 370 370 450.893> 161 106<1062.39 1147.15> 1021 96<256.627 543.456 530.031 556.882 556.882 627 627 807.187>
Fore
290 1042 m 0,0,1
 315 1006 315 1006 364.5 988.5 c 128,-1,2
 414 971 414 971 476 971 c 0,3,4
 525 971 525 971 577.5 982.5 c 128,-1,5
 630 994 630 994 678.5 1017 c 128,-1,6
 727 1040 727 1040 768.5 1073.5 c 128,-1,7
 810 1107 810 1107 837 1151 c 1,8,9
 814 1173 814 1173 783 1189.5 c 128,-1,10
 752 1206 752 1206 709 1226 c 0,11,12
 614 1268 614 1268 516 1268 c 0,13,14
 458 1268 458 1268 411 1255 c 128,-1,15
 364 1242 364 1242 332.5 1219 c 128,-1,16
 301 1196 301 1196 284 1167.5 c 128,-1,17
 267 1139 267 1139 267 1109 c 0,18,19
 267 1075 267 1075 290 1042 c 0,0,1
467 729 m 0,20,21
 439 729 439 729 409.5 721 c 128,-1,22
 380 713 380 713 357 696 c 128,-1,23
 334 679 334 679 319 653.5 c 128,-1,24
 304 628 304 628 302 591 c 0,25,26
 310 511 310 511 353 468.5 c 128,-1,27
 396 426 396 426 467 426 c 0,28,29
 531 426 531 426 569 466 c 128,-1,30
 607 506 607 506 610 557 c 0,31,32
 614 631 614 631 576 680 c 128,-1,33
 538 729 538 729 467 729 c 0,20,21
991 810 m 0,34,35
 976 886 976 886 952.5 951.5 c 128,-1,36
 929 1017 929 1017 893 1068 c 1,37,38
 808 957 808 957 702 912.5 c 128,-1,39
 596 868 596 868 490 867 c 0,40,41
 371 865 371 865 305 893.5 c 128,-1,42
 239 922 239 922 207 960.5 c 128,-1,43
 175 999 175 999 168 1037 c 128,-1,44
 161 1075 161 1075 161 1093 c 0,45,46
 161 1141 161 1141 183 1190.5 c 128,-1,47
 205 1240 205 1240 250 1281.5 c 128,-1,48
 295 1323 295 1323 362.5 1349.5 c 128,-1,49
 430 1376 430 1376 520 1376 c 0,50,51
 564 1376 564 1376 617 1364.5 c 128,-1,52
 670 1353 670 1353 721.5 1333.5 c 128,-1,53
 773 1314 773 1314 820 1288.5 c 128,-1,54
 867 1263 867 1263 899 1236 c 1,55,56
 911 1251 911 1251 934 1277.5 c 128,-1,57
 957 1304 957 1304 981 1343.5 c 128,-1,58
 1005 1383 1005 1383 1026 1436 c 128,-1,59
 1047 1489 1047 1489 1058 1557 c 0,60,61
 1060 1571 1060 1571 1075.5 1578 c 128,-1,62
 1091 1585 1091 1585 1109 1580.5 c 128,-1,63
 1127 1576 1127 1576 1139 1561 c 128,-1,64
 1151 1546 1151 1546 1146 1514 c 0,65,66
 1143 1443 1143 1443 1113 1372.5 c 128,-1,67
 1083 1302 1083 1302 1049 1251 c 0,68,69
 1031 1226 1031 1226 1011.5 1198.5 c 128,-1,70
 992 1171 992 1171 973 1150 c 1,71,72
 1019 1075 1019 1075 1048 990.5 c 128,-1,73
 1077 906 1077 906 1094 814.5 c 128,-1,74
 1111 723 1111 723 1117 627 c 128,-1,75
 1123 531 1123 531 1123 433 c 0,76,77
 1123 345 1123 345 1109 267 c 128,-1,78
 1095 189 1095 189 1058 131 c 128,-1,79
 1021 73 1021 73 954.5 38.5 c 128,-1,80
 888 4 888 4 782 0 c 1,81,-1
 784 0 l 1,82,-1
 591 -4 l 2,83,84
 483 -4 483 -4 400.5 9.5 c 128,-1,85
 318 23 318 23 262.5 61 c 128,-1,86
 207 99 207 99 178.5 167 c 128,-1,87
 150 235 150 235 150 347 c 0,88,89
 150 508 150 508 184 611.5 c 128,-1,90
 218 715 218 715 278 761 c 0,91,92
 318 791 318 791 367.5 812 c 128,-1,93
 417 833 417 833 469 830 c 0,94,95
 582 822 582 822 651 736 c 0,96,97
 681 700 681 700 696 648 c 128,-1,98
 711 596 711 596 711 550 c 0,99,100
 706 506 706 506 689 467 c 128,-1,101
 672 428 672 428 643 399 c 128,-1,102
 614 370 614 370 571.5 353 c 128,-1,103
 529 336 529 336 474 336 c 0,104,105
 402 336 402 336 340.5 361.5 c 128,-1,106
 279 387 279 387 255 453 c 1,107,108
 251 428 251 428 248.5 399 c 128,-1,109
 246 370 246 370 249 341 c 2,110,111
 246 262 246 262 273.5 214 c 128,-1,112
 301 166 301 166 348.5 140.5 c 128,-1,113
 396 115 396 115 460.5 107 c 128,-1,114
 525 99 525 99 598 99 c 0,115,116
 647 99 647 99 702 98 c 128,-1,117
 757 97 757 97 807.5 103.5 c 128,-1,118
 858 110 858 110 900.5 127.5 c 128,-1,119
 943 145 943 145 969 184 c 0,120,121
 1021 278 1021 278 1021 433 c 0,122,123
 1021 534 1021 534 1013 627 c 128,-1,124
 1005 720 1005 720 991 810 c 0,34,35
EndSplineSet
EndChar
StartChar: uni0E2F
Encoding: 3631 3631 51
Width: 978
VWidth: 3622
Flags: W
HStem: 755 126<337.115 506.053> 1212 100<172.954 285.049>
VStem: 18 97<1054.12 1151.82> 357 105<1055.67 1102 1102 1189.6> 718 122<21.4395 53 53 652.5 652.5 837 1126.42 1281.1>
Fore
299 891 m 0,0,1
 283 886 283 886 282 883.5 c 128,-1,2
 281 881 281 881 284.5 881 c 128,-1,3
 288 881 288 881 293.5 882.5 c 128,-1,4
 299 884 299 884 297 888 c 1,5,6
 361 865 361 865 449 870 c 0,7,8
 506 874 506 874 556.5 889 c 128,-1,9
 607 904 607 904 644 943.5 c 128,-1,10
 681 983 681 983 703 1055 c 128,-1,11
 725 1127 725 1127 725 1243 c 0,12,13
 722 1274 722 1274 740.5 1292.5 c 128,-1,14
 759 1311 759 1311 784 1311 c 0,15,16
 803 1311 803 1311 821.5 1296.5 c 128,-1,17
 840 1282 840 1282 840 1252 c 2,18,-1
 826 53 l 2,19,20
 824 34 824 34 811 18 c 128,-1,21
 798 2 798 2 769 5 c 0,22,23
 743 7 743 7 729 21 c 128,-1,24
 715 35 715 35 715 57 c 2,25,-1
 718 837 l 1,26,27
 672 796 672 796 605.5 777.5 c 128,-1,28
 539 759 539 759 444 755 c 0,29,30
 352 754 352 754 272.5 770.5 c 128,-1,31
 193 787 193 787 134.5 827.5 c 128,-1,32
 76 868 76 868 44 936.5 c 128,-1,33
 12 1005 12 1005 18 1104 c 0,34,35
 19 1144 19 1144 36 1181.5 c 128,-1,36
 53 1219 53 1219 81.5 1248 c 128,-1,37
 110 1277 110 1277 145 1294 c 128,-1,38
 180 1311 180 1311 219 1312 c 0,39,40
 267 1316 267 1316 310.5 1302.5 c 128,-1,41
 354 1289 354 1289 386.5 1262.5 c 128,-1,42
 419 1236 419 1236 439.5 1197.5 c 128,-1,43
 460 1159 460 1159 462 1109 c 0,44,45
 465 1029 465 1029 422 974.5 c 128,-1,46
 379 920 379 920 299 891 c 0,0,1
212 1212 m 2,47,48
 177 1208 177 1208 146 1181.5 c 128,-1,49
 115 1155 115 1155 115 1104 c 0,50,51
 115 1067 115 1067 126.5 1043 c 128,-1,52
 138 1019 138 1019 154 1006.5 c 128,-1,53
 170 994 170 994 188.5 989.5 c 128,-1,54
 207 985 207 985 221 985 c 0,55,56
 292 982 292 982 326.5 1020 c 128,-1,57
 361 1058 361 1058 357 1102 c 0,58,59
 354 1162 354 1162 312.5 1190.5 c 128,-1,60
 271 1219 271 1219 214 1212 c 2,61,-1
 212 1212 l 2,47,48
EndSplineSet
EndChar
StartChar: uni0E30
Encoding: 3632 3632 52
Width: 953
VWidth: 3622
Flags: W
HStem: 97 98<308.3 440.01> 255 83<226.209 236.758 236.758 257.942 257.942 327.308> 492 92.5<227.231 298.038> 722 97<308.3 440.01> 879 83<248.981 327.308> 1116 96<226.292 298.038>
VStem: 81 91<364.251 440.445 406.427 474.463 988.14 1065.2 1031.43 1098.98> 626 108<395.664 533.664 1019.84 1158>
Fore
267 1116 m 0,0,1
 235 1116 235 1116 206 1099.5 c 128,-1,2
 177 1083 177 1083 172 1040 c 0,3,4
 172 1010 172 1010 186 994 c 128,-1,5
 200 978 200 978 216.5 971 c 128,-1,6
 233 964 233 964 248.5 963 c 128,-1,7
 264 962 264 962 267 962 c 0,8,9
 306 962 306 962 328 992 c 128,-1,10
 350 1022 350 1022 347 1051 c 0,11,12
 343 1075 343 1075 319 1095.5 c 128,-1,13
 295 1116 295 1116 267 1116 c 0,0,1
267 879 m 0,14,15
 258 879 258 879 247.5 879 c 128,-1,16
 237 879 237 879 226 881 c 1,17,18
 255 838 255 838 296.5 828.5 c 128,-1,19
 338 819 338 819 386 819 c 256,20,21
 433 819 433 819 479 840 c 128,-1,22
 525 861 525 861 560.5 901 c 128,-1,23
 596 941 596 941 614.5 999.5 c 128,-1,24
 633 1058 633 1058 626 1134 c 0,25,26
 626 1153 626 1153 641 1167.5 c 128,-1,27
 656 1182 656 1182 677 1182 c 0,28,29
 702 1182 702 1182 718 1168.5 c 128,-1,30
 734 1155 734 1155 734 1136 c 0,31,32
 738 1026 738 1026 707 949 c 128,-1,33
 676 872 676 872 625.5 821.5 c 128,-1,34
 575 771 575 771 511.5 747 c 128,-1,35
 448 723 448 723 386 722 c 0,36,37
 306 720 306 720 253 737.5 c 128,-1,38
 200 755 200 755 165.5 785 c 128,-1,39
 131 815 131 815 113.5 853 c 128,-1,40
 96 891 96 891 88 929.5 c 128,-1,41
 80 968 80 968 80 1002.5 c 128,-1,42
 80 1037 80 1037 81 1060 c 0,43,44
 88 1111 88 1111 111 1141 c 128,-1,45
 134 1171 134 1171 163.5 1187 c 128,-1,46
 193 1203 193 1203 221 1207.5 c 128,-1,47
 249 1212 249 1212 267 1212 c 0,48,49
 301 1213 301 1213 331 1201 c 128,-1,50
 361 1189 361 1189 383 1166.5 c 128,-1,51
 405 1144 405 1144 418.5 1116 c 128,-1,52
 432 1088 432 1088 435 1058 c 0,53,54
 439 1024 439 1024 432 993 c 128,-1,55
 425 962 425 962 404.5 936.5 c 128,-1,56
 384 911 384 911 350.5 896 c 128,-1,57
 317 881 317 881 267 879 c 0,14,15
267 492 m 0,58,59
 235 492 235 492 206 475 c 128,-1,60
 177 458 177 458 172 416 c 0,61,62
 172 386 172 386 186 370 c 128,-1,63
 200 354 200 354 216.5 347 c 128,-1,64
 233 340 233 340 248.5 339 c 128,-1,65
 264 338 264 338 267 338 c 0,66,67
 306 338 306 338 328 368 c 128,-1,68
 350 398 350 398 347 426 c 0,69,70
 343 451 343 451 319 471.5 c 128,-1,71
 295 492 295 492 267 492 c 0,58,59
267 255 m 0,72,73
 258 255 258 255 247.5 255 c 128,-1,74
 237 255 237 255 226 256 c 1,75,76
 255 214 255 214 296.5 204.5 c 128,-1,77
 338 195 338 195 386 195 c 256,78,79
 433 195 433 195 479 216 c 128,-1,80
 525 237 525 237 560.5 277 c 128,-1,81
 596 317 596 317 614.5 375 c 128,-1,82
 633 433 633 433 626 509 c 0,83,84
 626 529 626 529 641 543 c 128,-1,85
 656 557 656 557 677 557 c 0,86,87
 702 557 702 557 718 544 c 128,-1,88
 734 531 734 531 734 511 c 0,89,90
 738 402 738 402 707 325 c 128,-1,91
 676 248 676 248 625.5 197.5 c 128,-1,92
 575 147 575 147 511.5 123 c 128,-1,93
 448 99 448 99 386 97 c 0,94,95
 306 96 306 96 253 113.5 c 128,-1,96
 200 131 200 131 165.5 161 c 128,-1,97
 131 191 131 191 113.5 229 c 128,-1,98
 96 267 96 267 88 305 c 128,-1,99
 80 343 80 343 80 377.5 c 128,-1,100
 80 412 80 412 81 435 c 0,101,102
 96 511 96 511 149.5 548 c 128,-1,103
 203 585 203 585 264 584.5 c 128,-1,104
 325 584 325 584 375.5 546 c 128,-1,105
 426 508 426 508 435 433 c 0,106,107
 439 400 439 400 432 369 c 128,-1,108
 425 338 425 338 404.5 312.5 c 128,-1,109
 384 287 384 287 350.5 271.5 c 128,-1,110
 317 256 317 256 267 255 c 0,72,73
EndSplineSet
EndChar
StartChar: uni0E31
Encoding: 3633 3633 53
Width: 0
VWidth: 3622
Flags: W
HStem: 1489 105.5<-553.458 -385.732>
VStem: -886 101<1757.26 1792 1792 1863.1> -554 105<1768.61 1832 1832 1908.21> -99 117<1938.17 2061.79>
Fore
-591 1610 m 1,0,1
 -539 1595 -539 1595 -486 1594.5 c 128,-1,2
 -433 1594 -433 1594 -377 1603 c 256,3,4
 -320 1611 -320 1611 -269 1630.5 c 128,-1,5
 -218 1650 -218 1650 -179 1689 c 128,-1,6
 -140 1728 -140 1728 -117 1788 c 128,-1,7
 -94 1848 -94 1848 -94 1937 c 0,8,9
 -94 1978 -94 1978 -99 2025 c 1,10,11
 -108 2057 -108 2057 -87.5 2077.5 c 128,-1,12
 -67 2098 -67 2098 -41 2098 c 0,13,14
 -21 2098 -21 2098 -3.5 2084.5 c 128,-1,15
 14 2071 14 2071 18 2043 c 0,16,17
 34 1933 34 1933 20.5 1839.5 c 128,-1,18
 7 1746 7 1746 -38 1674.5 c 128,-1,19
 -83 1603 -83 1603 -163.5 1557 c 128,-1,20
 -244 1511 -244 1511 -363 1495 c 0,21,22
 -409 1489 -409 1489 -455 1489 c 0,23,24
 -531 1489 -531 1489 -604 1505 c 128,-1,25
 -677 1521 -677 1521 -737.5 1556.5 c 128,-1,26
 -798 1592 -798 1592 -837.5 1650.5 c 128,-1,27
 -877 1709 -877 1709 -886 1792 c 0,28,29
 -891 1834 -891 1834 -879 1874 c 128,-1,30
 -867 1914 -867 1914 -843 1945 c 128,-1,31
 -819 1976 -819 1976 -784.5 1997 c 128,-1,32
 -750 2018 -750 2018 -709 2027 c 0,33,34
 -667 2036 -667 2036 -622.5 2026 c 128,-1,35
 -578 2016 -578 2016 -540 1992.5 c 128,-1,36
 -502 1969 -502 1969 -477.5 1931.5 c 128,-1,37
 -453 1894 -453 1894 -449 1847 c 0,38,39
 -440 1776 -440 1776 -474 1712.5 c 128,-1,40
 -508 1649 -508 1649 -591 1610 c 1,0,1
-711 1923 m 0,41,42
 -746 1914 -746 1914 -767.5 1883 c 128,-1,43
 -789 1852 -789 1852 -785 1804 c 0,44,45
 -784 1763 -784 1763 -770.5 1740.5 c 128,-1,46
 -757 1718 -757 1718 -739.5 1706.5 c 128,-1,47
 -722 1695 -722 1695 -703.5 1693 c 128,-1,48
 -685 1691 -685 1691 -672 1691 c 0,49,50
 -610 1695 -610 1695 -578.5 1737 c 128,-1,51
 -547 1779 -547 1779 -554 1832 c 0,52,53
 -561 1889 -561 1889 -606 1913 c 128,-1,54
 -651 1937 -651 1937 -711 1923 c 0,41,42
EndSplineSet
Substitution2: "Single Substitution lookup 22 subtable" uni0E31.alt1
Substitution2: "Single Substitution lookup 22 subtable" uni0E31.alt1
EndChar
StartChar: uni0E32
Encoding: 3634 3634 54
Width: 999
VWidth: 3622
Flags: W
HStem: 1201 104<350.911 581.909>
VStem: 750 101<45.0123 73 73 280.942 280.942 333.5 333.5 374.481 374.481 461.85 461.85 562.696 562.696 676.665 676.665 884.594>
Fore
101 941 m 0,0,1
 104 1026 104 1026 127 1093 c 128,-1,2
 150 1160 150 1160 193.5 1208 c 128,-1,3
 237 1256 237 1256 303.5 1280.5 c 128,-1,4
 370 1305 370 1305 462 1305 c 0,5,6
 607 1305 607 1305 687.5 1255 c 128,-1,7
 768 1205 768 1205 806.5 1120 c 128,-1,8
 845 1035 845 1035 853 921.5 c 128,-1,9
 861 808 861 808 861 681 c 2,10,-1
 861 594 l 1,11,-1
 851 73 l 2,12,13
 851 48 851 48 838.5 37.5 c 128,-1,14
 826 27 826 27 801 23 c 0,15,16
 750 18 750 18 750 73 c 0,17,18
 750 168 750 168 750 227.5 c 128,-1,19
 750 287 750 287 752 334 c 0,20,21
 752 366 752 366 753 415.5 c 128,-1,22
 754 465 754 465 754 508 c 0,23,24
 757 561 757 561 759 617.5 c 128,-1,25
 761 674 761 674 762 736 c 0,26,27
 766 863 766 863 739 964 c 0,28,29
 727 1014 727 1014 706.5 1057 c 128,-1,30
 686 1100 686 1100 654.5 1132 c 128,-1,31
 623 1164 623 1164 577.5 1182.5 c 128,-1,32
 532 1201 532 1201 469 1201 c 0,33,34
 400 1199 400 1199 352 1182.5 c 128,-1,35
 304 1166 304 1166 273 1133 c 128,-1,36
 242 1100 242 1100 224.5 1049.5 c 128,-1,37
 207 999 207 999 198 930 c 1,38,39
 195 920 195 920 190.5 912 c 128,-1,40
 186 904 186 904 177 900 c 0,41,42
 157 890 157 890 143 890 c 0,43,44
 136 890 136 890 118.5 899.5 c 128,-1,45
 101 909 101 909 101 941 c 0,0,1
EndSplineSet
EndChar
StartChar: uni0E33
Encoding: 3635 3635 55
Width: 974
VWidth: 3622
Flags: W
HStem: 1201 104<343.64 576.24> 1452 101<-302.909 -166.096> 1778 104<-304.055 -166.223>
VStem: -451 104<1598.36 1732.35> -122 103<1598.36 1733.86> 745 100<46.4321 73 73 280.942 280.942 333.5 333.5 374.481 374.481 461.85 461.85 562.696 562.696 676.665 676.665 886.469>
Fore
-233 1882 m 0,0,1
 -189 1882 -189 1882 -149.5 1865 c 128,-1,2
 -110 1848 -110 1848 -81.5 1820 c 128,-1,3
 -53 1792 -53 1792 -36 1752 c 128,-1,4
 -19 1712 -19 1712 -19 1668 c 0,5,6
 -19 1620 -19 1620 -36 1581 c 128,-1,7
 -53 1542 -53 1542 -81.5 1513 c 128,-1,8
 -110 1484 -110 1484 -149.5 1468 c 128,-1,9
 -189 1452 -189 1452 -233 1452 c 0,10,11
 -279 1452 -279 1452 -319 1468 c 128,-1,12
 -359 1484 -359 1484 -388 1513 c 128,-1,13
 -417 1542 -417 1542 -434 1581 c 128,-1,14
 -451 1620 -451 1620 -451 1668 c 0,15,16
 -451 1712 -451 1712 -434 1752 c 128,-1,17
 -417 1792 -417 1792 -388 1820 c 128,-1,18
 -359 1848 -359 1848 -319 1865 c 128,-1,19
 -279 1882 -279 1882 -233 1882 c 0,0,1
-241 1778 m 0,20,21
 -292 1776 -292 1776 -319.5 1743 c 128,-1,22
 -347 1710 -347 1710 -347 1668 c 0,23,24
 -347 1618 -347 1618 -316 1585.5 c 128,-1,25
 -285 1553 -285 1553 -233 1553 c 0,26,27
 -186 1553 -186 1553 -154 1585.5 c 128,-1,28
 -122 1618 -122 1618 -122 1668 c 0,29,30
 -122 1714 -122 1714 -153 1746 c 128,-1,31
 -184 1778 -184 1778 -241 1778 c 0,20,21
96 941 m 0,32,33
 103 1111 103 1111 187.5 1208 c 128,-1,34
 272 1305 272 1305 456 1305 c 0,35,36
 601 1305 601 1305 681.5 1255 c 128,-1,37
 762 1205 762 1205 801 1120 c 128,-1,38
 840 1035 840 1035 848 921.5 c 128,-1,39
 856 808 856 808 856 681 c 2,40,-1
 856 594 l 1,41,-1
 845 73 l 2,42,43
 845 48 845 48 833 37.5 c 128,-1,44
 821 27 821 27 796 23 c 0,45,46
 745 18 745 18 745 73 c 0,47,48
 745 168 745 168 745 227.5 c 128,-1,49
 745 287 745 287 746 334 c 0,50,51
 746 366 746 366 747 415.5 c 128,-1,52
 748 465 748 465 748 508 c 0,53,54
 752 561 752 561 753.5 617.5 c 128,-1,55
 755 674 755 674 757 736 c 0,56,57
 761 867 761 867 734 964 c 0,58,59
 722 1014 722 1014 701.5 1057 c 128,-1,60
 681 1100 681 1100 649 1132 c 128,-1,61
 617 1164 617 1164 572 1182.5 c 128,-1,62
 527 1201 527 1201 463 1201 c 0,63,64
 394 1199 394 1199 346.5 1182.5 c 128,-1,65
 299 1166 299 1166 268 1133 c 128,-1,66
 237 1100 237 1100 219.5 1049.5 c 128,-1,67
 202 999 202 999 193 930 c 1,68,69
 189 920 189 920 184.5 912 c 128,-1,70
 180 904 180 904 172 900 c 0,71,72
 152 890 152 890 138 890 c 0,73,74
 131 890 131 890 113.5 899.5 c 128,-1,75
 96 909 96 909 96 941 c 0,32,33
EndSplineSet
Substitution2: "Single Substitution lookup 22 subtable" uni0E33.alt1
Substitution2: "Single Substitution lookup 22 subtable" uni0E33.alt1
EndChar
StartChar: uni0E34
Encoding: 3636 3636 56
Width: 0
VWidth: 3622
Flags: W
HStem: 1450 98.5<-1014.28 -951.5 -925 -908.958 -908.958 -858.7 -858.7 -796.154 -827.427 -655.181 -692.458 -617.904> 1868 88<-819.125 -606.225>
VStem: -1128 90<1570.25 1684.02>
Fore
-693 1956 m 0,0,1
 -550 1956 -550 1956 -409 1863 c 0,2,3
 -340 1815 -340 1815 -282.5 1761 c 128,-1,4
 -225 1707 -225 1707 -180 1643 c 1,5,-1
 -182 1643 l 1,6,7
 -157 1613 -157 1613 -147.5 1589 c 128,-1,8
 -138 1565 -138 1565 -138 1549 c 0,9,10
 -138 1511 -138 1511 -163.5 1497.5 c 128,-1,11
 -189 1484 -189 1484 -216 1484 c 0,12,13
 -262 1482 -262 1482 -316.5 1478.5 c 128,-1,14
 -371 1475 -371 1475 -432 1470 c 0,15,16
 -522 1463 -522 1463 -615 1456.5 c 128,-1,17
 -708 1450 -708 1450 -792 1450 c 0,18,19
 -865 1450 -865 1450 -925 1456.5 c 128,-1,20
 -985 1463 -985 1463 -1030 1478 c 128,-1,21
 -1075 1493 -1075 1493 -1101 1518.5 c 128,-1,22
 -1127 1544 -1127 1544 -1128 1581 c 0,23,24
 -1132 1649 -1132 1649 -1093 1716 c 128,-1,25
 -1054 1783 -1054 1783 -990.5 1836 c 128,-1,26
 -927 1889 -927 1889 -848 1922.5 c 128,-1,27
 -769 1956 -769 1956 -693 1956 c 0,0,1
-255 1578 m 0,28,29
 -264 1594 -264 1594 -302.5 1643.5 c 128,-1,30
 -341 1693 -341 1693 -401.5 1746 c 128,-1,31
 -462 1799 -462 1799 -539.5 1837 c 128,-1,32
 -617 1875 -617 1875 -702 1868 c 0,33,34
 -761 1864 -761 1864 -821 1838.5 c 128,-1,35
 -881 1813 -881 1813 -928.5 1773 c 128,-1,36
 -976 1733 -976 1733 -1007 1685.5 c 128,-1,37
 -1038 1638 -1038 1638 -1038 1590 c 0,38,39
 -1038 1578 -1038 1578 -1015 1570 c 128,-1,40
 -992 1562 -992 1562 -951.5 1556.5 c 128,-1,41
 -911 1551 -911 1551 -856 1548.5 c 128,-1,42
 -801 1546 -801 1546 -736 1546 c 0,43,44
 -699 1546 -699 1546 -648.5 1547.5 c 128,-1,45
 -598 1549 -598 1549 -544 1551 c 128,-1,46
 -490 1553 -490 1553 -437 1556.5 c 128,-1,47
 -384 1560 -384 1560 -343 1563.5 c 128,-1,48
 -302 1567 -302 1567 -277.5 1570.5 c 128,-1,49
 -253 1574 -253 1574 -255 1578 c 0,28,29
EndSplineSet
Substitution2: "Single Substitution lookup 22 subtable" uni0E34.alt1
Substitution2: "Single Substitution lookup 22 subtable" uni0E34.alt1
EndChar
StartChar: uni0E35
Encoding: 3637 3637 57
Width: 0
VWidth: 3622
Flags: W
HStem: 1457 627<-863 -246 -325 -298.857> 1457 100.5<-1064.28 -1001 -984.5 -958.357 -958.357 -923.911 -923.911 -845.427 -884.669 -689.668> 1875 88<-884.038 -632.086>
VStem: -1180 92<1586.66 1643.5> -294 96<1711.41 1785 1865 1942.95 1942.95 1965.58 1965.58 2041> -279 92<1710.23 1862.53>
Fore
-743 1963 m 0,0,1
 -679 1963 -679 1963 -613.5 1942 c 128,-1,2
 -548 1921 -548 1921 -488 1886.5 c 128,-1,3
 -428 1852 -428 1852 -374 1805 c 128,-1,4
 -320 1758 -320 1758 -279 1709 c 1,5,6
 -283 1786 -283 1786 -285 1865 c 128,-1,7
 -287 1944 -287 1944 -294 2039 c 0,8,9
 -295 2084 -295 2084 -246 2084 c 0,10,11
 -203 2084 -203 2084 -198 2041 c 0,12,13
 -196 1923 -196 1923 -187 1785 c 0,14,15
 -184 1723 -184 1723 -179.5 1668 c 128,-1,16
 -175 1613 -175 1613 -168 1572 c 0,17,18
 -163 1534 -163 1534 -191 1511.5 c 128,-1,19
 -219 1489 -219 1489 -267 1491 c 0,20,21
 -324 1493 -324 1493 -394.5 1487.5 c 128,-1,22
 -465 1482 -465 1482 -539 1475 c 0,23,24
 -624 1468 -624 1468 -705.5 1462.5 c 128,-1,25
 -787 1457 -787 1457 -863 1457 c 0,26,27
 -929 1457 -929 1457 -984.5 1463.5 c 128,-1,28
 -1040 1470 -1040 1470 -1082.5 1485 c 128,-1,29
 -1125 1500 -1125 1500 -1150.5 1525.5 c 128,-1,30
 -1176 1551 -1176 1551 -1180 1588 c 0,31,32
 -1183 1656 -1183 1656 -1144.5 1723 c 128,-1,33
 -1106 1790 -1106 1790 -1042 1843 c 128,-1,34
 -978 1896 -978 1896 -899.5 1929.5 c 128,-1,35
 -821 1963 -821 1963 -743 1963 c 0,0,1
-297 1576 m 1,36,37
 -322 1633 -322 1633 -365.5 1686 c 128,-1,38
 -409 1739 -409 1739 -466.5 1780.5 c 128,-1,39
 -524 1822 -524 1822 -593.5 1847.5 c 128,-1,40
 -663 1873 -663 1873 -741 1875 c 0,41,42
 -810 1871 -810 1871 -873 1844.5 c 128,-1,43
 -936 1818 -936 1818 -983.5 1778.5 c 128,-1,44
 -1031 1739 -1031 1739 -1059.5 1691 c 128,-1,45
 -1088 1643 -1088 1643 -1088 1597 c 0,46,47
 -1088 1587 -1088 1587 -1065 1579 c 128,-1,48
 -1042 1571 -1042 1571 -1001 1565.5 c 128,-1,49
 -960 1560 -960 1560 -905.5 1557.5 c 128,-1,50
 -851 1555 -851 1555 -785 1555 c 0,51,52
 -674 1555 -674 1555 -545 1558.5 c 128,-1,53
 -416 1562 -416 1562 -297 1576 c 1,36,37
EndSplineSet
Substitution2: "Single Substitution lookup 22 subtable" uni0E35.alt1
Substitution2: "Single Substitution lookup 22 subtable" uni0E35.alt1
EndChar
StartChar: uni0E36
Encoding: 3638 3638 58
Width: 0
VWidth: 3622
Flags: W
HStem: 1449 92<-1105.89 -1050.5 -1050.5 -989.179 -989.179 -915.154 -952.167 -757.664 -771.304 -744.025 -744.025 -625.182 -625.182 -589 -557 -490.854> 1868 92<-913.345 -638.152> 1955 100<-357.053 -217.104>
VStem: -1217 89<1554.62 1692.71> -198 92<1766.91 1917.01>
Fore
-292 2055 m 0,0,1
 -207 2055 -207 2055 -156.5 2001 c 128,-1,2
 -106 1947 -106 1947 -106 1852 c 0,3,4
 -106 1767 -106 1767 -150.5 1711.5 c 128,-1,5
 -195 1656 -195 1656 -269 1647 c 1,6,7
 -251 1622 -251 1622 -238 1593 c 128,-1,8
 -225 1564 -225 1564 -225 1542 c 0,9,10
 -225 1488 -225 1488 -302 1484 c 0,11,12
 -356 1479 -356 1479 -421 1472.5 c 128,-1,13
 -486 1466 -486 1466 -557 1461 c 128,-1,14
 -628 1456 -628 1456 -700.5 1452.5 c 128,-1,15
 -773 1449 -773 1449 -842 1449 c 0,16,17
 -920 1449 -920 1449 -988 1455 c 128,-1,18
 -1056 1461 -1056 1461 -1107.5 1477 c 128,-1,19
 -1159 1493 -1159 1493 -1188 1518.5 c 128,-1,20
 -1217 1544 -1217 1544 -1217 1583 c 0,21,22
 -1217 1652 -1217 1652 -1177 1719 c 128,-1,23
 -1137 1786 -1137 1786 -1075.5 1839.5 c 128,-1,24
 -1014 1893 -1014 1893 -936 1926.5 c 128,-1,25
 -858 1960 -858 1960 -784 1960 c 0,26,27
 -688 1956 -688 1956 -613 1928.5 c 128,-1,28
 -538 1901 -538 1901 -476 1859 c 1,29,30
 -472 1949 -472 1949 -421.5 2002 c 128,-1,31
 -371 2055 -371 2055 -292 2055 c 0,0,1
-357 1610 m 1,32,-1
 -357 1608 l 1,33,34
 -398 1650 -398 1650 -443 1694.5 c 128,-1,35
 -488 1739 -488 1739 -540.5 1775 c 128,-1,36
 -593 1811 -593 1811 -652 1837 c 128,-1,37
 -711 1863 -711 1863 -780 1868 c 0,38,39
 -835 1866 -835 1866 -895 1842 c 128,-1,40
 -955 1818 -955 1818 -1005.5 1779 c 128,-1,41
 -1056 1740 -1056 1740 -1090.5 1689 c 128,-1,42
 -1125 1638 -1125 1638 -1128 1581 c 0,43,44
 -1128 1558 -1128 1558 -1050.5 1549.5 c 128,-1,45
 -973 1541 -973 1541 -851 1541 c 256,46,47
 -729 1541 -729 1541 -589 1551.5 c 128,-1,48
 -449 1562 -449 1562 -322 1571 c 1,49,-1
 -333 1581 l 1,50,-1
 -357 1610 l 1,32,-1
-283 1955 m 0,51,52
 -333 1955 -333 1955 -355 1921 c 128,-1,53
 -377 1887 -377 1887 -377 1848 c 0,54,55
 -377 1808 -377 1808 -355.5 1777 c 128,-1,56
 -334 1746 -334 1746 -292 1744 c 256,57,58
 -249 1742 -249 1742 -223.5 1775.5 c 128,-1,59
 -198 1809 -198 1809 -198 1850 c 256,60,61
 -198 1891 -198 1891 -220 1921 c 128,-1,62
 -242 1951 -242 1951 -283 1955 c 0,51,52
EndSplineSet
Substitution2: "Single Substitution lookup 22 subtable" uni0E36.alt1
Substitution2: "Single Substitution lookup 22 subtable" uni0E36.alt1
EndChar
StartChar: uni0E37
Encoding: 3639 3639 59
Width: 0
VWidth: 3622
Flags: W
HStem: 1457 96<-1057.7 -989.5 -966.5 -944.193 -944.193 -902.396 -902.396 -825.154 -863.775 -657.375 -753.85 -566.475> 1875 88<-846.039 -612.891>
VStem: -1173 89<1586.95 1690.95> -483 96<1958.13 2077 2077 2108.43> -285 90<1920.75 2064.68> -278.5 104<1695 1739.05 1739.05 1775.88 1775.88 1785 1857 1909.25>
Fore
-377 1817 m 1,0,-1
 -272 1695 l 1,1,2
 -276 1772 -276 1772 -278.5 1857 c 128,-1,3
 -281 1942 -281 1942 -285 2039 c 0,4,5
 -285 2061 -285 2061 -271.5 2071.5 c 128,-1,6
 -258 2082 -258 2082 -241.5 2083 c 128,-1,7
 -225 2084 -225 2084 -210 2075 c 128,-1,8
 -195 2066 -195 2066 -195 2045 c 2,9,-1
 -180 1785 l 2,10,11
 -177 1718 -177 1718 -174.5 1670 c 128,-1,12
 -172 1622 -172 1622 -168 1581 c 0,13,14
 -168 1551 -168 1551 -192 1523 c 128,-1,15
 -216 1495 -216 1495 -258 1491 c 0,16,17
 -363 1486 -363 1486 -497 1475 c 0,18,19
 -582 1468 -582 1468 -669.5 1462.5 c 128,-1,20
 -757 1457 -757 1457 -838 1457 c 0,21,22
 -907 1457 -907 1457 -966.5 1463.5 c 128,-1,23
 -1026 1470 -1026 1470 -1071 1484 c 128,-1,24
 -1116 1498 -1116 1498 -1142.5 1523.5 c 128,-1,25
 -1169 1549 -1169 1549 -1173 1588 c 0,26,27
 -1176 1656 -1176 1656 -1137 1722 c 128,-1,28
 -1098 1788 -1098 1788 -1034.5 1842 c 128,-1,29
 -971 1896 -971 1896 -892.5 1929.5 c 128,-1,30
 -814 1963 -814 1963 -736 1963 c 0,31,32
 -670 1963 -670 1963 -623.5 1952.5 c 128,-1,33
 -577 1942 -577 1942 -546 1927 c 128,-1,34
 -515 1912 -515 1912 -497 1898 c 128,-1,35
 -479 1884 -479 1884 -471 1878 c 1,36,-1
 -483 2077 l 2,37,38
 -485 2100 -485 2100 -471.5 2114 c 128,-1,39
 -458 2128 -458 2128 -440.5 2130.5 c 128,-1,40
 -423 2133 -423 2133 -407 2122.5 c 128,-1,41
 -391 2112 -391 2112 -387 2085 c 2,42,-1
 -377 1817 l 1,0,-1
-302 1585 m 1,43,44
 -327 1629 -327 1629 -366 1679.5 c 128,-1,45
 -405 1730 -405 1730 -459 1772.5 c 128,-1,46
 -513 1815 -513 1815 -582 1844 c 128,-1,47
 -651 1873 -651 1873 -734 1875 c 0,48,49
 -801 1875 -801 1875 -864 1849.5 c 128,-1,50
 -927 1824 -927 1824 -974.5 1783 c 128,-1,51
 -1022 1742 -1022 1742 -1052.5 1692.5 c 128,-1,52
 -1083 1643 -1083 1643 -1084 1597 c 0,53,54
 -1084 1587 -1084 1587 -1058.5 1578 c 128,-1,55
 -1033 1569 -1033 1569 -989.5 1563.5 c 128,-1,56
 -946 1558 -946 1558 -888 1555.5 c 128,-1,57
 -830 1553 -830 1553 -762 1553 c 0,58,59
 -654 1553 -654 1553 -535 1562 c 128,-1,60
 -416 1571 -416 1571 -302 1585 c 1,43,44
EndSplineSet
Substitution2: "Single Substitution lookup 22 subtable" uni0E37.alt1
Substitution2: "Single Substitution lookup 22 subtable" uni0E37.alt1
EndChar
